<svg width="40" height="40" viewBox="0 0 40 40" fill="none" xmlns="http://www.w3.org/2000/svg">
<g clip-path="url(#clip0_9_91)">
<path d="M7.08334 3.22406e-06H32.9167C33.8471 -0.000896212 34.7686 0.186404 35.6284 0.551183C36.4882 0.915963 37.2694 1.45106 37.9273 2.12585C38.5852 2.80065 39.1069 3.60189 39.4626 4.48372C39.8183 5.36555 40.0009 6.31066 40 7.26496V32.735C40.0009 33.6893 39.8183 34.6345 39.4626 35.5163C39.1069 36.3981 38.5852 37.1994 37.9273 37.8741C37.2694 38.5489 36.4882 39.084 35.6284 39.4488C34.7686 39.8136 33.8471 40.0009 32.9167 40H7.08334C6.15289 40.0009 5.23141 39.8136 4.37162 39.4488C3.51184 39.084 2.73063 38.5489 2.07271 37.8741C1.41478 37.1994 0.893064 36.3981 0.537404 35.5163C0.181743 34.6345 -0.000873806 33.6893 3.14346e-06 32.735V7.26496C-0.000873806 6.31066 0.181743 5.36555 0.537404 4.48372C0.893064 3.60189 1.41478 2.80065 2.07271 2.12585C2.73063 1.45106 3.51184 0.915963 4.37162 0.551183C5.23141 0.186404 6.15289 -0.000896212 7.08334 3.22406e-06V3.22406e-06Z" fill="#2965F1"/>
<path d="M9.79102 16.4895L10.1846 20.8816H20.0131V16.4895H9.79102ZM9 7.6L9.39923 11.992H20.0131V7.6H9V7.6ZM20.0131 27.8961L19.9939 27.9012L15.1025 26.5804L14.7898 23.0776H10.3809L10.9961 29.9738L19.9929 32.4712L20.0131 32.4657V27.8961Z" fill="#EBEBEB"/>
<path d="M30.2072 16.4895L31 7.6H19.998V11.992H26.1867L25.7871 16.4895H19.998V20.8816H25.4063L24.8964 26.5777L19.9979 27.8998V32.4691L29.0018 29.9738L29.0678 29.2317L30.1001 17.6689L30.2072 16.4895V16.4895Z" fill="white"/>
</g>
<defs>
<clipPath id="clip0_9_91">
<rect width="40" height="40" fill="white"/>
</clipPath>
</defs>
</svg>
