<svg width="40" height="44" viewBox="0 0 40 44" fill="none" xmlns="http://www.w3.org/2000/svg">
<path d="M11.75 44C15.4779 44 18.5 40.7168 18.5 36.6667V29.3333H11.75C8.02208 29.3333 5 32.6166 5 36.6667C5 40.7168 8.02208 44 11.75 44Z" fill="#0ACF83"/>
<path d="M5 22C5 17.9499 8.02208 14.6667 11.75 14.6667H18.5V29.3333H11.75C8.02208 29.3333 5 26.0501 5 22Z" fill="#A259FF"/>
<path d="M5 7.33333C5 3.28324 8.02208 0 11.75 0H18.5V14.6667H11.75C8.02208 14.6667 5 11.3834 5 7.33333Z" fill="#F24E1E"/>
<path d="M18.5 0H25.25C28.9779 0 32 3.28324 32 7.33333C32 11.3834 28.9779 14.6667 25.25 14.6667H18.5V0Z" fill="#FF7262"/>
<path d="M32 22C32 26.0501 28.9779 29.3333 25.25 29.3333C21.5221 29.3333 18.5 26.0501 18.5 22C18.5 17.9499 21.5221 14.6667 25.25 14.6667C28.9779 14.6667 32 17.9499 32 22Z" fill="#1ABCFE"/>
</svg>
