<svg width="40" height="40" viewBox="0 0 40 40" fill="none" xmlns="http://www.w3.org/2000/svg">
<g clip-path="url(#clip0_9_114)">
<path d="M7.08334 -1.20347e-05H32.9167C33.8471 -0.00091147 34.7686 0.186388 35.6284 0.551168C36.4882 0.915948 37.2694 1.45105 37.9273 2.12584C38.5852 2.80063 39.1069 3.60187 39.4626 4.4837C39.8183 5.36553 40.0009 6.31064 40 7.26494V32.735C40.0009 33.6893 39.8183 34.6344 39.4626 35.5163C39.1069 36.3981 38.5852 37.1993 37.9273 37.8741C37.2694 38.5489 36.4882 39.084 35.6284 39.4488C34.7686 39.8136 33.8471 40.0009 32.9167 40H7.08334C6.15289 40.0009 5.23141 39.8136 4.37162 39.4488C3.51184 39.084 2.73063 38.5489 2.07271 37.8741C1.41478 37.1993 0.893064 36.3981 0.537404 35.5163C0.181743 34.6344 -0.000873806 33.6893 3.14346e-06 32.735V7.26494C-0.000873806 6.31064 0.181743 5.36553 0.537404 4.4837C0.893064 3.60187 1.41478 2.80063 2.07271 2.12584C2.73063 1.45105 3.51184 0.915948 4.37162 0.551168C5.23141 0.186388 6.15289 -0.00091147 7.08334 -1.20347e-05V-1.20347e-05Z" fill="#000B1D"/>
<path d="M16.1667 32.2C18.4679 32.2 20.3334 30.3345 20.3334 28.0333V23.8667H16.1667C13.8655 23.8667 12.0001 25.7321 12.0001 28.0333C12.0001 30.3345 13.8655 32.2 16.1667 32.2Z" fill="#0ACF83"/>
<path d="M12.0001 19.7C12.0001 17.3988 13.8655 15.5333 16.1667 15.5333H20.3334V23.8667H16.1667C13.8655 23.8667 12.0001 22.0012 12.0001 19.7Z" fill="#A259FF"/>
<path d="M12.0001 11.3667C12.0001 9.06548 13.8655 7.2 16.1667 7.2H20.3334V15.5333H16.1667C13.8655 15.5333 12.0001 13.6679 12.0001 11.3667Z" fill="#F24E1E"/>
<path d="M20.3334 7.2H24.5C26.8012 7.2 28.6667 9.06548 28.6667 11.3667C28.6667 13.6679 26.8012 15.5333 24.5 15.5333H20.3334V7.2Z" fill="#FF7262"/>
<path d="M28.6667 19.7C28.6667 22.0012 26.8012 23.8667 24.5 23.8667C22.1989 23.8667 20.3334 22.0012 20.3334 19.7C20.3334 17.3988 22.1989 15.5333 24.5 15.5333C26.8012 15.5333 28.6667 17.3988 28.6667 19.7Z" fill="#1ABCFE"/>
</g>
<defs>
<clipPath id="clip0_9_114">
<rect width="40" height="40" fill="white"/>
</clipPath>
</defs>
</svg>
