<svg width="44" height="43" viewBox="0 0 44 43" fill="none" xmlns="http://www.w3.org/2000/svg">
<g clip-path="url(#clip0_9_3)">
<path d="M30.4018 15.2205C30.8705 16.241 31.3935 17.2361 31.8584 18.2584C32.7531 20.226 33.4327 22.3034 33.7149 24.4462C33.9972 26.5889 33.8744 28.8016 33.2051 30.8561C32.4483 33.1754 31.0115 35.2387 29.2512 36.9273C27.1688 38.9251 24.4956 40.4652 21.612 40.5789C19.7331 40.6529 17.8625 40.1157 16.1987 39.2399C14.8003 38.504 13.5238 37.5232 12.5053 36.3151C11.4868 35.1071 10.7306 33.6686 10.3804 32.1277C9.94917 30.2302 10.1443 28.2158 10.7969 26.3827C11.2637 25.0717 11.9556 23.8511 12.4482 22.5497C12.9865 21.1276 13.287 19.6091 14.0002 18.2662C14.6465 17.0485 15.616 16.0084 16.131 14.7297C16.4386 13.966 16.572 13.1457 16.7707 12.3466C16.9693 11.5475 17.2474 10.7426 17.7883 10.1218C18.4403 9.37379 19.4209 8.96833 20.4064 8.85447C21.392 8.74062 22.3896 8.89434 23.3568 9.115C24.1269 9.2906 24.8876 9.50866 25.6317 9.77335C26.2669 9.99933 26.8963 10.2624 27.4456 10.6534C28.194 11.1859 28.764 11.9358 29.2181 12.7344C29.6722 13.5329 30.0198 14.386 30.4033 15.2207L30.4018 15.2205Z" fill="#020204"/>
<path d="M22.1273 40.5971C22.919 40.6431 23.7092 40.72 24.4936 40.8384C25.1834 40.9432 25.8682 41.0783 26.5461 41.2432C27.6079 41.5005 28.666 41.8287 29.7581 41.8598C30.0456 41.868 30.3339 41.8552 30.616 41.7927C30.8981 41.7302 31.169 41.6164 31.394 41.4372C31.7293 41.1699 31.9409 40.7668 32.0211 40.3452C32.1013 39.9236 32.051 39.485 31.9275 39.0742C31.6807 38.2529 31.1503 37.5521 30.7132 36.815C30.462 36.393 30.2382 35.9543 29.9661 35.5455C29.6941 35.1368 29.3688 34.7539 28.9557 34.4876C28.3846 34.1194 27.6764 33.9994 27.0004 34.0667C26.3243 34.1341 25.6762 34.3784 25.0728 34.6908C24.227 35.1287 23.4309 35.7301 22.9699 36.5634C22.8094 36.8535 22.6928 37.1651 22.5565 37.4673C22.4202 37.7696 22.2606 38.067 22.0297 38.3048C21.7721 38.5699 21.4379 38.7486 21.1714 39.0047C21.0383 39.1342 20.9217 39.2818 20.8548 39.4535C20.7879 39.6252 20.7696 39.8214 20.8318 39.9954C20.8745 40.1149 20.9527 40.2197 21.0491 40.302C21.1455 40.3843 21.2595 40.4445 21.3791 40.4862C21.6181 40.5703 21.8757 40.5827 22.1286 40.5973L22.1273 40.5971Z" fill="#020204"/>
<path d="M19.7741 40.546C19.1143 40.5612 18.4614 40.6792 17.8166 40.8128C17.1988 40.9405 16.584 41.0827 15.9737 41.2429C14.944 41.5132 13.913 41.8369 12.8486 41.8595C12.5685 41.8653 12.2864 41.8501 12.0133 41.787C11.7403 41.7238 11.476 41.6114 11.2569 41.4366C10.9223 41.1698 10.7096 40.7673 10.6308 40.3467C10.5521 39.9262 10.6002 39.4883 10.7222 39.0781C10.9665 38.2577 11.4903 37.5553 11.9192 36.8146C12.1629 36.3936 12.3779 35.9559 12.6414 35.547C12.905 35.1381 13.2224 34.7543 13.6288 34.487C14.1827 34.1229 14.8734 33.9995 15.5331 34.0644C16.1927 34.1294 16.8249 34.3725 17.4067 34.6903C18.228 35.1389 18.978 35.7562 19.4529 36.5614C19.7861 37.1271 19.9782 37.7741 20.3677 38.3027C20.5774 38.5874 20.8427 38.8333 21.0154 39.1409C21.1026 39.2946 21.1665 39.464 21.1814 39.6403C21.1962 39.8166 21.1598 39.9999 21.0605 40.1462C20.995 40.2431 20.904 40.3214 20.8024 40.3791C20.7008 40.4369 20.5886 40.4748 20.4742 40.4986C20.2439 40.5464 20.0093 40.5389 19.7754 40.5447L19.7741 40.546ZM16.0874 13.071C15.9947 11.9555 16.0154 10.8339 15.9751 9.7152C15.9351 8.63958 15.8361 7.56453 15.8722 6.48876C15.909 5.39486 16.0924 4.28657 16.5795 3.3035C17.0666 2.32042 17.8576 1.48877 18.8227 0.968591C19.7295 0.479214 20.7753 0.270077 21.807 0.281304C23.2061 0.296561 24.6086 0.719152 25.7414 1.53987C26.4517 2.054 27.049 2.71682 27.5202 3.45621C27.9222 4.08736 28.2346 4.77666 28.4306 5.50008C28.8326 6.9826 28.7372 8.544 28.8155 10.0766C28.8896 11.5292 29.1221 12.9783 29.0429 14.4306C29.0257 14.7473 28.9917 15.0688 28.8511 15.3518C28.714 15.6274 28.4814 15.8491 28.2141 16.002C27.9469 16.1548 27.646 16.2418 27.3419 16.2887C26.7335 16.3825 26.1113 16.3206 25.4984 16.3775C24.6089 16.46 23.7604 16.7899 22.8776 16.9265C21.8269 17.0891 20.7536 16.974 19.6898 16.9314C19.2637 16.9144 18.8362 16.909 18.4134 16.8559C17.9905 16.8028 17.5685 16.7005 17.1922 16.4998C16.9619 16.3763 16.747 16.2156 16.574 16.0177C16.401 15.8197 16.2689 15.5859 16.2031 15.3301C16.1042 14.9482 16.1563 14.5462 16.1578 14.1517C16.1592 13.791 16.1172 13.4316 16.0858 13.0722L16.0874 13.071Z" fill="#020204"/>
<path d="M17.7615 12.6412C17.6109 12.8298 17.5128 13.0568 17.4535 13.291C17.3942 13.5251 17.3726 13.7671 17.3632 14.0083C17.3448 14.4909 17.3742 14.9828 17.2467 15.4485C17.1099 15.9466 16.8039 16.3778 16.5042 16.7984C15.9854 17.5267 15.4607 18.2737 15.2049 19.1304C15.0499 19.6493 14.9983 20.1988 15.0541 20.7374C14.4733 21.5904 13.9703 22.4963 13.5539 23.4405C12.9226 24.8715 12.4893 26.395 12.3369 27.9514C12.1504 29.8574 12.3942 31.8178 13.1468 33.5788C13.6909 34.8521 14.5024 36.0176 15.5485 36.9249C16.0803 37.3862 16.6712 37.7798 17.3045 38.0903C19.4942 39.1665 22.2002 39.1684 24.3534 38.0212C25.4787 37.4216 26.4287 36.5447 27.3444 35.6575C27.8959 35.1232 28.4446 34.5763 28.8653 33.9338C29.6752 32.6971 29.9574 31.1938 30.1327 29.726C30.4392 27.1592 30.449 24.4479 29.3238 22.1208C28.9352 21.318 28.421 20.5823 27.8008 19.9415C27.636 18.8216 27.3105 17.7253 26.8376 16.6969C26.4965 15.9549 26.0793 15.2486 25.7624 14.4961C25.6323 14.1871 25.5177 13.8707 25.3748 13.5682C25.2318 13.2656 25.0524 12.9745 24.81 12.7427C24.562 12.5052 24.2529 12.3371 23.9268 12.2294C23.6006 12.1218 23.2575 12.073 22.9149 12.0557C22.2291 12.0212 21.5418 12.1108 20.8558 12.0836C20.3096 12.0621 19.7651 11.9662 19.2193 11.9984C18.9464 12.0146 18.6738 12.0632 18.4204 12.1661C18.1671 12.269 17.9336 12.4276 17.7632 12.6411L17.7615 12.6412Z" fill="#FDFDFB"/>
<g opacity="0.3" filter="url(#filter0_f_9_3)">
<path d="M16.7419 13.1756C17.218 13.4699 17.6454 13.8311 18.0042 14.2431C18.3371 14.6255 18.6202 15.059 19.0549 15.3422C19.3619 15.5421 19.7307 15.6548 20.1048 15.689C20.5441 15.7292 20.9885 15.6643 21.412 15.5496C21.8045 15.4432 22.1839 15.2937 22.5321 15.0962C23.1939 14.7202 23.7469 14.169 24.4752 13.9219C24.6345 13.8679 24.8005 13.8294 24.9541 13.7628C25.1076 13.6963 25.252 13.5966 25.3254 13.4555C25.3974 13.32 25.3931 13.1635 25.4161 13.0147C25.4406 12.8556 25.4958 12.7015 25.5261 12.5432C25.5563 12.3849 25.5599 12.2155 25.4858 12.0699C25.4242 11.9493 25.3123 11.8541 25.1835 11.7935C25.0547 11.7329 24.91 11.7054 24.7655 11.6988C24.4768 11.6856 24.1915 11.7538 23.9036 11.7781C23.5222 11.8102 23.1382 11.7648 22.7555 11.7754C22.2793 11.7887 21.8101 11.8881 21.3343 11.9087C20.7913 11.9323 20.2499 11.8533 19.7067 11.8358C19.4717 11.8281 19.2353 11.8318 19.0037 11.8693C18.7721 11.9068 18.5448 11.9783 18.3488 12.0981C18.1588 12.2144 18.0038 12.3722 17.8296 12.5078C17.7425 12.5757 17.65 12.6384 17.5484 12.6861C17.4467 12.7339 17.3353 12.7663 17.2216 12.7714C17.163 12.774 17.1039 12.7694 17.046 12.7776C16.9975 12.7851 16.951 12.8014 16.9094 12.8256C16.8677 12.8497 16.8317 12.8812 16.8033 12.9182C16.7749 12.9553 16.7548 12.9971 16.744 13.0414C16.7333 13.0856 16.7322 13.1314 16.7407 13.176L16.7419 13.1756Z" fill="black"/>
</g>
<path d="M17.9815 6.67487C17.7253 6.68883 17.4799 6.80729 17.2923 6.98246C17.1048 7.15763 16.9728 7.3872 16.8913 7.63074C16.7287 8.11782 16.7654 8.64577 16.8021 9.15645C16.8356 9.6202 16.8697 10.0927 17.0434 10.5241C17.1302 10.7397 17.2521 10.9415 17.4148 11.1091C17.5774 11.2766 17.7821 11.403 18.0075 11.4594C18.2191 11.5124 18.4448 11.5014 18.6528 11.4361C18.8608 11.3707 19.0506 11.2518 19.2063 11.0996C19.4338 10.8772 19.5868 10.5863 19.6746 10.2806C19.7624 9.97486 19.7874 9.65417 19.7828 9.33636C19.777 8.93853 19.7252 8.53897 19.6006 8.16128C19.4759 7.7836 19.2773 7.42679 18.9999 7.14136C18.8657 7.00319 18.7124 6.88156 18.5394 6.79635C18.3663 6.71114 18.1733 6.66321 17.9809 6.67358L17.9815 6.67487Z" fill="url(#paint0_radial_9_3)"/>
<path d="M22.518 6.67488C22.1178 6.94835 21.7825 7.33338 21.6184 7.79037C21.4117 8.36639 21.4908 9.01093 21.6903 9.58955C21.8947 10.1821 22.2364 10.7468 22.7526 11.1026C23.0106 11.2805 23.3093 11.4024 23.6205 11.4394C23.9317 11.4764 24.2552 11.4257 24.533 11.2811C24.8717 11.1046 25.1301 10.7956 25.2904 10.4491C25.4508 10.1027 25.5193 9.71938 25.5406 9.33795C25.5694 8.85217 25.5204 8.35833 25.3607 7.89861C25.1872 7.39915 24.8713 6.93856 24.429 6.65113C24.2073 6.50748 23.9551 6.40874 23.6935 6.37261C23.4318 6.33649 23.1602 6.36354 22.9139 6.45926C22.7736 6.51396 22.6423 6.58981 22.5181 6.67516L22.518 6.67488Z" fill="url(#paint1_radial_9_3)"/>
<g opacity="0.3" filter="url(#filter1_f_9_3)">
<path d="M17.8962 10.819L17.157 11.4934C17.0269 11.6243 16.8965 11.7645 16.8382 11.9396C16.7863 12.095 16.7961 12.2638 16.7705 12.4261C16.7619 12.4816 16.7489 12.5369 16.7486 12.593C16.7482 12.6212 16.7519 12.6492 16.7599 12.6762C16.7681 12.7031 16.7815 12.7285 16.8009 12.7491C16.8328 12.7832 16.8783 12.8017 16.9241 12.8109C16.9699 12.8202 17.0169 12.8213 17.0634 12.8263C17.273 12.8489 17.4661 12.9506 17.6397 13.0703L18.1507 13.4424C18.5436 13.692 19.0133 13.8029 19.4786 13.8206C19.944 13.8383 20.4082 13.7674 20.8647 13.676C21.2274 13.6034 21.5893 13.5177 21.9334 13.3818C22.4607 13.1739 22.9358 12.854 23.3898 12.515C23.596 12.361 23.7994 12.2022 23.9847 12.0235C24.0476 11.9627 24.1084 11.8997 24.1758 11.8441C24.2432 11.7886 24.318 11.7402 24.4012 11.7134C24.5279 11.6727 24.6655 11.6844 24.7967 11.7062C24.8956 11.7228 24.9948 11.7451 25.095 11.7408C25.1451 11.7388 25.1953 11.7301 25.2418 11.7114C25.2883 11.6927 25.3313 11.6639 25.3631 11.6251C25.4046 11.5731 25.4271 11.5085 25.4267 11.442C25.427 11.3761 25.4066 11.311 25.3735 11.2541C25.3065 11.1404 25.191 11.0637 25.0705 11.0102C24.9055 10.9368 24.7271 10.9008 24.5515 10.8582C24.0124 10.7281 23.4885 10.5358 22.9918 10.2891C22.7448 10.1664 22.5047 10.0306 22.2618 9.90044C22.0119 9.76659 21.7573 9.63791 21.486 9.55572C20.8796 9.37192 20.2164 9.43222 19.6181 9.64007C18.9531 9.87094 18.3519 10.2824 17.8958 10.8186L17.8962 10.819Z" fill="black"/>
</g>
<g filter="url(#filter2_f_9_3)">
<path d="M24.1721 2.13911C23.8031 2.39949 23.9643 2.72454 24.123 3.05092C24.2818 3.3773 23.7741 4.31796 23.7686 4.35843C23.7632 4.39889 24.7678 3.88163 25.0417 3.54546C25.365 3.1486 26.1822 4.08246 26.1379 3.94017C26.1382 3.68593 24.5413 1.87874 24.1723 2.13911H24.1721Z" fill="#7C7C7C"/>
</g>
<path d="M23.4409 7.8832C23.2905 7.89399 23.1438 7.94538 23.0163 8.02713C22.8888 8.10889 22.7798 8.21641 22.6943 8.34091C22.5235 8.58963 22.4482 8.89463 22.4362 9.19588C22.4272 9.42214 22.4521 9.65143 22.5272 9.86517C22.6023 10.0789 22.7287 10.2768 22.9033 10.4212C23.0818 10.569 23.3086 10.6578 23.5402 10.6688C23.7718 10.6797 24.0065 10.6131 24.1965 10.4806C24.3481 10.3751 24.4703 10.2299 24.5574 10.0671C24.6445 9.90432 24.697 9.72412 24.7208 9.54103C24.7631 9.21761 24.7153 8.87994 24.5657 8.59006C24.4162 8.30018 24.1627 8.06139 23.8566 7.94869C23.7241 7.89975 23.5817 7.87442 23.4409 7.88449V7.8832Z" fill="#020204"/>
<g filter="url(#filter3_f_9_3)">
<path d="M23.7999 8.86987C23.6752 8.9191 23.4779 8.88815 23.4233 9.0105C23.391 9.08304 23.4367 9.20236 23.5101 9.23216C23.6587 9.29261 23.889 9.18322 23.9491 9.03425C23.975 8.96948 23.9358 8.86728 23.8714 8.83994C23.8477 8.82986 23.8239 8.86009 23.8 8.86958L23.7999 8.86987Z" fill="#141413"/>
</g>
<g filter="url(#filter4_f_9_3)">
<path d="M24.3711 9.19372C24.5381 9.02676 24.2522 8.58344 24.0293 8.40208C23.8678 8.27067 23.3974 8.13292 23.4176 8.27614C23.4377 8.41935 23.6479 8.60229 23.7911 8.74205C23.9655 8.91406 24.292 9.27317 24.3711 9.19372Z" fill="url(#paint2_linear_9_3)"/>
</g>
<g filter="url(#filter5_f_9_3)">
<path d="M23.9078 5.48929C23.8392 5.57565 23.7771 5.66949 23.7279 5.77284C24.0368 5.83934 24.3324 5.96657 24.5958 6.14174C25.1061 6.48056 25.4935 6.97599 25.7653 7.52711C25.8286 7.45687 25.8865 7.38145 25.9363 7.29768C25.6631 6.72367 25.2679 6.2045 24.7399 5.85402C24.4863 5.68561 24.2038 5.55838 23.908 5.48986L23.9078 5.48929Z" fill="url(#paint3_linear_9_3)"/>
</g>
<g filter="url(#filter6_f_9_3)">
<path d="M17.9524 5.77067C17.9176 5.76995 17.8838 5.77312 17.8488 5.7747L17.7811 5.77873C17.9845 5.79716 18.1867 5.85185 18.3704 5.93418C18.6208 6.04645 18.8416 6.20665 19.0361 6.38902C19.3965 6.72654 19.6644 7.14323 19.8457 7.58511C19.8014 7.2512 19.7011 6.92717 19.5489 6.62665C19.4778 6.54461 19.4041 6.46401 19.3241 6.38916C19.1298 6.20694 18.9087 6.04688 18.6584 5.93433C18.4396 5.83602 18.1958 5.77485 17.9523 5.77053L17.9524 5.77067Z" fill="url(#paint4_linear_9_3)"/>
</g>
<path d="M17.3637 8.7979C17.3102 9.12118 17.3081 9.46029 17.4193 9.76845C17.4912 9.97198 17.6136 10.1566 17.7607 10.3154C17.8571 10.4193 17.9662 10.5137 18.094 10.5749C18.2218 10.6361 18.3698 10.6621 18.5071 10.6277C18.6338 10.5961 18.7449 10.514 18.8266 10.4123C18.9084 10.3105 18.9631 10.1887 19.002 10.064C19.1167 9.69548 19.0984 9.29217 18.9844 8.92341C18.9014 8.65469 18.7639 8.39546 18.5487 8.21425C18.4461 8.12789 18.3259 8.06024 18.1954 8.02901C18.0648 7.99777 17.9233 8.00526 17.8013 8.06067C17.6657 8.12228 17.5606 8.23958 17.4918 8.37157C17.423 8.50356 17.3877 8.6508 17.3634 8.79762L17.3637 8.7979Z" fill="#020204"/>
<g filter="url(#filter7_f_9_3)">
<path d="M18.0471 8.56401C18.0819 8.65527 18.1988 8.68837 18.263 8.76192C18.3253 8.83346 18.3907 8.9073 18.4249 8.99582C18.4904 9.16508 18.3601 9.41611 18.4969 9.53557C18.5398 9.57299 18.6257 9.57386 18.6679 9.53557C18.8327 9.38559 18.796 9.08304 18.7309 8.86987C18.6719 8.67643 18.5255 8.49334 18.3452 8.40137C18.2617 8.35891 18.1365 8.32364 18.0651 8.3841C18.019 8.42296 18.0256 8.50788 18.0471 8.56401V8.56401Z" fill="url(#paint5_linear_9_3)"/>
</g>
<path d="M16.7609 12.8166C16.7695 12.859 16.7858 12.9 16.808 12.9375C16.8462 13.0015 16.9021 13.0535 16.9624 13.0972C17.0227 13.141 17.0881 13.1778 17.1512 13.2174C17.4872 13.4286 17.7608 13.7255 18.0041 14.0388C18.3304 14.4594 18.6189 14.9262 19.0548 15.2321C19.3625 15.448 19.7307 15.571 20.1046 15.6086C20.5436 15.6528 20.9884 15.5818 21.4118 15.4572C21.8042 15.3416 22.1838 15.1794 22.5319 14.9649C23.194 14.5567 23.7468 13.9584 24.4751 13.6901C24.6344 13.6315 24.8004 13.5896 24.9538 13.5174C25.1072 13.4451 25.2517 13.3369 25.3251 13.1837C25.3971 13.0366 25.3928 12.8668 25.4158 12.7052C25.4403 12.5324 25.4956 12.3652 25.5258 12.1933C25.556 12.0215 25.5596 11.8375 25.4855 11.6795C25.4239 11.5485 25.312 11.4451 25.1832 11.3794C25.0544 11.3136 24.9097 11.2838 24.7652 11.2766C24.4765 11.2622 24.1912 11.3363 23.9034 11.3627C23.5219 11.3975 23.1379 11.3486 22.7552 11.3598C22.2791 11.3742 21.8098 11.4814 21.334 11.5045C20.7911 11.5308 20.2494 11.4469 19.7064 11.4253C19.4712 11.4158 19.2343 11.4181 19.0022 11.4577C18.7702 11.4973 18.5424 11.5763 18.3488 11.71C18.1602 11.8404 18.0097 12.018 17.8364 12.1683C17.7497 12.2434 17.6565 12.3122 17.5534 12.3622C17.4503 12.4121 17.3365 12.4433 17.2218 12.4409C17.1642 12.4394 17.1023 12.4298 17.0462 12.4477C17.0111 12.4587 16.98 12.4803 16.9535 12.5061C16.927 12.5319 16.9053 12.5618 16.8847 12.5925C16.8368 12.6635 16.7951 12.7386 16.7599 12.8167L16.7609 12.8166Z" fill="url(#paint6_radial_9_3)"/>
<g filter="url(#filter8_f_9_3)">
<path d="M18.8918 13.4016C18.838 13.6339 18.8722 13.8779 18.9877 14.0865C19.1032 14.2951 19.2919 14.4535 19.5174 14.5311C19.8021 14.6261 20.1229 14.5795 20.3889 14.4407C20.5429 14.3601 20.6839 14.247 20.7732 14.0976C20.8183 14.0229 20.8479 13.9399 20.8603 13.8535C20.8718 13.7671 20.8639 13.6779 20.8336 13.5965C20.8005 13.5073 20.7415 13.4284 20.6687 13.3668C20.5959 13.3052 20.5096 13.2606 20.4193 13.2307C20.2382 13.1708 20.0436 13.1696 19.853 13.1788C19.5643 13.1927 19.277 13.2289 18.9939 13.2872" fill="#D9B30D"/>
</g>
<g filter="url(#filter9_f_9_3)">
<path d="M17.9576 11.6144L17.3965 11.9833C17.3019 12.0504 17.2045 12.1229 17.1547 12.2274C17.1193 12.3016 17.1112 12.3858 17.1115 12.4678C17.1118 12.5498 17.1158 12.6325 17.1049 12.7125C17.0977 12.768 17.0827 12.8227 17.0801 12.8787C17.0787 12.9068 17.0809 12.9349 17.0882 12.9622C17.0952 12.9895 17.1088 13.0146 17.1278 13.0355C17.1527 13.0618 17.1865 13.0781 17.2213 13.0887C17.2562 13.0994 17.2919 13.1046 17.3273 13.1132C17.4964 13.1529 17.6435 13.2567 17.7726 13.3729L18.1526 13.7292C18.5177 14.0263 19.0018 14.1495 19.471 14.1572C19.9403 14.1648 20.4072 14.0665 20.8665 13.9628L21.9352 13.6686C22.4682 13.4722 22.9629 13.1747 23.3915 12.8019C23.5858 12.6329 23.7682 12.4472 23.9864 12.3103C24.1793 12.1891 24.3956 12.1091 24.5918 11.9932C24.6093 11.9829 24.6268 11.9722 24.6424 11.9591C24.6581 11.946 24.6721 11.9306 24.6813 11.9124C24.6971 11.8807 24.6971 11.8433 24.6871 11.8093C24.677 11.7753 24.6574 11.7454 24.6352 11.718C24.6108 11.6878 24.583 11.6602 24.5532 11.6349C24.3482 11.4593 24.07 11.3956 23.801 11.3743C23.532 11.353 23.2598 11.3681 22.995 11.3237C22.7445 11.2805 22.5066 11.1884 22.2649 11.1111C22.0114 11.0291 21.7521 10.9661 21.4893 10.9225C20.8711 10.8218 20.2346 10.841 19.6214 10.9686C19.0374 11.0902 18.4743 11.3097 17.9604 11.6134L17.9576 11.6144Z" fill="#604405"/>
</g>
<path d="M17.8962 10.963C17.6184 11.1501 17.3686 11.3779 17.157 11.6373C17.0361 11.7856 16.9261 11.9468 16.8652 12.1284C16.8173 12.2712 16.801 12.4223 16.7708 12.5699C16.7593 12.6251 16.7463 12.6807 16.7463 12.7368C16.7465 12.765 16.7501 12.7934 16.7587 12.8203C16.7674 12.8472 16.7815 12.8724 16.801 12.8927C16.8334 12.9264 16.8788 12.9445 16.9245 12.954C16.9703 12.9635 17.0172 12.9648 17.0636 12.9701C17.273 12.9939 17.4657 13.0956 17.6393 13.2151L18.1508 13.5862C18.5444 13.8352 19.0137 13.9457 19.4789 13.9637C19.9441 13.9817 20.4083 13.911 20.865 13.8198C21.2277 13.7474 21.5896 13.6614 21.9337 13.5256C22.4608 13.3177 22.9361 12.9978 23.3901 12.6588C23.5963 12.5048 23.7997 12.346 23.9849 12.1673C24.0478 12.1065 24.1087 12.0435 24.1761 11.9879C24.2434 11.9324 24.3183 11.884 24.4015 11.8572C24.5282 11.8165 24.6658 11.8282 24.797 11.85C24.8959 11.8666 24.9951 11.8889 25.0953 11.8846C25.1453 11.8826 25.1956 11.8739 25.2421 11.8552C25.2886 11.8365 25.3316 11.8077 25.3634 11.7689C25.4049 11.7169 25.4274 11.6523 25.427 11.5858C25.4273 11.5198 25.4069 11.4548 25.3738 11.3979C25.3068 11.2842 25.1913 11.2075 25.0708 11.154C24.9058 11.0806 24.7274 11.0446 24.5518 11.002C24.0127 10.8719 23.4888 10.6796 22.9921 10.4329C22.7451 10.3102 22.505 10.1743 22.262 10.0442C22.0122 9.91037 21.7576 9.7817 21.4862 9.69951C20.8798 9.51571 20.2167 9.57602 19.6184 9.78386C18.9534 10.0147 18.3522 10.4262 17.8961 10.9624L17.8962 10.963Z" fill="url(#paint7_linear_9_3)"/>
<g filter="url(#filter10_f_9_3)">
<path d="M22.1567 11.0962C22.1242 11.0551 22.0775 11.026 22.0272 11.0113C21.9768 10.9966 21.9228 10.9969 21.8711 11.0041C21.7675 11.0218 21.6748 11.0761 21.5882 11.1373C21.342 11.3065 21.1247 11.5155 20.9351 11.7461C20.684 12.0513 20.4767 12.4042 20.4072 12.7932C20.3957 12.8587 20.3878 12.9257 20.396 12.9919C20.4042 13.0581 20.4295 13.1236 20.4766 13.1708C20.5177 13.2122 20.5739 13.2376 20.6317 13.2459C20.6896 13.2543 20.7492 13.2462 20.8044 13.2275C20.9153 13.1901 21.0074 13.1123 21.0943 13.0346C21.5745 12.605 22.0087 12.0893 22.1825 11.4686C22.1997 11.4063 22.2147 11.3425 22.2141 11.2779C22.2136 11.2133 22.1969 11.1469 22.1568 11.0962H22.1567Z" fill="#F6DA4A"/>
</g>
<g opacity="0.8" filter="url(#filter11_f_9_3)">
<path d="M21.0067 10.2067C21.0398 10.3135 21.2122 10.296 21.3118 10.3471C21.3992 10.392 21.4693 10.4906 21.5676 10.4935C21.6611 10.4963 21.8071 10.4611 21.8195 10.3682C21.8356 10.2455 21.6562 10.1674 21.5409 10.1224C21.3927 10.0645 21.2023 10.0352 21.0631 10.1126C21.0311 10.1303 20.9963 10.1719 21.0072 10.2069L21.0067 10.2067Z" fill="url(#paint8_radial_9_3)"/>
</g>
<g opacity="0.8" filter="url(#filter12_f_9_3)">
<path d="M19.3625 10.1448C19.2347 10.1031 19.0232 10.3286 19.0922 10.4442C19.1112 10.4759 19.1692 10.5162 19.2082 10.4946C19.2672 10.4622 19.3153 10.3463 19.379 10.301C19.4216 10.2708 19.4121 10.1611 19.3623 10.145L19.3625 10.1448Z" fill="url(#paint9_radial_9_3)"/>
</g>
<g filter="url(#filter13_f_9_3)">
<path d="M24.9986 12.3388C25.2257 12.3388 25.4354 12.111 25.4669 11.8301C25.4984 11.5491 25.3398 11.3214 25.1126 11.3214C24.8855 11.3214 24.6758 11.5491 24.6443 11.8301C24.6128 12.111 24.7714 12.3388 24.9986 12.3388Z" fill="url(#paint10_linear_9_3)"/>
</g>
<path d="M31.0608 21.5128C31.9366 22.2173 32.4923 23.2812 32.6642 24.3919C32.7983 25.2584 32.7111 26.1472 32.5159 27.0017C32.3208 27.8563 32.0191 28.6823 31.7197 29.5062C31.6002 29.8348 31.4805 30.1664 31.433 30.5127C31.3855 30.859 31.4157 31.2258 31.5827 31.5329C31.7741 31.885 32.1315 32.1274 32.5156 32.2415C32.8949 32.3542 33.3044 32.3518 33.6884 32.2562C34.0724 32.1606 34.4307 31.9737 34.7432 31.7308C35.5371 31.1144 36.0161 30.1547 36.2015 29.1671C36.3869 28.1794 36.3017 27.1592 36.1296 26.1689C35.8945 24.8188 35.4988 23.4989 34.9953 22.224C34.625 21.2862 34.1916 20.3643 33.5862 19.5583C32.9937 18.7695 32.2466 18.1056 31.6661 17.3079C31.2627 16.7537 30.9396 16.1348 30.4562 15.6489C30.2144 15.4059 29.9323 15.1981 29.6128 15.0739C29.2932 14.9497 28.9344 14.9132 28.6045 15.0062C28.1698 15.1286 27.8129 15.4711 27.6253 15.8816C27.4378 16.2921 27.4032 16.7629 27.4768 17.2087C27.5718 17.7837 27.8346 18.3174 28.1311 18.8193C28.466 19.386 28.854 19.9315 29.3597 20.3528C29.8875 20.7925 30.5259 21.0826 31.061 21.5129L31.0608 21.5128Z" fill="#020204"/>
<g opacity="0.25" filter="url(#filter14_f_9_3)">
<path d="M15.3452 19.5183C15.4914 19.7376 15.2543 20.4939 18.6621 20.0098C18.6621 20.0098 18.0637 20.0756 17.4737 20.2119C16.5566 20.5189 15.7574 20.8621 15.141 21.3166C14.5303 21.766 14.0832 22.3525 13.5228 22.8563C13.5228 22.8563 14.4302 21.1981 14.6564 20.6991C14.8825 20.2001 14.6185 20.2241 14.7976 19.4881C14.9767 18.752 15.4145 18.0477 15.4145 18.0477C15.4145 18.0477 15.0569 19.0855 15.3452 19.5181V19.5183Z" fill="url(#paint11_radial_9_3)"/>
</g>
<g opacity="0.42" filter="url(#filter15_f_9_3)">
<path d="M26.3035 19.3204C25.609 19.804 25.2021 19.7469 24.3594 19.8414C23.5166 19.936 21.2363 19.9019 21.2363 19.9019C21.2363 19.9019 21.5665 19.8957 22.2982 20.032C23.03 20.1683 24.5224 20.2986 25.3629 20.6185C26.2033 20.9385 26.5097 21.0297 27.0206 21.3526C27.7474 21.8123 28.2811 22.5324 28.9762 23.0362C28.9762 23.0362 29.0099 22.3678 28.7292 21.8686C28.4485 21.3694 27.6929 20.5825 27.4724 19.8478C27.2519 19.113 27.1451 17.6697 27.1451 17.6697C27.1451 17.6697 26.9982 18.8363 26.3036 19.3201L26.3035 19.3204Z" fill="url(#paint12_radial_9_3)"/>
</g>
<g opacity="0.2" filter="url(#filter16_f_9_3)">
<path d="M19.7717 18.2872L19.6714 18.9125C19.6512 19.0147 19.6289 19.1169 19.5908 19.2137C19.5526 19.3106 19.4981 19.4026 19.4209 19.4722C19.3533 19.5333 19.2707 19.5753 19.1878 19.6133C18.8642 19.7615 18.5179 19.8598 18.1647 19.904L18.5871 19.9426C18.6756 19.9522 18.7644 19.963 18.8508 19.9852C18.9372 20.0074 19.0214 20.0428 19.0932 20.0939C19.1721 20.1515 19.234 20.2303 19.2803 20.3164C19.3724 20.488 19.4032 20.6853 19.4204 20.8777C19.4419 21.1257 19.4437 21.3758 19.4251 21.6239C19.4418 21.4578 19.4766 21.2934 19.5287 21.1348C19.6227 20.849 19.774 20.581 19.9778 20.3596C20.0587 20.2718 20.1477 20.1912 20.2455 20.1224C20.5489 19.9108 20.9204 19.8204 21.287 19.8689C20.9152 19.8841 20.5495 19.7705 20.2516 19.5475C20.1016 19.4345 19.9709 19.2937 19.8802 19.1294C19.7394 18.8718 19.7008 18.5706 19.7721 18.2858L19.7717 18.2872Z" fill="url(#paint13_radial_9_3)"/>
</g>
<g opacity="0.1" filter="url(#filter17_f_9_3)">
<path d="M18.8836 23.1867C18.7066 23.8607 18.585 24.5479 18.52 25.2417C18.4283 26.2222 18.4504 27.2096 18.3977 28.1931C18.3545 29.0276 18.2552 29.8708 18.4 30.6938C18.4691 31.0863 18.5933 31.4689 18.7677 31.8273C18.7954 31.6905 18.8157 31.5523 18.8285 31.4133C18.8899 30.746 18.7775 30.0766 18.7395 29.4076C18.673 28.235 18.8354 27.0615 18.9015 25.8901C18.9522 24.9896 18.9462 24.0867 18.8835 23.1869L18.8836 23.1867Z" fill="black"/>
</g>
<path d="M39.827 36.8311C39.7305 37.0787 39.5928 37.31 39.4217 37.5131C39.044 37.9615 38.5195 38.2573 37.9973 38.5235C37.1063 38.9775 36.1834 39.3759 35.346 39.9221C34.785 40.288 34.2671 40.7177 33.7829 41.1804C33.3688 41.5762 32.976 41.999 32.5117 42.3345C32.043 42.6727 31.5012 42.918 30.9298 43.0038C30.2346 43.1081 29.5164 42.9731 28.8716 42.6923C28.4199 42.4955 27.9855 42.214 27.7254 41.7956C27.4643 41.3756 27.4047 40.8617 27.404 40.3672C27.4028 39.4925 27.5649 38.6256 27.7175 37.7659C27.8441 37.0502 27.9651 36.333 28.0428 35.6104C28.1843 34.2963 28.1833 32.9688 28.0888 31.6504C28.0744 31.4296 28.0546 31.2066 28.0877 30.9877C28.1208 30.7688 28.2107 30.5506 28.3784 30.4062C28.5334 30.2728 28.7411 30.2139 28.9455 30.2027C29.1499 30.1915 29.3534 30.2238 29.5558 30.2533C30.0327 30.323 30.5133 30.3778 30.9793 30.5005C31.2734 30.5778 31.5598 30.6818 31.8533 30.761C32.3431 30.8934 32.8559 30.9568 33.3599 30.898C33.9025 30.8347 34.4293 30.6307 34.9754 30.644C35.1995 30.6495 35.4216 30.6918 35.6355 30.7591C35.8535 30.8279 36.0687 30.9264 36.2289 31.0895C36.3507 31.2132 36.4356 31.3694 36.4995 31.5313C36.5945 31.7723 36.6456 32.0289 36.6675 32.287C36.6869 32.5156 36.6837 32.7467 36.7271 32.9721C36.7983 33.3428 36.9929 33.6807 37.2349 33.9703C37.4768 34.2599 37.7674 34.5057 38.0547 34.7487C38.3426 34.9905 38.6319 35.2316 38.9424 35.4436C39.088 35.5432 39.2383 35.6365 39.3766 35.7459C39.5149 35.8553 39.6422 35.9829 39.7285 36.1367C39.8458 36.3454 39.8817 36.5984 39.8268 36.8313L39.827 36.8311Z" fill="url(#paint14_linear_9_3)"/>
<g filter="url(#filter18_f_9_3)">
<path d="M39.3785 36.3775C39.2894 36.6007 39.1644 36.8078 39.0084 36.9906C38.6627 37.3957 38.1837 37.6605 37.7076 37.8989C36.8939 38.3062 36.0519 38.6643 35.2866 39.1561C34.775 39.4849 34.3021 39.8709 33.859 40.2874C33.4805 40.6434 33.1214 41.0238 32.6981 41.3249C32.2691 41.6301 31.7743 41.8499 31.2534 41.9266C30.6186 42.0201 29.9637 41.8988 29.3739 41.6465C28.9627 41.4706 28.5654 41.219 28.3272 40.8404C28.0903 40.4638 28.035 40.0013 28.0336 39.5563C28.0317 38.7697 28.1801 37.9917 28.32 37.2176C28.4362 36.5742 28.5467 35.9297 28.6171 35.2798C28.7452 34.0984 28.7392 32.9052 28.6591 31.7196C28.6457 31.521 28.6303 31.3203 28.6609 31.1237C28.6914 30.9271 28.7728 30.7312 28.9237 30.6012C29.0652 30.4793 29.2552 30.4259 29.4418 30.4161C29.6285 30.4063 29.8142 30.4366 29.9989 30.4636C30.434 30.5277 30.8728 30.5759 31.2986 30.6857C31.567 30.7551 31.8289 30.8487 32.0967 30.9201C32.5443 31.0395 33.0124 31.0964 33.4727 31.0433C33.9679 30.9861 34.4496 30.8029 34.9481 30.8148C35.1524 30.8199 35.3554 30.858 35.5511 30.9185C35.7501 30.9798 35.947 31.0673 36.0931 31.2154C36.2033 31.327 36.2794 31.4679 36.34 31.6127C36.4301 31.8281 36.4887 32.0584 36.4935 32.292C36.4985 32.5359 36.4451 32.7807 36.4782 33.0222C36.505 33.2184 36.588 33.4033 36.6941 33.5706C36.8002 33.7379 36.9293 33.8887 37.0573 34.0398C37.3044 34.332 37.5524 34.6295 37.8623 34.8538C38.2152 35.1091 38.6341 35.2582 38.9987 35.4967C39.1073 35.5678 39.2125 35.6482 39.2891 35.7529C39.353 35.8422 39.3946 35.9456 39.4102 36.0542C39.4258 36.1629 39.4151 36.2738 39.3789 36.3775H39.3785Z" fill="#CD8907"/>
</g>
<g filter="url(#filter19_f_9_3)">
<path d="M38.6667 36.7955C38.5736 36.9963 38.4529 37.1835 38.3094 37.3496C37.9765 37.7351 37.5269 38.0005 37.0532 38.1707C36.2734 38.4512 35.4222 38.4889 34.6568 38.8083C34.1904 39.0029 33.7707 39.2962 33.3454 39.5735C33.0017 39.7974 32.6507 40.0133 32.2733 40.1698C31.8472 40.3469 31.394 40.4461 30.9393 40.5159C30.6501 40.5604 30.3573 40.5928 30.0652 40.5774C29.773 40.562 29.48 40.4969 29.2223 40.3551C29.0268 40.2475 28.8512 40.0927 28.7466 39.8918C28.6306 39.6686 28.6105 39.4067 28.6133 39.1536C28.6204 38.4795 28.772 37.8127 28.7673 37.1386C28.7633 36.5518 28.6413 35.9725 28.6062 35.3868C28.5386 34.2604 28.7925 33.1144 28.5691 32.0094C28.5335 31.8326 28.4852 31.6559 28.4876 31.4752C28.4888 31.3847 28.503 31.2942 28.5363 31.2105C28.5695 31.1269 28.6234 31.051 28.6948 30.9981C28.7551 30.9537 28.8263 30.9267 28.8994 30.9144C28.9726 30.9022 29.0474 30.9046 29.1209 30.9156C29.2675 30.9373 29.4073 30.9921 29.55 31.0326C29.9586 31.1485 30.3903 31.1459 30.8054 31.2334C31.0659 31.2883 31.3183 31.3779 31.5761 31.4452C32.0092 31.5563 32.4608 31.606 32.9049 31.5563C33.3828 31.5031 33.8494 31.338 34.3297 31.3499C34.5266 31.3547 34.7221 31.3896 34.912 31.4436C35.1019 31.4976 35.2917 31.5738 35.4354 31.7119C35.539 31.8116 35.6132 31.9389 35.6738 32.0707C35.762 32.2631 35.8234 32.4724 35.822 32.6848C35.8212 32.7955 35.8034 32.9052 35.7931 33.015C35.7827 33.1249 35.7795 33.2379 35.807 33.3448C35.8345 33.4516 35.8927 33.5491 35.959 33.6369C36.0254 33.7247 36.1005 33.8052 36.169 33.8912C36.3611 34.1321 36.4984 34.4128 36.648 34.6835C36.7975 34.9542 36.9653 35.2222 37.2016 35.417C37.5233 35.6824 37.9406 35.7885 38.2991 35.998C38.4042 36.0595 38.5058 36.1314 38.5796 36.2298C38.6388 36.309 38.6777 36.4022 38.6929 36.5008C38.708 36.5994 38.6989 36.7003 38.6664 36.7944L38.6667 36.7955Z" fill="#F5C021"/>
</g>
<g filter="url(#filter20_f_9_3)">
<path d="M28.4999 30.8973C28.9715 30.7696 29.373 31.1272 29.715 31.397C29.936 31.5856 30.2552 31.5381 30.5264 31.547C30.9755 31.5308 31.4224 31.6223 31.8717 31.5666C32.7562 31.4918 33.6231 31.2744 34.5118 31.2356C34.9364 31.2088 35.4128 31.1842 35.7796 31.432C35.9282 31.5351 36.1462 31.9703 36.2928 31.807C36.2324 31.3495 35.8931 30.9065 35.4379 30.7848C35.0816 30.7286 34.7182 30.8265 34.3598 30.7948C33.2914 30.7693 32.2306 30.571 31.1595 30.6279C30.4145 30.6343 29.6703 30.5998 28.9264 30.5707C28.6342 30.511 28.531 30.7708 28.3723 30.8701" fill="url(#paint15_linear_9_3)"/>
</g>
<g opacity="0.75" filter="url(#filter21_f_9_3)">
<path d="M30.6139 22.1998C30.7848 22.1733 31.8398 23.0703 31.6955 23.4049C31.5513 23.7396 31.2804 23.5372 31.0865 23.5395C30.8927 23.5417 30.3625 23.7824 30.2736 23.6306C30.1848 23.4787 30.5082 23.1239 30.6774 22.8275C30.8137 22.5888 30.4429 22.2279 30.6139 22.2014L30.6139 22.1998Z" fill="#7C7C7C"/>
</g>
<g opacity="0.25" filter="url(#filter22_f_9_3)">
<path d="M15.7277 16.5547C15.7107 16.3481 15.4156 16.3172 15.284 16.4202C15.1729 16.5073 15.0686 16.8046 15.1645 16.9209C15.3203 17.1095 15.751 16.8382 15.7277 16.555L15.7277 16.5547Z" fill="#7C7C7C"/>
</g>
<g opacity="0.35" filter="url(#filter23_f_9_3)">
<path d="M34.858 31.6155C34.777 31.4569 34.6296 31.3383 34.4651 31.2697C34.3006 31.201 34.1201 31.179 33.942 31.1804C33.5858 31.1833 33.2317 31.276 32.8769 31.2452C32.5771 31.2193 32.2925 31.1066 31.9989 31.0355C31.6971 30.9635 31.3768 30.9347 31.077 31.0149C30.7566 31.1021 30.4739 31.3163 30.2969 31.5971C30.1409 31.8447 30.0666 32.1373 30.0436 32.4291C30.0205 32.7208 30.0454 33.0143 30.0749 33.3056C30.0963 33.5163 30.1201 33.7273 30.1711 33.9332C30.2221 34.139 30.3012 34.3395 30.4253 34.5111C30.6038 34.7581 30.869 34.9342 31.155 35.04C31.6275 35.2127 32.1472 35.2036 32.6134 35.0146C33.428 34.6609 34.1175 34.0266 34.5378 33.2442C34.6882 32.9641 34.8051 32.6655 34.8806 32.3568C34.9106 32.234 34.9342 32.1089 34.9353 31.9826C34.9365 31.8562 34.9142 31.7278 34.8567 31.6155H34.858Z" fill="url(#paint16_radial_9_3)"/>
</g>
<g opacity="0.35" filter="url(#filter24_f_9_3)">
<path d="M34.858 31.4492C34.777 31.3345 34.6296 31.2487 34.4651 31.1991C34.3006 31.1495 34.1201 31.1336 33.942 31.1346C33.5858 31.1367 33.2317 31.2037 32.8769 31.1814C32.5771 31.1627 32.2925 31.0812 31.9989 31.0298C31.6971 30.9778 31.3768 30.957 31.077 31.0149C30.7566 31.078 30.4739 31.2328 30.2969 31.4358C30.1409 31.6148 30.0666 31.8263 30.0436 32.0373C30.0205 32.2482 30.0454 32.4603 30.0749 32.671C30.0963 32.8233 30.1201 32.9758 30.1711 33.1246C30.2221 33.2734 30.3012 33.4184 30.4253 33.5424C30.6038 33.721 30.869 33.8483 31.155 33.9248C31.6275 34.0496 32.1472 34.0431 32.6134 33.9064C33.428 33.6507 34.1175 33.1922 34.5378 32.6265C34.6882 32.424 34.8051 32.2082 34.8806 31.985C34.9106 31.8963 34.9342 31.8059 34.9353 31.7145C34.9365 31.6231 34.9142 31.5303 34.8567 31.4492H34.858Z" fill="url(#paint17_radial_9_3)"/>
</g>
<path d="M35.5351 30.1313C35.4768 29.9724 35.3742 29.8316 35.2487 29.7182C35.1232 29.6048 34.9752 29.5178 34.8193 29.4516C34.5077 29.3192 34.1688 29.2703 33.836 29.2075L32.8964 29.0237C32.5697 28.9682 32.2317 28.9328 31.9083 29.0057C31.6253 29.0695 31.3636 29.2159 31.1495 29.4116C30.9353 29.6074 30.768 29.8515 30.6478 30.1169C30.436 30.5818 30.3693 31.105 30.4098 31.6143C30.44 31.9932 30.5357 32.3837 30.7854 32.6707C30.9869 32.9025 31.2729 33.0471 31.5676 33.1342C32.0749 33.2843 32.6279 33.2764 33.1307 33.1119C33.9668 32.8293 34.6899 32.2854 35.1933 31.5604C35.3574 31.3229 35.4973 31.0641 35.5608 30.7827C35.6091 30.5668 35.6108 30.3394 35.5351 30.1329V30.1313Z" fill="#020204"/>
<g filter="url(#filter25_f_9_3)">
<path d="M32.0853 28.8543C32.0068 28.8586 31.9287 28.8676 31.8514 28.8814C31.3519 28.9702 30.8946 29.2858 30.637 29.7225C30.4552 30.0338 30.3721 30.393 30.3986 30.7525C30.4092 30.5018 30.4749 30.2564 30.5966 30.0372C30.803 29.6655 31.1769 29.3851 31.5952 29.3086C31.8543 29.2613 32.1179 29.2898 32.3779 29.3221C32.6273 29.3532 32.8788 29.3859 33.1246 29.4391C33.5046 29.5214 33.8809 29.6478 34.1998 29.8709C34.2741 29.9227 34.3437 29.9817 34.4022 30.0508C34.4606 30.1199 34.5061 30.2002 34.5237 30.2892C34.5493 30.4193 34.5121 30.5559 34.4474 30.6715C34.3826 30.7871 34.2941 30.8884 34.1998 30.9818C34.1235 31.0575 34.0422 31.1306 33.9615 31.202C34.3299 31.1306 34.703 31.0296 35.0093 30.8153C35.1388 30.7246 35.2561 30.6159 35.3332 30.4779C35.4102 30.3398 35.4428 30.1727 35.4051 30.0192C35.3796 29.9155 35.3231 29.8202 35.2523 29.7404C35.1814 29.6605 35.0968 29.5947 35.0094 29.5335C34.6237 29.2634 34.1725 29.0902 33.7051 29.0341C33.4057 28.9789 33.1035 28.9325 32.8012 28.8945C32.5647 28.8648 32.3233 28.8408 32.0858 28.8542L32.0853 28.8543Z" fill="url(#paint18_radial_9_3)"/>
</g>
<path d="M15.7168 15.6079L13.2812 18.6573C12.7726 19.2877 12.252 19.923 11.921 20.6623C11.6366 21.2975 11.5021 21.9875 11.3071 22.6558C11.0857 23.4146 10.7852 24.1484 10.4478 24.8632C10.1362 25.5231 9.7929 26.1676 9.4489 26.8114C9.19874 27.2798 8.94441 27.7585 8.85762 28.2825C8.78911 28.6964 8.82883 29.1236 8.93448 29.5298C9.04013 29.936 9.20795 30.3229 9.40054 30.6965C10.2162 32.2906 11.4401 33.6647 12.8898 34.7159C13.5476 35.1929 14.2524 35.6054 14.9915 35.9431C15.392 36.1259 15.814 36.2891 16.2541 36.2967C16.4743 36.3005 16.6966 36.2643 16.8981 36.1758C17.0996 36.0873 17.2795 35.945 17.3994 35.7603C17.5467 35.5332 17.5966 35.251 17.5671 34.982C17.5376 34.713 17.4325 34.4562 17.2917 34.2249C16.9463 33.6603 16.4044 33.2519 15.8818 32.8471C14.7533 31.9728 13.6616 31.0507 12.617 30.0778C12.322 29.8028 12.0272 29.5196 11.8211 29.1733C11.6204 28.8359 11.5119 28.4516 11.4385 28.066C11.237 27.0081 11.2888 25.895 11.6487 24.8803C11.7894 24.4833 11.9754 24.1042 12.155 23.723C12.4659 23.0624 12.7605 22.3894 13.1697 21.7847C13.679 21.0319 14.3597 20.3943 14.7746 19.5857C15.125 18.9034 15.2669 18.1359 15.4025 17.3809L15.7168 15.6079V15.6079Z" fill="#020204"/>
<path d="M9.82685 29.5112C10.0571 29.4158 10.3159 29.3984 10.5609 29.4436C10.8059 29.4888 11.0373 29.5947 11.2436 29.7346C11.6558 30.0147 11.9615 30.4223 12.2544 30.8256C12.9269 31.7517 13.5743 32.6971 14.1609 33.6799C14.6367 34.477 15.074 35.3001 15.6238 36.048C15.9828 36.5362 16.3877 36.9893 16.7484 37.4761C17.1091 37.9629 17.4289 38.4917 17.5889 39.0762C17.7968 39.8358 17.7163 40.6729 17.3548 41.3724C17.1004 41.8647 16.7105 42.2867 16.2361 42.5728C15.7617 42.859 15.2041 43.0067 14.6505 42.9859C13.7705 42.9528 12.9665 42.5131 12.1484 42.1871C10.4816 41.5233 8.67091 41.3149 6.95277 40.7978C6.42453 40.6389 5.9055 40.451 5.37381 40.3047C5.13776 40.24 4.89738 40.1827 4.67429 40.0816C4.45119 39.9806 4.24248 39.8297 4.11841 39.6186C4.02255 39.4554 3.98196 39.2631 3.98455 39.0737C3.98714 38.8842 4.03148 38.6973 4.09596 38.5192C4.22492 38.1631 4.4332 37.8407 4.57382 37.4891C4.8034 36.9148 4.8447 36.2818 4.81376 35.664C4.78281 35.0462 4.68278 34.4341 4.64032 33.8173C4.62161 33.5418 4.61441 33.2627 4.66695 32.9917C4.71948 32.7207 4.83621 32.4555 5.03513 32.2641C5.2185 32.0875 5.4619 31.9827 5.71105 31.9306C5.9602 31.8785 6.21698 31.8764 6.4716 31.882C6.72622 31.8876 6.98112 31.9013 7.23502 31.8805C7.48892 31.8598 7.74354 31.8028 7.96477 31.6764C8.17492 31.5564 8.34677 31.3778 8.48927 31.1822C8.63176 30.9866 8.74691 30.7725 8.86494 30.5612C8.98296 30.3499 9.10502 30.1392 9.25961 29.953C9.41419 29.7667 9.60361 29.6042 9.82714 29.5115L9.82685 29.5112Z" fill="url(#paint19_linear_9_3)"/>
<g filter="url(#filter26_f_9_3)">
<path d="M10.19 29.9085C10.3994 29.8241 10.6353 29.8149 10.8554 29.8647C11.0755 29.9145 11.28 30.0231 11.4582 30.1594C11.8149 30.4349 12.0627 30.8235 12.3008 31.2058C12.8722 32.1317 13.4307 33.0674 13.9583 34.0221C14.358 34.7408 14.7392 35.4749 15.2303 36.1351C15.5561 36.5729 15.9279 36.9742 16.2606 37.407C16.5932 37.8399 16.8895 38.3112 17.0368 38.8367C17.2262 39.5141 17.1495 40.2617 16.8216 40.8854C16.5842 41.3351 16.226 41.7096 15.7873 41.9667C15.3475 42.2223 14.8437 42.3466 14.3354 42.3248C13.5297 42.2877 12.7939 41.8853 12.0354 41.6124C10.5812 41.0847 9.00511 41.0139 7.51351 40.602C6.9788 40.4569 6.45747 40.2633 5.92016 40.1278C5.68238 40.0678 5.44043 40.0189 5.21459 39.9234C4.98876 39.828 4.77603 39.6802 4.65354 39.4679C4.56243 39.31 4.52601 39.1242 4.53163 38.942C4.53724 38.7597 4.58344 38.5821 4.64677 38.4103C4.7766 38.0696 4.9807 37.7626 5.11168 37.4207C5.31031 36.9063 5.33478 36.3406 5.29793 35.7905C5.26108 35.2404 5.16551 34.6952 5.13198 34.1448C5.11701 33.8986 5.1147 33.6496 5.1645 33.4084C5.21431 33.1672 5.31938 32.9334 5.49483 32.759C5.68483 32.5704 5.94679 32.4676 6.2112 32.4273C6.4756 32.387 6.74462 32.4046 7.01075 32.4283C7.27689 32.4521 7.54403 32.482 7.81103 32.4661C8.07803 32.4501 8.34877 32.385 8.56956 32.2348C8.77064 32.0987 8.92163 31.9003 9.03648 31.6881C9.15134 31.4759 9.23339 31.2484 9.3209 31.0235C9.40841 30.7987 9.50326 30.5742 9.64072 30.3758C9.77818 30.1775 9.96256 30.0009 10.1885 29.9102" fill="#D99A03"/>
</g>
<g filter="url(#filter27_f_9_3)">
<path d="M9.67808 29.9253C9.87343 29.8295 10.1034 29.8098 10.3176 29.853C10.5318 29.8962 10.7302 29.9997 10.899 30.1351C11.2363 30.4043 11.4504 30.7912 11.6499 31.1694C12.1078 32.0381 12.5342 32.9257 13.0822 33.7437C13.4798 34.3359 13.9384 34.89 14.3405 35.4806C14.8858 36.2814 15.3292 37.1624 15.512 38.1059C15.6351 38.7406 15.6312 39.4249 15.3219 39.9979C15.1183 40.3742 14.7885 40.6843 14.3988 40.8761C14.0091 41.0679 13.5616 41.1476 13.1256 41.1095C12.4392 41.0496 11.8157 40.7158 11.1697 40.483C10.0232 40.0698 8.78417 39.9712 7.60429 39.6593C7.10663 39.5278 6.62061 39.3585 6.11491 39.2556C5.8924 39.2095 5.66546 39.1762 5.45307 39.0968C5.24067 39.0173 5.03936 38.886 4.93074 38.6917C4.85454 38.5549 4.82863 38.3949 4.84013 38.2398C4.85163 38.0848 4.89832 37.9337 4.95997 37.7901C5.083 37.5029 5.26478 37.2396 5.36176 36.9427C5.50211 36.5064 5.44448 36.0333 5.33904 35.5877C5.23361 35.1421 5.08176 34.7048 5.03507 34.2499C5.01428 34.0474 5.0147 33.8408 5.06139 33.6423C5.10808 33.4437 5.20368 33.253 5.35373 33.1107C5.54672 32.9273 5.81703 32.8361 6.08567 32.8105C6.35432 32.785 6.6249 32.8199 6.89202 32.8576C7.15914 32.8953 7.42792 32.9384 7.69767 32.9249C7.96743 32.9115 8.24189 32.8428 8.45318 32.6794C8.66211 32.5179 8.79345 32.2774 8.86882 32.0286C8.94419 31.7797 8.96857 31.5196 8.99947 31.262C9.03036 31.0044 9.06874 30.7444 9.16988 30.5043C9.27102 30.2642 9.44143 30.0429 9.67974 29.9259L9.67808 29.9253Z" fill="#F5BD0C"/>
</g>
<g filter="url(#filter28_f_9_3)">
<path d="M12.5371 31.663C12.9122 32.3414 13.1411 33.12 13.513 33.8041C13.8553 34.4334 14.2447 35.0813 14.5925 35.6617C14.7472 35.9201 15.1082 36.3173 15.4734 36.9336C15.8041 37.4921 16.1381 38.2718 16.325 38.5336C16.2177 38.227 15.9969 37.4042 15.7335 36.8175C15.4888 36.2691 15.2009 35.9565 15.0243 35.6617C14.6766 35.0813 14.3022 34.5597 13.9448 34.0064C13.4518 33.2433 13.076 32.3893 12.5371 31.6632V31.663Z" fill="url(#paint20_linear_9_3)"/>
</g>
</g>
<defs>
<filter id="filter0_f_9_3" x="16.3518" y="11.3139" width="9.57771" height="4.77034" filterUnits="userSpaceOnUse" color-interpolation-filters="sRGB">
<feFlood flood-opacity="0" result="BackgroundImageFix"/>
<feBlend mode="normal" in="SourceGraphic" in2="BackgroundImageFix" result="shape"/>
<feGaussianBlur stdDeviation="0.191623" result="effect1_foregroundBlur_9_3"/>
</filter>
<filter id="filter1_f_9_3" x="16.1655" y="8.86296" width="9.84442" height="5.54353" filterUnits="userSpaceOnUse" color-interpolation-filters="sRGB">
<feFlood flood-opacity="0" result="BackgroundImageFix"/>
<feBlend mode="normal" in="SourceGraphic" in2="BackgroundImageFix" result="shape"/>
<feGaussianBlur stdDeviation="0.291564" result="effect1_foregroundBlur_9_3"/>
</filter>
<filter id="filter2_f_9_3" x="22.9096" y="1.25454" width="4.08895" height="3.96511" filterUnits="userSpaceOnUse" color-interpolation-filters="sRGB">
<feFlood flood-opacity="0" result="BackgroundImageFix"/>
<feBlend mode="normal" in="SourceGraphic" in2="BackgroundImageFix" result="shape"/>
<feGaussianBlur stdDeviation="0.429496" result="effect1_foregroundBlur_9_3"/>
</filter>
<filter id="filter3_f_9_3" x="23.3061" y="8.73122" width="0.757805" height="0.62458" filterUnits="userSpaceOnUse" color-interpolation-filters="sRGB">
<feFlood flood-opacity="0" result="BackgroundImageFix"/>
<feBlend mode="normal" in="SourceGraphic" in2="BackgroundImageFix" result="shape"/>
<feGaussianBlur stdDeviation="0.0533428" result="effect1_foregroundBlur_9_3"/>
</filter>
<filter id="filter4_f_9_3" x="23.1946" y="7.99298" width="1.44901" height="1.43442" filterUnits="userSpaceOnUse" color-interpolation-filters="sRGB">
<feFlood flood-opacity="0" result="BackgroundImageFix"/>
<feBlend mode="normal" in="SourceGraphic" in2="BackgroundImageFix" result="shape"/>
<feGaussianBlur stdDeviation="0.111184" result="effect1_foregroundBlur_9_3"/>
</filter>
<filter id="filter5_f_9_3" x="23.6645" y="5.42588" width="2.3352" height="2.16465" filterUnits="userSpaceOnUse" color-interpolation-filters="sRGB">
<feFlood flood-opacity="0" result="BackgroundImageFix"/>
<feBlend mode="normal" in="SourceGraphic" in2="BackgroundImageFix" result="shape"/>
<feGaussianBlur stdDeviation="0.0317057" result="effect1_foregroundBlur_9_3"/>
</filter>
<filter id="filter6_f_9_3" x="17.7233" y="5.71269" width="2.18026" height="1.93027" filterUnits="userSpaceOnUse" color-interpolation-filters="sRGB">
<feFlood flood-opacity="0" result="BackgroundImageFix"/>
<feBlend mode="normal" in="SourceGraphic" in2="BackgroundImageFix" result="shape"/>
<feGaussianBlur stdDeviation="0.0289208" result="effect1_foregroundBlur_9_3"/>
</filter>
<filter id="filter7_f_9_3" x="17.8108" y="8.13199" width="1.19491" height="1.65178" filterUnits="userSpaceOnUse" color-interpolation-filters="sRGB">
<feFlood flood-opacity="0" result="BackgroundImageFix"/>
<feBlend mode="normal" in="SourceGraphic" in2="BackgroundImageFix" result="shape"/>
<feGaussianBlur stdDeviation="0.109899" result="effect1_foregroundBlur_9_3"/>
</filter>
<filter id="filter8_f_9_3" x="18.4818" y="12.7894" width="2.76872" height="2.17671" filterUnits="userSpaceOnUse" color-interpolation-filters="sRGB">
<feFlood flood-opacity="0" result="BackgroundImageFix"/>
<feBlend mode="normal" in="SourceGraphic" in2="BackgroundImageFix" result="shape"/>
<feGaussianBlur stdDeviation="0.192591" result="effect1_foregroundBlur_9_3"/>
</filter>
<filter id="filter9_f_9_3" x="16.7549" y="10.5334" width="8.26386" height="3.94892" filterUnits="userSpaceOnUse" color-interpolation-filters="sRGB">
<feFlood flood-opacity="0" result="BackgroundImageFix"/>
<feBlend mode="normal" in="SourceGraphic" in2="BackgroundImageFix" result="shape"/>
<feGaussianBlur stdDeviation="0.162385" result="effect1_foregroundBlur_9_3"/>
</filter>
<filter id="filter10_f_9_3" x="20.0288" y="10.6356" width="2.54911" height="2.9774" filterUnits="userSpaceOnUse" color-interpolation-filters="sRGB">
<feFlood flood-opacity="0" result="BackgroundImageFix"/>
<feBlend mode="normal" in="SourceGraphic" in2="BackgroundImageFix" result="shape"/>
<feGaussianBlur stdDeviation="0.18188" result="effect1_foregroundBlur_9_3"/>
</filter>
<filter id="filter11_f_9_3" x="20.9581" y="10.0186" width="0.909568" height="0.522147" filterUnits="userSpaceOnUse" color-interpolation-filters="sRGB">
<feFlood flood-opacity="0" result="BackgroundImageFix"/>
<feBlend mode="normal" in="SourceGraphic" in2="BackgroundImageFix" result="shape"/>
<feGaussianBlur stdDeviation="0.0235651" result="effect1_foregroundBlur_9_3"/>
</filter>
<filter id="filter12_f_9_3" x="19.0315" y="10.0926" width="0.421592" height="0.455199" filterUnits="userSpaceOnUse" color-interpolation-filters="sRGB">
<feFlood flood-opacity="0" result="BackgroundImageFix"/>
<feBlend mode="normal" in="SourceGraphic" in2="BackgroundImageFix" result="shape"/>
<feGaussianBlur stdDeviation="0.0235651" result="effect1_foregroundBlur_9_3"/>
</filter>
<filter id="filter13_f_9_3" x="24.494" y="11.1751" width="1.12324" height="1.31006" filterUnits="userSpaceOnUse" color-interpolation-filters="sRGB">
<feFlood flood-opacity="0" result="BackgroundImageFix"/>
<feBlend mode="normal" in="SourceGraphic" in2="BackgroundImageFix" result="shape"/>
<feGaussianBlur stdDeviation="0.073168" result="effect1_foregroundBlur_9_3"/>
</filter>
<filter id="filter14_f_9_3" x="13.2268" y="17.7517" width="5.73132" height="5.40054" filterUnits="userSpaceOnUse" color-interpolation-filters="sRGB">
<feFlood flood-opacity="0" result="BackgroundImageFix"/>
<feBlend mode="normal" in="SourceGraphic" in2="BackgroundImageFix" result="shape"/>
<feGaussianBlur stdDeviation="0.147995" result="effect1_foregroundBlur_9_3"/>
</filter>
<filter id="filter15_f_9_3" x="20.7487" y="17.1822" width="8.71638" height="6.34161" filterUnits="userSpaceOnUse" color-interpolation-filters="sRGB">
<feFlood flood-opacity="0" result="BackgroundImageFix"/>
<feBlend mode="normal" in="SourceGraphic" in2="BackgroundImageFix" result="shape"/>
<feGaussianBlur stdDeviation="0.243791" result="effect1_foregroundBlur_9_3"/>
</filter>
<filter id="filter16_f_9_3" x="17.8283" y="17.9494" width="3.79505" height="4.0108" filterUnits="userSpaceOnUse" color-interpolation-filters="sRGB">
<feFlood flood-opacity="0" result="BackgroundImageFix"/>
<feBlend mode="normal" in="SourceGraphic" in2="BackgroundImageFix" result="shape"/>
<feGaussianBlur stdDeviation="0.168169" result="effect1_foregroundBlur_9_3"/>
</filter>
<filter id="filter17_f_9_3" x="17.7046" y="22.5672" width="1.85042" height="9.87962" filterUnits="userSpaceOnUse" color-interpolation-filters="sRGB">
<feFlood flood-opacity="0" result="BackgroundImageFix"/>
<feBlend mode="normal" in="SourceGraphic" in2="BackgroundImageFix" result="shape"/>
<feGaussianBlur stdDeviation="0.309774" result="effect1_foregroundBlur_9_3"/>
</filter>
<filter id="filter18_f_9_3" x="25.986" y="28.3667" width="15.4788" height="15.639" filterUnits="userSpaceOnUse" color-interpolation-filters="sRGB">
<feFlood flood-opacity="0" result="BackgroundImageFix"/>
<feBlend mode="normal" in="SourceGraphic" in2="BackgroundImageFix" result="shape"/>
<feGaussianBlur stdDeviation="1.0238" result="effect1_foregroundBlur_9_3"/>
</filter>
<filter id="filter19_f_9_3" x="26.874" y="29.2928" width="13.4394" height="12.9019" filterUnits="userSpaceOnUse" color-interpolation-filters="sRGB">
<feFlood flood-opacity="0" result="BackgroundImageFix"/>
<feBlend mode="normal" in="SourceGraphic" in2="BackgroundImageFix" result="shape"/>
<feGaussianBlur stdDeviation="0.806721" result="effect1_foregroundBlur_9_3"/>
</filter>
<filter id="filter20_f_9_3" x="28.167" y="30.3567" width="8.33105" height="1.69181" filterUnits="userSpaceOnUse" color-interpolation-filters="sRGB">
<feFlood flood-opacity="0" result="BackgroundImageFix"/>
<feBlend mode="normal" in="SourceGraphic" in2="BackgroundImageFix" result="shape"/>
<feGaussianBlur stdDeviation="0.102615" result="effect1_foregroundBlur_9_3"/>
</filter>
<filter id="filter21_f_9_3" x="29.2764" y="21.2171" width="3.41474" height="3.44577" filterUnits="userSpaceOnUse" color-interpolation-filters="sRGB">
<feFlood flood-opacity="0" result="BackgroundImageFix"/>
<feBlend mode="normal" in="SourceGraphic" in2="BackgroundImageFix" result="shape"/>
<feGaussianBlur stdDeviation="0.491044" result="effect1_foregroundBlur_9_3"/>
</filter>
<filter id="filter22_f_9_3" x="14.8526" y="16.0888" width="1.15013" height="1.16884" filterUnits="userSpaceOnUse" color-interpolation-filters="sRGB">
<feFlood flood-opacity="0" result="BackgroundImageFix"/>
<feBlend mode="normal" in="SourceGraphic" in2="BackgroundImageFix" result="shape"/>
<feGaussianBlur stdDeviation="0.137066" result="effect1_foregroundBlur_9_3"/>
</filter>
<filter id="filter23_f_9_3" x="28.816" y="29.7481" width="7.33788" height="6.63363" filterUnits="userSpaceOnUse" color-interpolation-filters="sRGB">
<feFlood flood-opacity="0" result="BackgroundImageFix"/>
<feBlend mode="normal" in="SourceGraphic" in2="BackgroundImageFix" result="shape"/>
<feGaussianBlur stdDeviation="0.609264" result="effect1_foregroundBlur_9_3"/>
</filter>
<filter id="filter24_f_9_3" x="29.5621" y="30.5076" width="5.8458" height="3.97879" filterUnits="userSpaceOnUse" color-interpolation-filters="sRGB">
<feFlood flood-opacity="0" result="BackgroundImageFix"/>
<feBlend mode="normal" in="SourceGraphic" in2="BackgroundImageFix" result="shape"/>
<feGaussianBlur stdDeviation="0.236245" result="effect1_foregroundBlur_9_3"/>
</filter>
<filter id="filter25_f_9_3" x="29.9546" y="28.4112" width="5.90537" height="3.23" filterUnits="userSpaceOnUse" color-interpolation-filters="sRGB">
<feFlood flood-opacity="0" result="BackgroundImageFix"/>
<feBlend mode="normal" in="SourceGraphic" in2="BackgroundImageFix" result="shape"/>
<feGaussianBlur stdDeviation="0.219584" result="effect1_foregroundBlur_9_3"/>
</filter>
<filter id="filter26_f_9_3" x="2.84981" y="28.1531" width="15.9701" height="15.8555" filterUnits="userSpaceOnUse" color-interpolation-filters="sRGB">
<feFlood flood-opacity="0" result="BackgroundImageFix"/>
<feBlend mode="normal" in="SourceGraphic" in2="BackgroundImageFix" result="shape"/>
<feGaussianBlur stdDeviation="0.840631" result="effect1_foregroundBlur_9_3"/>
</filter>
<filter id="filter27_f_9_3" x="3.80279" y="28.7965" width="12.8195" height="13.357" filterUnits="userSpaceOnUse" color-interpolation-filters="sRGB">
<feFlood flood-opacity="0" result="BackgroundImageFix"/>
<feBlend mode="normal" in="SourceGraphic" in2="BackgroundImageFix" result="shape"/>
<feGaussianBlur stdDeviation="0.517366" result="effect1_foregroundBlur_9_3"/>
</filter>
<filter id="filter28_f_9_3" x="12.3786" y="31.5045" width="4.10496" height="7.18762" filterUnits="userSpaceOnUse" color-interpolation-filters="sRGB">
<feFlood flood-opacity="0" result="BackgroundImageFix"/>
<feBlend mode="normal" in="SourceGraphic" in2="BackgroundImageFix" result="shape"/>
<feGaussianBlur stdDeviation="0.0792644" result="effect1_foregroundBlur_9_3"/>
</filter>
<radialGradient id="paint0_radial_9_3" cx="0" cy="0" r="1" gradientUnits="userSpaceOnUse" gradientTransform="translate(555.984 810.913) rotate(-2.41003) scale(35.8224 87.6805)">
<stop stop-color="#FEFEFC"/>
<stop offset="0.757" stop-color="#FEFEFC"/>
<stop offset="1" stop-color="#D4D4D4"/>
</radialGradient>
<radialGradient id="paint1_radial_9_3" cx="0" cy="0" r="1" gradientUnits="userSpaceOnUse" gradientTransform="translate(998.008 849.294) rotate(-1.81001) scale(64.1346 92.6805)">
<stop stop-color="#FEFEFC"/>
<stop offset="0.757" stop-color="#FEFEFC"/>
<stop offset="1" stop-color="#D4D4D4"/>
</radialGradient>
<linearGradient id="paint2_linear_9_3" x1="327.721" y1="139.616" x2="334.351" y2="147.584" gradientUnits="userSpaceOnUse">
<stop stop-color="#949494" stop-opacity="0.392"/>
<stop offset="0.5" stop-color="#949494"/>
<stop offset="1" stop-color="#949494" stop-opacity="0.392"/>
</linearGradient>
<linearGradient id="paint3_linear_9_3" x1="57.98" y1="220.606" x2="87.0207" y2="250.317" gradientUnits="userSpaceOnUse">
<stop stop-color="#646464" stop-opacity="0"/>
<stop offset="0.306" stop-color="#646464" stop-opacity="0.583"/>
<stop offset="0.47" stop-color="#646464"/>
<stop offset="0.728" stop-color="#646464" stop-opacity="0.257"/>
<stop offset="1" stop-color="#646464" stop-opacity="0"/>
</linearGradient>
<linearGradient id="paint4_linear_9_3" x1="-35.4297" y1="199.325" x2="-11.1985" y2="225.876" gradientUnits="userSpaceOnUse">
<stop stop-color="#646464" stop-opacity="0"/>
<stop offset="0.306" stop-color="#646464" stop-opacity="0.583"/>
<stop offset="0.47" stop-color="#646464"/>
<stop offset="0.728" stop-color="#646464" stop-opacity="0.257"/>
<stop offset="1" stop-color="#646464" stop-opacity="0"/>
</linearGradient>
<linearGradient id="paint5_linear_9_3" x1="141.936" y1="168.436" x2="150.187" y2="177.628" gradientUnits="userSpaceOnUse">
<stop stop-color="#757574" stop-opacity="0"/>
<stop offset="0.263" stop-color="#757574"/>
<stop offset="0.5" stop-color="#757574"/>
<stop offset="1" stop-color="#757574" stop-opacity="0"/>
</linearGradient>
<radialGradient id="paint6_radial_9_3" cx="0" cy="0" r="1" gradientUnits="userSpaceOnUse" gradientTransform="translate(2637.21 -425.722) rotate(-22.428) scale(276.843 96.1803)">
<stop stop-color="#D2940A"/>
<stop offset="0.751" stop-color="#D89C08"/>
<stop offset="0.866" stop-color="#B67E07"/>
<stop offset="1" stop-color="#946106"/>
</radialGradient>
<linearGradient id="paint7_linear_9_3" x1="423.497" y1="702.474" x2="913.695" y2="694.865" gradientUnits="userSpaceOnUse">
<stop stop-color="#AD780A"/>
<stop offset="0.12" stop-color="#D89E08"/>
<stop offset="0.255" stop-color="#EDB80B"/>
<stop offset="0.392" stop-color="#EBC80D"/>
<stop offset="0.527" stop-color="#F5D838"/>
<stop offset="0.769" stop-color="#F6D811"/>
<stop offset="1" stop-color="#F5CD31"/>
</linearGradient>
<radialGradient id="paint8_radial_9_3" cx="0" cy="0" r="1" gradientUnits="userSpaceOnUse" gradientTransform="translate(84.3306 46.8686) scale(2.63339 0.806206)">
<stop stop-color="#3A2903"/>
<stop offset="0.555" stop-color="#735208"/>
<stop offset="1" stop-color="#AC8C04"/>
</radialGradient>
<radialGradient id="paint9_radial_9_3" cx="0" cy="0" r="1" gradientUnits="userSpaceOnUse" gradientTransform="translate(39.7424 67.3409) scale(0.502476 0.595659)">
<stop stop-color="#3A2903"/>
<stop offset="0.555" stop-color="#735208"/>
<stop offset="1" stop-color="#AC8C04"/>
</radialGradient>
<linearGradient id="paint10_linear_9_3" x1="206.7" y1="171.07" x2="207.221" y2="173.776" gradientUnits="userSpaceOnUse">
<stop stop-color="#F5CE2D"/>
<stop offset="1" stop-color="#D79B08"/>
</linearGradient>
<radialGradient id="paint11_radial_9_3" cx="0" cy="0" r="1" gradientUnits="userSpaceOnUse" gradientTransform="translate(-1145.42 827.936) rotate(180) scale(98.3208 100.543)">
<stop/>
<stop offset="1" stop-opacity="0.25"/>
</radialGradient>
<radialGradient id="paint12_radial_9_3" cx="0" cy="0" r="1" gradientUnits="userSpaceOnUse" gradientTransform="translate(2396.01 985.419) scale(212.039 112.208)">
<stop/>
<stop offset="1" stop-opacity="0.25"/>
</radialGradient>
<radialGradient id="paint13_radial_9_3" cx="0" cy="0" r="1" gradientUnits="userSpaceOnUse" gradientTransform="translate(836.949 820.346) scale(33.8621 38.7084)">
<stop/>
<stop offset="1" stop-opacity="0.25"/>
</radialGradient>
<linearGradient id="paint14_linear_9_3" x1="5529.9" y1="4800.28" x2="6155.59" y2="3816.68" gradientUnits="userSpaceOnUse">
<stop stop-color="#3E2A06"/>
<stop offset="1" stop-color="#AD780A"/>
</linearGradient>
<linearGradient id="paint15_linear_9_3" x1="386.097" y1="401.627" x2="385.8" y2="418.132" gradientUnits="userSpaceOnUse">
<stop stop-color="#F3CD0C"/>
<stop offset="1" stop-color="#F3CD0C" stop-opacity="0"/>
</linearGradient>
<radialGradient id="paint16_radial_9_3" cx="0" cy="0" r="1" gradientUnits="userSpaceOnUse" gradientTransform="translate(1832.57 2386.64) rotate(15) scale(111.815 100.505)">
<stop stop-color="#110800"/>
<stop offset="0.591" stop-color="#A65A00" stop-opacity="0.8"/>
<stop offset="1" stop-color="#FF921E" stop-opacity="0"/>
</radialGradient>
<radialGradient id="paint17_radial_9_3" cx="0" cy="0" r="1" gradientUnits="userSpaceOnUse" gradientTransform="translate(1832.57 1733.95) rotate(10.9628) scale(110.012 73.8481)">
<stop stop-color="#110800"/>
<stop offset="0.591" stop-color="#A65A00" stop-opacity="0.8"/>
<stop offset="1" stop-color="#FF921E" stop-opacity="0"/>
</radialGradient>
<radialGradient id="paint18_radial_9_3" cx="0" cy="0" r="1" gradientUnits="userSpaceOnUse" gradientTransform="translate(682.906 427.737) rotate(23.5217) scale(40.5648 8.77)">
<stop stop-color="#7C7C7C"/>
<stop offset="1" stop-color="#7C7C7C" stop-opacity="0.33"/>
</radialGradient>
<linearGradient id="paint19_linear_9_3" x1="1693.04" y1="4120.74" x2="2337.26" y2="5213.46" gradientUnits="userSpaceOnUse">
<stop stop-color="#B98309"/>
<stop offset="1" stop-color="#382605"/>
</linearGradient>
<linearGradient id="paint20_linear_9_3" x1="660.423" y1="2245.52" x2="784.926" y2="2374.73" gradientUnits="userSpaceOnUse">
<stop stop-color="#EBC40C"/>
<stop offset="1" stop-color="#EBC40C" stop-opacity="0"/>
</linearGradient>
<clipPath id="clip0_9_3">
<rect width="43" height="43" fill="white"/>
</clipPath>
</defs>
</svg>
