<svg width="40" height="40" viewBox="0 0 40 40" fill="none" xmlns="http://www.w3.org/2000/svg">
<path d="M7.08334 3.22406e-06H32.9167C33.8471 -0.000896211 34.7686 0.186404 35.6284 0.551183C36.4882 0.915963 37.2694 1.45106 37.9273 2.12585C38.5852 2.80065 39.1069 3.60189 39.4626 4.48372C39.8183 5.36555 40.0009 6.31066 40 7.26496V32.735C40.0009 33.6893 39.8183 34.6345 39.4626 35.5163C39.1069 36.3981 38.5852 37.1994 37.9273 37.8741C37.2694 38.5489 36.4882 39.084 35.6284 39.4488C34.7686 39.8136 33.8471 40.0009 32.9167 40H7.08334C6.15289 40.0009 5.23141 39.8136 4.37162 39.4488C3.51184 39.084 2.73063 38.5489 2.07271 37.8741C1.41478 37.1994 0.893064 36.3981 0.537404 35.5163C0.181743 34.6345 -0.000873806 33.6893 3.14346e-06 32.735V7.26496C-0.000873806 6.31066 0.181743 5.36555 0.537404 4.48372C0.893064 3.60189 1.41478 2.80065 2.07271 2.12585C2.73063 1.45106 3.51184 0.915963 4.37162 0.551183C5.23141 0.186404 6.15289 -0.000896211 7.08334 3.22406e-06V3.22406e-06Z" fill="#F0F0F0"/>
<g clip-path="url(#clip0_9_253)">
<path fill-rule="evenodd" clip-rule="evenodd" d="M8.69067 9.13636C9.76489 10.0189 10.1624 9.95603 12.1819 9.81669L31.123 8.65822C31.5259 8.65822 31.1902 8.25112 31.0559 8.18281L27.9004 5.8686C27.4964 5.51893 27.0246 5.25965 26.5156 5.1076C26.0067 4.95556 25.472 4.91416 24.9463 4.98609L6.60669 6.35221C5.93799 6.41778 5.80103 6.75931 6.06958 7.03254L8.68262 9.14183L8.69067 9.13636ZM9.82666 13.6282V33.9041C9.82666 34.997 10.3638 35.4014 11.5669 35.3331L32.3853 34.109C33.5911 34.0407 33.728 33.2894 33.728 32.4069V12.2648C33.728 11.3823 33.3923 10.8987 32.6538 10.9724L10.9009 12.2648C10.0952 12.3331 9.82666 12.7429 9.82666 13.6309V13.6282ZM30.3791 14.7211C30.5107 15.3331 30.3791 15.9451 29.7749 16.0134L28.7812 16.2129V31.1828C27.9111 31.6582 27.1082 31.9287 26.4395 31.9287C25.3652 31.9287 25.0967 31.5899 24.291 30.5626L17.7249 20.0899V30.2293L19.8008 30.7047C19.8008 30.7047 19.8008 31.9287 18.1277 31.9287L13.5085 32.2019C13.3743 31.9287 13.5085 31.2511 13.9785 31.109L15.1816 30.7675V17.3686L13.5085 17.232C13.4663 17.0515 13.4634 16.8638 13.4999 16.6821C13.5364 16.5003 13.6115 16.3289 13.72 16.1798C13.8285 16.0306 13.9676 15.9074 14.1278 15.8188C14.288 15.7301 14.4652 15.6781 14.6472 15.6664L19.5994 15.3276L26.4287 25.9506V16.5517L24.6885 16.3495C24.6577 16.1862 24.6621 16.018 24.7014 15.8566C24.7407 15.6952 24.8139 15.5443 24.916 15.4145C25.0181 15.2846 25.1467 15.1788 25.2929 15.1044C25.439 15.03 25.5993 14.9887 25.7627 14.9834L30.3845 14.7101L30.3791 14.7211ZM5.07324 4.50795L24.1406 3.07899C26.4959 2.87407 27.0974 3.01341 28.5691 4.09265L34.6599 8.46423C35.6643 9.21286 36.0027 9.41505 36.0027 10.232V34.1172C36.0027 35.6118 35.4656 36.497 33.5857 36.6336L11.4299 37.9998C10.0227 38.0681 9.354 37.8631 8.61816 36.9069L4.13867 30.9779C3.33301 29.885 3 29.0653 3 28.12V6.89046C3 5.66642 3.53711 4.63909 5.07324 4.50795Z" fill="black"/>
</g>
<defs>
<clipPath id="clip0_9_253">
<rect width="33" height="35" fill="white" transform="translate(3 3)"/>
</clipPath>
</defs>
</svg>
