<svg width="40" height="40" viewBox="0 0 40 40" fill="none" xmlns="http://www.w3.org/2000/svg">
<path d="M7.08334 3.22406e-06H32.9167C33.8471 -0.000896211 34.7686 0.186404 35.6284 0.551183C36.4882 0.915963 37.2694 1.45106 37.9273 2.12585C38.5852 2.80065 39.1069 3.60189 39.4626 4.48372C39.8183 5.36555 40.0009 6.31066 40 7.26496V32.735C40.0009 33.6893 39.8183 34.6345 39.4626 35.5163C39.1069 36.3981 38.5852 37.1994 37.9273 37.8741C37.2694 38.5489 36.4882 39.084 35.6284 39.4488C34.7686 39.8136 33.8471 40.0009 32.9167 40H7.08334C6.15289 40.0009 5.23141 39.8136 4.37162 39.4488C3.51184 39.084 2.73063 38.5489 2.07271 37.8741C1.41478 37.1994 0.893064 36.3981 0.537404 35.5163C0.181743 34.6345 -0.000873806 33.6893 3.14346e-06 32.735V7.26496C-0.000873806 6.31066 0.181743 5.36555 0.537404 4.48372C0.893064 3.60189 1.41478 2.80065 2.07271 2.12585C2.73063 1.45106 3.51184 0.915963 4.37162 0.551183C5.23141 0.186404 6.15289 -0.000896211 7.08334 3.22406e-06V3.22406e-06Z" fill="#F0F0F0"/>
<g clip-path="url(#clip0_9_3)">
<path d="M26.6247 15.3269C26.9734 16.0864 27.3627 16.8268 27.7086 17.5877C28.3745 19.0519 28.8802 20.5979 29.0902 22.1925C29.3003 23.7871 29.2089 25.4338 28.7108 26.9627C28.1476 28.6886 27.0784 30.2241 25.7684 31.4808C24.2187 32.9675 22.2293 34.1136 20.0834 34.1983C18.6851 34.2533 17.2931 33.8536 16.0549 33.2018C15.0142 32.6541 14.0643 31.9242 13.3063 31.0252C12.5484 30.1262 11.9856 29.0557 11.725 27.909C11.4041 26.4969 11.5493 24.9978 12.035 23.6336C12.3823 22.658 12.8972 21.7497 13.2638 20.7812C13.6644 19.7229 13.888 18.5928 14.4188 17.5935C14.8997 16.6873 15.6213 15.9133 16.0045 14.9617C16.2334 14.3933 16.3327 13.7829 16.4805 13.1882C16.6283 12.5935 16.8353 11.9945 17.2378 11.5325C17.7231 10.9758 18.4528 10.6741 19.1862 10.5894C19.9196 10.5046 20.662 10.619 21.3819 10.7833C21.9549 10.9139 22.521 11.0762 23.0748 11.2732C23.5475 11.4414 24.0159 11.6372 24.4246 11.9281C24.9816 12.3244 25.4058 12.8825 25.7437 13.4767C26.0817 14.071 26.3404 14.7059 26.6257 15.327L26.6247 15.3269Z" fill="#020204"/>
<path d="M20.4669 34.2118C21.056 34.246 21.6441 34.3032 22.2278 34.3914C22.7411 34.4694 23.2508 34.5699 23.7553 34.6926C24.5454 34.8841 25.3328 35.1283 26.1456 35.1515C26.3595 35.1576 26.5741 35.148 26.784 35.1016C26.994 35.0551 27.1956 34.9703 27.363 34.837C27.6126 34.6381 27.77 34.338 27.8297 34.0243C27.8893 33.7106 27.852 33.3842 27.76 33.0785C27.5763 32.4673 27.1816 31.9458 26.8563 31.3972C26.6694 31.0832 26.5029 30.7567 26.3004 30.4525C26.098 30.1483 25.8559 29.8634 25.5485 29.6652C25.1234 29.3912 24.5964 29.3019 24.0933 29.352C23.5902 29.4021 23.1079 29.5839 22.6589 29.8164C22.0294 30.1423 21.437 30.5898 21.0939 31.21C20.9745 31.4258 20.8877 31.6577 20.7863 31.8827C20.6848 32.1076 20.5661 32.3289 20.3942 32.5059C20.2025 32.7032 19.9538 32.8362 19.7555 33.0268C19.6564 33.1232 19.5697 33.233 19.5199 33.3607C19.4701 33.4885 19.4565 33.6345 19.5027 33.764C19.5345 33.8529 19.5927 33.9309 19.6645 33.9922C19.7362 34.0534 19.8211 34.0982 19.9101 34.1293C20.0879 34.1918 20.2796 34.201 20.4678 34.212L20.4669 34.2118Z" fill="#020204"/>
<path d="M18.7157 34.1737C18.2246 34.1851 17.7388 34.2729 17.2589 34.3723C16.7992 34.4673 16.3416 34.5732 15.8874 34.6924C15.1211 34.8935 14.3539 35.1344 13.5618 35.1513C13.3533 35.1555 13.1434 35.1443 12.9402 35.0973C12.737 35.0502 12.5403 34.9666 12.3773 34.8366C12.1282 34.638 11.9699 34.3385 11.9113 34.0255C11.8528 33.7125 11.8885 33.3867 11.9794 33.0814C12.1611 32.4708 12.5509 31.9481 12.8701 31.3969C13.0515 31.0836 13.2115 30.7579 13.4076 30.4536C13.6037 30.1492 13.8399 29.8637 14.1424 29.6648C14.5546 29.3938 15.0686 29.302 15.5595 29.3503C16.0504 29.3986 16.5209 29.5795 16.9538 29.816C17.565 30.1499 18.1232 30.6093 18.4766 31.2085C18.7245 31.6295 18.8675 32.1109 19.1574 32.5044C19.3135 32.7162 19.5109 32.8992 19.6394 33.1281C19.7043 33.2425 19.7519 33.3686 19.7629 33.4998C19.7739 33.631 19.7468 33.7673 19.6729 33.8763C19.6242 33.9484 19.5565 34.0066 19.4809 34.0496C19.4053 34.0925 19.3218 34.1208 19.2367 34.1385C19.0653 34.1741 18.8907 34.1685 18.7166 34.1728L18.7157 34.1737ZM15.972 13.7273C15.9031 12.8971 15.9185 12.0624 15.8885 11.2299C15.8587 10.4295 15.785 9.62942 15.8119 8.82885C15.8393 8.01478 15.9758 7.19 16.3383 6.45841C16.7007 5.72683 17.2894 5.10792 18.0076 4.72081C18.6824 4.35662 19.4607 4.20099 20.2285 4.20934C21.2697 4.2207 22.3134 4.53518 23.1564 5.14595C23.685 5.52856 24.1295 6.02182 24.4802 6.57206C24.7794 7.04176 25.0118 7.55473 25.1577 8.09308C25.4569 9.19635 25.3859 10.3583 25.4441 11.4989C25.4993 12.5799 25.6723 13.6583 25.6134 14.7391C25.6005 14.9747 25.5752 15.214 25.4706 15.4246C25.3686 15.6297 25.1955 15.7947 24.9966 15.9084C24.7977 16.0222 24.5738 16.0869 24.3475 16.1218C23.8947 16.1916 23.4317 16.1456 22.9756 16.1879C22.3136 16.2493 21.6822 16.4948 21.0252 16.5964C20.2433 16.7175 19.4446 16.6318 18.6529 16.6001C18.3358 16.5874 18.0177 16.5835 17.703 16.5439C17.3883 16.5044 17.0742 16.4283 16.7942 16.2789C16.6229 16.187 16.4629 16.0674 16.3342 15.9201C16.2054 15.7728 16.1071 15.5988 16.0582 15.4084C15.9846 15.1243 16.0233 14.8251 16.0244 14.5315C16.0255 14.2631 15.9942 13.9956 15.9709 13.7281L15.972 13.7273Z" fill="#020204"/>
<path d="M17.2179 13.4074C17.1059 13.5478 17.0328 13.7167 16.9887 13.8909C16.9446 14.0652 16.9285 14.2453 16.9216 14.4248C16.9078 14.784 16.9297 15.15 16.8348 15.4966C16.733 15.8672 16.5053 16.1881 16.2823 16.5011C15.8962 17.0431 15.5057 17.599 15.3154 18.2366C15.2 18.6227 15.1616 19.0317 15.2031 19.4325C14.7709 20.0672 14.3966 20.7414 14.0867 21.4441C13.6169 22.509 13.2945 23.6428 13.181 24.801C13.0422 26.2194 13.2237 27.6783 13.7838 28.9889C14.1886 29.9364 14.7926 30.8038 15.5711 31.479C15.9668 31.8223 16.4065 32.1152 16.8779 32.3463C18.5074 33.1472 20.5211 33.1485 22.1235 32.2948C22.961 31.8486 23.6679 31.1961 24.3494 30.5358C24.7598 30.1382 25.1682 29.7312 25.4812 29.253C26.084 28.3327 26.2939 27.214 26.4244 26.1217C26.6525 24.2115 26.6598 22.1938 25.8224 20.462C25.5332 19.8646 25.1506 19.3171 24.689 18.8402C24.5664 18.0068 24.3242 17.1909 23.9722 16.4256C23.7184 15.8734 23.4079 15.3478 23.1721 14.7878C23.0753 14.5578 22.99 14.3224 22.8836 14.0972C22.7773 13.8721 22.6437 13.6554 22.4633 13.483C22.2788 13.3062 22.0488 13.1811 21.8061 13.101C21.5633 13.0209 21.308 12.9845 21.053 12.9717C20.5426 12.946 20.0312 13.0127 19.5207 12.9925C19.1142 12.9764 18.709 12.9051 18.3028 12.9291C18.0997 12.9411 17.8968 12.9773 17.7083 13.0539C17.5198 13.1304 17.346 13.2485 17.2192 13.4073L17.2179 13.4074Z" fill="#FDFDFB"/>
<g opacity="0.3" filter="url(#filter0_f_9_3)">
<path d="M16.4591 13.8051C16.8135 14.0241 17.1315 14.2929 17.3985 14.5995C17.6463 14.8841 17.857 15.2067 18.1805 15.4175C18.4089 15.5662 18.6834 15.6501 18.9617 15.6756C19.2887 15.7055 19.6194 15.6571 19.9346 15.5718C20.2267 15.4926 20.509 15.3813 20.7681 15.2343C21.2606 14.9545 21.6722 14.5444 22.2142 14.3605C22.3327 14.3203 22.4562 14.2916 22.5705 14.2421C22.6848 14.1926 22.7922 14.1184 22.8469 14.0134C22.9004 13.9125 22.8972 13.7961 22.9144 13.6853C22.9326 13.5669 22.9737 13.4523 22.9962 13.3345C23.0187 13.2167 23.0214 13.0906 22.9662 12.9823C22.9204 12.8925 22.8371 12.8216 22.7413 12.7765C22.6454 12.7314 22.5377 12.711 22.4302 12.7061C22.2153 12.6962 22.003 12.747 21.7888 12.7651C21.505 12.789 21.2192 12.7552 20.9344 12.7631C20.58 12.773 20.2308 12.847 19.8767 12.8623C19.4727 12.8798 19.0697 12.821 18.6655 12.808C18.4907 12.8023 18.3147 12.8051 18.1423 12.833C17.97 12.8609 17.8008 12.9141 17.655 13.0033C17.5136 13.0898 17.3982 13.2072 17.2686 13.3081C17.2038 13.3587 17.1349 13.4053 17.0593 13.4408C16.9837 13.4764 16.9008 13.5005 16.8161 13.5043C16.7725 13.5063 16.7285 13.5028 16.6855 13.5089C16.6493 13.5145 16.6148 13.5266 16.5838 13.5446C16.5528 13.5626 16.5259 13.586 16.5048 13.6136C16.4837 13.6411 16.4687 13.6723 16.4607 13.7052C16.4527 13.7381 16.4519 13.7722 16.4583 13.8054L16.4591 13.8051Z" fill="black"/>
</g>
<path d="M17.3816 8.96734C17.1909 8.97773 17.0083 9.06589 16.8687 9.19625C16.7292 9.3266 16.6309 9.49745 16.5703 9.67869C16.4493 10.0412 16.4766 10.4341 16.5039 10.8141C16.5289 11.1592 16.5543 11.5109 16.6835 11.8319C16.7481 11.9923 16.8389 12.1425 16.9599 12.2672C17.0809 12.3919 17.2332 12.4859 17.401 12.5279C17.5584 12.5673 17.7264 12.5592 17.8812 12.5106C18.036 12.4619 18.1772 12.3735 18.2931 12.2601C18.4624 12.0946 18.5762 11.8782 18.6416 11.6507C18.7069 11.4231 18.7256 11.1845 18.7221 10.948C18.7178 10.6519 18.6793 10.3546 18.5865 10.0735C18.4938 9.79244 18.3459 9.52691 18.1395 9.3145C18.0396 9.21167 17.9255 9.12116 17.7968 9.05775C17.668 8.99434 17.5244 8.95867 17.3812 8.96638L17.3816 8.96734Z" fill="url(#paint0_radial_9_3)"/>
<path d="M20.7576 8.96735C20.4598 9.17086 20.2103 9.45739 20.0881 9.79748C19.9343 10.2262 19.9932 10.7058 20.1417 11.1364C20.2938 11.5774 20.5481 11.9976 20.9322 12.2624C21.1243 12.3948 21.3465 12.4855 21.5781 12.513C21.8097 12.5406 22.0505 12.5029 22.2572 12.3952C22.5092 12.2639 22.7015 12.0339 22.8208 11.7761C22.9402 11.5183 22.9911 11.233 23.007 10.9492C23.0284 10.5877 22.992 10.2202 22.8731 9.87803C22.744 9.50634 22.5089 9.16358 22.1798 8.94967C22.0148 8.84277 21.8271 8.76929 21.6324 8.74241C21.4377 8.71552 21.2356 8.73566 21.0523 8.80689C20.9478 8.84759 20.8502 8.90404 20.7577 8.96756L20.7576 8.96735Z" fill="url(#paint1_radial_9_3)"/>
<g opacity="0.3" filter="url(#filter1_f_9_3)">
<path d="M17.3182 12.0514L16.768 12.5532C16.6712 12.6507 16.5741 12.755 16.5308 12.8853C16.4922 13.0009 16.4995 13.1266 16.4804 13.2473C16.474 13.2886 16.4644 13.3298 16.4641 13.3716C16.4638 13.3925 16.4666 13.4134 16.4725 13.4335C16.4786 13.4535 16.4886 13.4723 16.503 13.4877C16.5268 13.5131 16.5607 13.5269 16.5947 13.5337C16.6288 13.5406 16.6638 13.5414 16.6984 13.5452C16.8544 13.562 16.9981 13.6376 17.1273 13.7267L17.5075 14.0036C17.8 14.1894 18.1495 14.272 18.4958 14.2851C18.8421 14.2983 19.1875 14.2455 19.5273 14.1775C19.7972 14.1235 20.0665 14.0597 20.3226 13.9585C20.715 13.8039 21.0685 13.5657 21.4064 13.3135C21.5599 13.1989 21.7112 13.0807 21.8491 12.9477C21.8959 12.9025 21.9412 12.8556 21.9913 12.8142C22.0415 12.7729 22.0972 12.7369 22.1591 12.717C22.2533 12.6867 22.3557 12.6953 22.4534 12.7116C22.527 12.7239 22.6008 12.7405 22.6754 12.7373C22.7126 12.7358 22.75 12.7294 22.7846 12.7155C22.8192 12.7016 22.8512 12.6801 22.8749 12.6512C22.9058 12.6125 22.9225 12.5645 22.9223 12.515C22.9225 12.4659 22.9073 12.4175 22.8826 12.3752C22.8328 12.2906 22.7468 12.2335 22.6572 12.1936C22.5344 12.139 22.4016 12.1122 22.2709 12.0805C21.8698 11.9837 21.4799 11.8406 21.1102 11.657C20.9264 11.5657 20.7477 11.4646 20.5669 11.3678C20.381 11.2682 20.1915 11.1724 19.9896 11.1112C19.5383 10.9744 19.0448 11.0193 18.5996 11.174C18.1047 11.3458 17.6573 11.6521 17.3178 12.0511L17.3182 12.0514Z" fill="black"/>
</g>
<g filter="url(#filter2_f_9_3)">
<path d="M21.9886 5.5919C21.714 5.78566 21.8339 6.02756 21.9521 6.27045C22.0702 6.51334 21.6924 7.21337 21.6883 7.24348C21.6842 7.27359 22.4319 6.88865 22.6357 6.63848C22.8763 6.34314 23.4844 7.03811 23.4515 6.93222C23.4517 6.74302 22.2633 5.39813 21.9887 5.5919H21.9886Z" fill="#7C7C7C"/>
</g>
<path d="M21.4444 9.86657C21.3325 9.8746 21.2233 9.91284 21.1284 9.97368C21.0335 10.0345 20.9524 10.1145 20.8888 10.2072C20.7617 10.3923 20.7056 10.6193 20.6968 10.8434C20.69 11.0118 20.7085 11.1825 20.7645 11.3415C20.8204 11.5006 20.9144 11.6479 21.0443 11.7553C21.1772 11.8653 21.346 11.9314 21.5183 11.9395C21.6907 11.9477 21.8654 11.8981 22.0068 11.7995C22.1196 11.721 22.2105 11.613 22.2753 11.4918C22.3401 11.3707 22.3792 11.2366 22.3969 11.1003C22.4284 10.8596 22.3928 10.6083 22.2815 10.3926C22.1702 10.1769 21.9816 9.99918 21.7538 9.9153C21.6552 9.87889 21.5492 9.86003 21.4444 9.86753V9.86657Z" fill="#020204"/>
<g filter="url(#filter3_f_9_3)">
<path d="M21.7115 10.6008C21.6188 10.6375 21.4719 10.6144 21.4313 10.7055C21.4072 10.7595 21.4413 10.8483 21.4959 10.8704C21.6065 10.9154 21.7778 10.834 21.8226 10.7232C21.8419 10.675 21.8127 10.5989 21.7648 10.5786C21.7471 10.5711 21.7294 10.5935 21.7116 10.6006L21.7115 10.6008Z" fill="#141413"/>
</g>
<g filter="url(#filter4_f_9_3)">
<path d="M22.1367 10.8418C22.2609 10.7176 22.0482 10.3877 21.8823 10.2527C21.7621 10.1549 21.412 10.0524 21.427 10.159C21.442 10.2656 21.5984 10.4017 21.705 10.5057C21.8348 10.6337 22.0778 10.901 22.1367 10.8418Z" fill="url(#paint2_linear_9_3)"/>
</g>
<g filter="url(#filter5_f_9_3)">
<path d="M21.7919 8.08504C21.7408 8.14931 21.6947 8.21915 21.658 8.29606C21.8879 8.34555 22.1079 8.44023 22.3039 8.57059C22.6836 8.82274 22.972 9.19143 23.1742 9.60156C23.2213 9.54929 23.2644 9.49317 23.3015 9.43083C23.0982 9.00365 22.804 8.61729 22.4111 8.35647C22.2224 8.23115 22.0121 8.13646 21.792 8.08547L21.7919 8.08504Z" fill="url(#paint3_linear_9_3)"/>
</g>
<g filter="url(#filter6_f_9_3)">
<path d="M17.3599 8.29446C17.334 8.29392 17.3089 8.29628 17.2828 8.29746L17.2325 8.30046C17.3838 8.31417 17.5343 8.35487 17.671 8.41614C17.8574 8.49969 18.0217 8.6189 18.1664 8.75462C18.4346 9.0058 18.634 9.3159 18.7689 9.64474C18.736 9.39625 18.6613 9.1551 18.5481 8.93146C18.4951 8.87041 18.4403 8.81042 18.3807 8.75473C18.2361 8.61912 18.0716 8.50001 17.8853 8.41625C17.7225 8.34309 17.5411 8.29756 17.3598 8.29435L17.3599 8.29446Z" fill="url(#paint4_linear_9_3)"/>
</g>
<path d="M16.9218 10.5473C16.882 10.7879 16.8805 11.0402 16.9632 11.2695C17.0167 11.421 17.1078 11.5584 17.2173 11.6766C17.289 11.7539 17.3702 11.8242 17.4653 11.8697C17.5605 11.9152 17.6706 11.9346 17.7728 11.909C17.867 11.8855 17.9497 11.8244 18.0106 11.7487C18.0714 11.6729 18.1121 11.5823 18.141 11.4895C18.2264 11.2152 18.2128 10.9151 18.1279 10.6407C18.0661 10.4407 17.9638 10.2478 17.8037 10.1129C17.7273 10.0487 17.6379 9.99832 17.5407 9.97508C17.4436 9.95183 17.3383 9.9574 17.2475 9.99864C17.1466 10.0445 17.0684 10.1318 17.0172 10.23C16.966 10.3282 16.9397 10.4378 16.9216 10.5471L16.9218 10.5473Z" fill="#020204"/>
<g filter="url(#filter7_f_9_3)">
<path d="M17.4304 10.3732C17.4564 10.4411 17.5433 10.4658 17.5911 10.5205C17.6375 10.5737 17.6861 10.6287 17.7116 10.6946C17.7603 10.8205 17.6634 11.0073 17.7652 11.0962C17.7971 11.1241 17.861 11.1247 17.8924 11.0962C18.0151 10.9846 17.9877 10.7595 17.9393 10.6008C17.8954 10.4569 17.7865 10.3206 17.6523 10.2522C17.5901 10.2206 17.4969 10.1943 17.4438 10.2393C17.4095 10.2682 17.4145 10.3314 17.4304 10.3732V10.3732Z" fill="url(#paint5_linear_9_3)"/>
</g>
<path d="M16.4733 13.5379C16.4797 13.5695 16.4918 13.6 16.5083 13.6279C16.5368 13.6755 16.5784 13.7142 16.6232 13.7468C16.6681 13.7793 16.7168 13.8068 16.7638 13.8362C17.0138 13.9933 17.2174 14.2143 17.3984 14.4475C17.6413 14.7605 17.856 15.1079 18.1804 15.3355C18.4094 15.4962 18.6834 15.5877 18.9616 15.6157C19.2883 15.6486 19.6193 15.5958 19.9345 15.503C20.2265 15.417 20.5089 15.2963 20.768 15.1367C21.2607 14.8329 21.6721 14.3876 22.2141 14.188C22.3326 14.1444 22.4561 14.1132 22.5703 14.0594C22.6845 14.0057 22.792 13.9251 22.8467 13.8111C22.9002 13.7017 22.897 13.5753 22.9142 13.455C22.9324 13.3265 22.9735 13.202 22.996 13.0741C23.0185 12.9462 23.0212 12.8093 22.966 12.6917C22.9202 12.5942 22.8369 12.5173 22.7411 12.4684C22.6452 12.4194 22.5375 12.3972 22.43 12.3919C22.2151 12.3812 22.0028 12.4363 21.7886 12.4559C21.5048 12.4819 21.219 12.4454 20.9342 12.4538C20.5798 12.4645 20.2306 12.5443 19.8765 12.5614C19.4725 12.581 19.0694 12.5186 18.6653 12.5025C18.4902 12.4955 18.3139 12.4972 18.1413 12.5266C17.9686 12.5561 17.799 12.6149 17.655 12.7144C17.5146 12.8115 17.4026 12.9436 17.2736 13.0555C17.2092 13.1114 17.1397 13.1626 17.0631 13.1997C16.9864 13.2369 16.9016 13.2602 16.8163 13.2583C16.7734 13.2573 16.7274 13.2501 16.6856 13.2634C16.6594 13.2716 16.6363 13.2877 16.6166 13.3069C16.5969 13.326 16.5807 13.3483 16.5654 13.3711C16.5298 13.424 16.4987 13.4799 16.4725 13.538L16.4733 13.5379Z" fill="url(#paint6_radial_9_3)"/>
<g filter="url(#filter8_f_9_3)">
<path d="M18.0591 13.9733C18.0191 14.1462 18.0445 14.3278 18.1304 14.483C18.2164 14.6382 18.3568 14.7561 18.5246 14.8138C18.7365 14.8845 18.9752 14.8498 19.1732 14.7466C19.2878 14.6866 19.3928 14.6024 19.4592 14.4912C19.4928 14.4356 19.5148 14.3738 19.524 14.3096C19.5326 14.2453 19.5267 14.1789 19.5042 14.1184C19.4795 14.0519 19.4356 13.9932 19.3814 13.9474C19.3272 13.9016 19.2631 13.8684 19.1958 13.8461C19.061 13.8015 18.9162 13.8007 18.7744 13.8075C18.5595 13.8178 18.3458 13.8448 18.135 13.8882" fill="#D9B30D"/>
</g>
<g filter="url(#filter9_f_9_3)">
<path d="M17.3639 12.6433L16.9463 12.9178C16.8759 12.9677 16.8034 13.0217 16.7664 13.0995C16.74 13.1546 16.734 13.2173 16.7342 13.2784C16.7344 13.3394 16.7374 13.4009 16.7293 13.4605C16.724 13.5018 16.7128 13.5425 16.7109 13.5842C16.7098 13.6051 16.7114 13.626 16.7169 13.6463C16.7221 13.6666 16.7322 13.6853 16.7463 13.7008C16.7649 13.7204 16.79 13.7325 16.816 13.7405C16.8419 13.7484 16.8684 13.7522 16.8948 13.7587C17.0207 13.7882 17.1301 13.8655 17.2262 13.9519L17.509 14.2171C17.7807 14.4382 18.141 14.5299 18.4902 14.5356C18.8393 14.5412 19.1868 14.4681 19.5286 14.391L20.3239 14.172C20.7206 14.0258 21.0887 13.8044 21.4077 13.527C21.5523 13.4012 21.688 13.263 21.8504 13.1612C21.994 13.071 22.155 13.0114 22.3009 12.9252C22.314 12.9175 22.327 12.9096 22.3387 12.8998C22.3503 12.8901 22.3607 12.8786 22.3676 12.865C22.3794 12.8414 22.3794 12.8136 22.3719 12.7883C22.3644 12.763 22.3498 12.7408 22.3333 12.7204C22.3151 12.6979 22.2944 12.6774 22.2722 12.6585C22.1197 12.5278 21.9127 12.4805 21.7125 12.4646C21.5123 12.4488 21.3097 12.46 21.1126 12.4269C20.9262 12.3948 20.7492 12.3262 20.5693 12.2687C20.3807 12.2077 20.1877 12.1608 19.9921 12.1284C19.5321 12.0534 19.0584 12.0678 18.6021 12.1627C18.1674 12.2532 17.7484 12.4165 17.366 12.6425L17.3639 12.6433Z" fill="#604405"/>
</g>
<path d="M17.3182 12.1585C17.1115 12.2977 16.9255 12.4673 16.7681 12.6603C16.6781 12.7706 16.5962 12.8906 16.5509 13.0258C16.5153 13.132 16.5032 13.2445 16.4807 13.3543C16.4721 13.3954 16.4625 13.4368 16.4625 13.4786C16.4626 13.4996 16.4652 13.5207 16.4717 13.5407C16.4781 13.5607 16.4886 13.5795 16.5032 13.5946C16.5273 13.6196 16.561 13.6331 16.5951 13.6402C16.6291 13.6473 16.6641 13.6482 16.6985 13.6522C16.8544 13.6699 16.9978 13.7456 17.127 13.8345L17.5077 14.1106C17.8005 14.2959 18.1498 14.3782 18.496 14.3916C18.8422 14.405 19.1877 14.3524 19.5275 14.2845C19.7975 14.2306 20.0667 14.1667 20.3229 14.0655C20.7151 13.9109 21.0688 13.6728 21.4066 13.4205C21.5601 13.3059 21.7115 13.1877 21.8493 13.0547C21.8961 13.0095 21.9415 12.9626 21.9916 12.9212C22.0417 12.8799 22.0974 12.8439 22.1593 12.824C22.2536 12.7937 22.356 12.8024 22.4537 12.8186C22.5273 12.831 22.6011 12.8476 22.6756 12.8443C22.7129 12.8428 22.7503 12.8364 22.7849 12.8225C22.8195 12.8086 22.8515 12.7871 22.8752 12.7582C22.9061 12.7196 22.9228 12.6715 22.9225 12.622C22.9227 12.5729 22.9075 12.5245 22.8829 12.4822C22.8331 12.3976 22.7471 12.3405 22.6574 12.3006C22.5346 12.246 22.4018 12.2192 22.2711 12.1875C21.87 12.0907 21.4801 11.9476 21.1105 11.764C20.9267 11.6727 20.748 11.5716 20.5672 11.4748C20.3812 11.3752 20.1917 11.2794 19.9898 11.2182C19.5386 11.0815 19.0451 11.1263 18.5998 11.281C18.1049 11.4528 17.6575 11.7591 17.3181 12.1581L17.3182 12.1585Z" fill="url(#paint7_linear_9_3)"/>
<g filter="url(#filter10_f_9_3)">
<path d="M20.4887 12.2577C20.4645 12.227 20.4298 12.2054 20.3923 12.1945C20.3548 12.1836 20.3147 12.1838 20.2762 12.1891C20.1991 12.2023 20.1301 12.2427 20.0656 12.2882C19.8825 12.4142 19.7207 12.5697 19.5797 12.7413C19.3928 12.9684 19.2385 13.231 19.1868 13.5205C19.1782 13.5693 19.1723 13.6191 19.1784 13.6684C19.1845 13.7176 19.2034 13.7664 19.2384 13.8015C19.269 13.8324 19.3108 13.8512 19.3539 13.8574C19.3969 13.8636 19.4413 13.8576 19.4824 13.8437C19.5649 13.8159 19.6334 13.758 19.6981 13.7002C20.0555 13.3804 20.3786 12.9967 20.5079 12.5348C20.5208 12.4884 20.5319 12.4409 20.5315 12.3929C20.5311 12.3448 20.5186 12.2954 20.4888 12.2577H20.4887Z" fill="#F6DA4A"/>
</g>
<g opacity="0.8" filter="url(#filter11_f_9_3)">
<path d="M19.6329 11.5957C19.6576 11.6752 19.7859 11.6621 19.86 11.7002C19.925 11.7336 19.9772 11.8069 20.0504 11.8091C20.12 11.8112 20.2286 11.785 20.2378 11.7159C20.2498 11.6245 20.1163 11.5665 20.0305 11.5329C19.9202 11.4899 19.7785 11.468 19.6749 11.5257C19.6511 11.5388 19.6252 11.5698 19.6334 11.5958L19.6329 11.5957Z" fill="url(#paint8_radial_9_3)"/>
</g>
<g opacity="0.8" filter="url(#filter12_f_9_3)">
<path d="M18.4094 11.5497C18.3143 11.5186 18.1569 11.6864 18.2082 11.7724C18.2224 11.796 18.2655 11.826 18.2946 11.8099C18.3385 11.7858 18.3742 11.6996 18.4217 11.6659C18.4534 11.6434 18.4463 11.5618 18.4093 11.5498L18.4094 11.5497Z" fill="url(#paint9_radial_9_3)"/>
</g>
<g filter="url(#filter13_f_9_3)">
<path d="M22.6037 13.1823C22.7727 13.1823 22.9288 13.0129 22.9522 12.8038C22.9756 12.5947 22.8576 12.4252 22.6886 12.4252C22.5195 12.4252 22.3635 12.5947 22.3401 12.8038C22.3166 13.0129 22.4347 13.1823 22.6037 13.1823Z" fill="url(#paint10_linear_9_3)"/>
</g>
<path d="M27.115 20.0095C27.7668 20.5338 28.1804 21.3255 28.3083 22.1521C28.4081 22.7969 28.3432 23.4584 28.1979 24.0943C28.0527 24.7302 27.8282 25.345 27.6054 25.9581C27.5165 26.2026 27.4274 26.4494 27.392 26.7071C27.3567 26.9649 27.3792 27.2378 27.5034 27.4664C27.6459 27.7284 27.9118 27.9087 28.1977 27.9937C28.48 28.0776 28.7847 28.0757 29.0705 28.0046C29.3563 27.9335 29.6229 27.7943 29.8554 27.6136C30.4463 27.1549 30.8027 26.4407 30.9407 25.7057C31.0787 24.9707 31.0153 24.2115 30.8871 23.4745C30.7122 22.4698 30.4178 21.4876 30.0431 20.5388C29.7675 19.8409 29.445 19.1549 28.9944 18.555C28.5535 17.968 27.9975 17.4739 27.5655 16.8803C27.2653 16.4679 27.0248 16.0073 26.6651 15.6457C26.4852 15.4649 26.2752 15.3102 26.0375 15.2178C25.7997 15.1253 25.5326 15.0982 25.2871 15.1674C24.9636 15.2585 24.698 15.5134 24.5584 15.8189C24.4189 16.1244 24.3931 16.4748 24.4479 16.8065C24.5186 17.2344 24.7142 17.6316 24.9348 18.0051C25.1841 18.4268 25.4727 18.8328 25.8491 19.1463C26.2419 19.4735 26.717 19.6893 27.1152 20.0096L27.115 20.0095Z" fill="#020204"/>
<g opacity="0.25" filter="url(#filter14_f_9_3)">
<path d="M15.4198 18.5252C15.5286 18.6885 15.3521 19.2513 17.8882 18.891C17.8882 18.891 17.4428 18.94 17.0037 19.0414C16.3212 19.2699 15.7265 19.5253 15.2678 19.8635C14.8133 20.1979 14.4806 20.6344 14.0635 21.0093C14.0635 21.0093 14.7389 19.7754 14.9071 19.404C15.0754 19.0326 14.879 19.0505 15.0122 18.5027C15.1455 17.955 15.4713 17.4309 15.4713 17.4309C15.4713 17.4309 15.2052 18.2031 15.4198 18.5251V18.5252Z" fill="url(#paint11_radial_9_3)"/>
</g>
<g opacity="0.42" filter="url(#filter15_f_9_3)">
<path d="M23.5747 18.378C23.0579 18.7379 22.7551 18.6953 22.1279 18.7657C21.5008 18.8361 19.8038 18.8107 19.8038 18.8107C19.8038 18.8107 20.0495 18.8061 20.5941 18.9075C21.1386 19.009 22.2493 19.1059 22.8747 19.344C23.5002 19.5821 23.7282 19.65 24.1084 19.8903C24.6493 20.2324 25.0465 20.7683 25.5637 21.1432C25.5637 21.1432 25.5888 20.6458 25.3799 20.2743C25.171 19.9028 24.6087 19.3172 24.4446 18.7704C24.2805 18.2236 24.201 17.1496 24.201 17.1496C24.201 17.1496 24.0918 18.0177 23.5748 18.3777L23.5747 18.378Z" fill="url(#paint12_radial_9_3)"/>
</g>
<g opacity="0.2" filter="url(#filter16_f_9_3)">
<path d="M18.7139 17.6091L18.6392 18.0744C18.6242 18.1504 18.6076 18.2265 18.5792 18.2986C18.5508 18.3707 18.5102 18.4391 18.4528 18.491C18.4025 18.5364 18.341 18.5677 18.2793 18.5959C18.0385 18.7063 17.7808 18.7794 17.5179 18.8123L17.8323 18.841C17.8982 18.8482 17.9643 18.8562 18.0286 18.8727C18.0928 18.8892 18.1555 18.9156 18.2089 18.9536C18.2676 18.9964 18.3137 19.0551 18.3482 19.1192C18.4167 19.2469 18.4397 19.3937 18.4524 19.5369C18.4685 19.7215 18.4698 19.9075 18.4559 20.0922C18.4684 19.9686 18.4943 19.8463 18.5331 19.7282C18.603 19.5155 18.7156 19.3161 18.8673 19.1513C18.9275 19.086 18.9937 19.026 19.0665 18.9748C19.2922 18.8173 19.5687 18.7501 19.8416 18.7862C19.5648 18.7974 19.2927 18.713 19.071 18.547C18.9594 18.4629 18.8621 18.3581 18.7946 18.2358C18.6898 18.0441 18.6611 17.82 18.7142 17.608L18.7139 17.6091Z" fill="url(#paint13_radial_9_3)"/>
</g>
<g opacity="0.1" filter="url(#filter17_f_9_3)">
<path d="M18.053 21.2552C17.9212 21.7568 17.8307 22.2682 17.7824 22.7845C17.7142 23.5142 17.7306 24.249 17.6914 24.9809C17.6592 25.6019 17.5853 26.2294 17.6931 26.8419C17.7445 27.134 17.8369 27.4187 17.9668 27.6854C17.9874 27.5836 18.0025 27.4808 18.012 27.3773C18.0577 26.8808 17.9741 26.3826 17.9458 25.8847C17.8963 25.0121 18.0171 24.1388 18.0663 23.2671C18.104 22.5969 18.0996 21.925 18.0529 21.2554L18.053 21.2552Z" fill="black"/>
</g>
<path d="M33.6387 31.4092C33.5669 31.5935 33.4644 31.7656 33.3371 31.9167C33.056 32.2504 32.6657 32.4705 32.2771 32.6687C31.614 33.0065 30.9272 33.303 30.304 33.7095C29.8865 33.9818 29.5011 34.3015 29.1408 34.6459C28.8326 34.9405 28.5403 35.255 28.1947 35.5047C27.846 35.7564 27.4428 35.939 27.0175 36.0028C26.5002 36.0805 25.9657 35.98 25.4858 35.771C25.1497 35.6246 24.8264 35.4151 24.6329 35.1037C24.4386 34.7911 24.3942 34.4087 24.3937 34.0407C24.3928 33.3898 24.5134 32.7446 24.627 32.1048C24.7212 31.5723 24.8112 31.0385 24.8691 30.5008C24.9743 29.5228 24.9736 28.5349 24.9033 27.5538C24.8926 27.3894 24.8778 27.2235 24.9025 27.0606C24.9271 26.8977 24.9941 26.7353 25.1188 26.6279C25.2342 26.5286 25.3888 26.4848 25.5409 26.4764C25.693 26.4681 25.8444 26.4922 25.995 26.5141C26.3499 26.566 26.7076 26.6068 27.0544 26.698C27.2732 26.7556 27.4864 26.833 27.7048 26.8919C28.0693 26.9905 28.4509 27.0376 28.826 26.9939C29.2298 26.9467 29.6218 26.795 30.0282 26.8048C30.195 26.8089 30.3603 26.8404 30.5194 26.8905C30.6817 26.9417 30.8418 27.015 30.9611 27.1363C31.0517 27.2285 31.1149 27.3447 31.1624 27.4652C31.2331 27.6445 31.2711 27.8355 31.2874 28.0275C31.3019 28.1976 31.2995 28.3697 31.3318 28.5374C31.3848 28.8132 31.5296 29.0647 31.7097 29.2802C31.8897 29.4957 32.106 29.6787 32.3198 29.8595C32.534 30.0395 32.7493 30.2189 32.9804 30.3766C33.0888 30.4508 33.2006 30.5202 33.3035 30.6016C33.4065 30.683 33.5012 30.778 33.5654 30.8924C33.6527 31.0477 33.6794 31.236 33.6386 31.4093L33.6387 31.4092Z" fill="url(#paint14_linear_9_3)"/>
<g filter="url(#filter18_f_9_3)">
<path d="M33.3049 31.0716C33.2386 31.2377 33.1456 31.3918 33.0295 31.5279C32.7722 31.8293 32.4158 32.0264 32.0614 32.2038C31.4559 32.5069 30.8293 32.7734 30.2598 33.1394C29.8791 33.3841 29.5271 33.6714 29.1974 33.9814C28.9157 34.2462 28.6485 34.5293 28.3334 34.7534C28.0142 34.9805 27.646 35.1441 27.2583 35.2012C26.786 35.2708 26.2986 35.1805 25.8596 34.9927C25.5536 34.8618 25.258 34.6746 25.0807 34.3929C24.9044 34.1126 24.8633 33.7684 24.8622 33.4372C24.8608 32.8518 24.9712 32.2729 25.0754 31.6968C25.1618 31.218 25.2441 30.7384 25.2964 30.2547C25.3918 29.3756 25.3873 28.4876 25.3277 27.6053C25.3177 27.4575 25.3063 27.3081 25.329 27.1618C25.3517 27.0155 25.4123 26.8697 25.5246 26.773C25.6299 26.6823 25.7713 26.6425 25.9102 26.6353C26.0491 26.628 26.1873 26.6505 26.3247 26.6706C26.6485 26.7183 26.9751 26.7542 27.292 26.8359C27.4917 26.8875 27.6866 26.9571 27.8859 27.0103C28.219 27.0992 28.5674 27.1415 28.9099 27.102C29.2784 27.0594 29.6369 26.9231 30.0078 26.932C30.1599 26.9357 30.311 26.9641 30.4567 27.0091C30.6047 27.0547 30.7512 27.1198 30.8599 27.2301C30.942 27.3131 30.9986 27.4179 31.0437 27.5257C31.1108 27.686 31.1544 27.8574 31.1579 28.0313C31.1617 28.2127 31.1219 28.3949 31.1466 28.5747C31.1665 28.7207 31.2283 28.8583 31.3072 28.9828C31.3862 29.1072 31.4823 29.2195 31.5775 29.332C31.7614 29.5494 31.946 29.7708 32.1766 29.9377C32.4392 30.1277 32.7509 30.2387 33.0222 30.4162C33.1031 30.4691 33.1814 30.5289 33.2384 30.6068C33.286 30.6733 33.3169 30.7502 33.3285 30.8311C33.3401 30.9119 33.3322 30.9944 33.3052 31.0716H33.3049Z" fill="#CD8907"/>
</g>
<g filter="url(#filter19_f_9_3)">
<path d="M32.7752 31.3827C32.7059 31.5321 32.6162 31.6714 32.5094 31.795C32.2616 32.0819 31.927 32.2794 31.5745 32.4061C30.9942 32.6149 30.3607 32.6429 29.7911 32.8806C29.444 33.0254 29.1317 33.2437 28.8152 33.4501C28.5595 33.6166 28.2982 33.7773 28.0174 33.8938C27.7003 34.0256 27.363 34.0994 27.0246 34.1514C26.8094 34.1845 26.5915 34.2086 26.3741 34.1971C26.1567 34.1857 25.9386 34.1372 25.7469 34.0317C25.6014 33.9516 25.4706 33.8364 25.3928 33.6869C25.3065 33.5208 25.2916 33.3259 25.2936 33.1376C25.2989 32.6359 25.4117 32.1397 25.4083 31.638C25.4053 31.2013 25.3145 30.7702 25.2883 30.3344C25.2381 29.4961 25.427 28.6433 25.2607 27.821C25.2343 27.6894 25.1983 27.5579 25.2001 27.4234C25.201 27.3561 25.2116 27.2887 25.2363 27.2264C25.2611 27.1642 25.3011 27.1077 25.3543 27.0684C25.3992 27.0353 25.4521 27.0152 25.5066 27.0061C25.561 26.997 25.6167 26.9988 25.6714 27.0069C25.7805 27.0231 25.8845 27.0639 25.9907 27.094C26.2948 27.1803 26.616 27.1784 26.9249 27.2435C27.1189 27.2843 27.3067 27.351 27.4985 27.4011C27.8208 27.4838 28.1569 27.5208 28.4874 27.4838C28.843 27.4442 29.1903 27.3213 29.5477 27.3302C29.6942 27.3337 29.8397 27.3597 29.9811 27.3999C30.1224 27.4401 30.2636 27.4968 30.3705 27.5996C30.4476 27.6738 30.5029 27.7685 30.548 27.8666C30.6136 28.0098 30.6593 28.1655 30.6582 28.3236C30.6577 28.4059 30.6444 28.4876 30.6367 28.5693C30.629 28.6511 30.6266 28.7352 30.6471 28.8147C30.6676 28.8942 30.7108 28.9668 30.7602 29.0321C30.8096 29.0975 30.8655 29.1574 30.9165 29.2214C31.0594 29.4006 31.1616 29.6095 31.2729 29.811C31.3842 30.0124 31.5091 30.2118 31.685 30.3568C31.9244 30.5543 32.2349 30.6333 32.5016 30.7892C32.5799 30.835 32.6555 30.8885 32.7104 30.9617C32.7545 31.0207 32.7834 31.09 32.7947 31.1634C32.806 31.2368 32.7992 31.3119 32.775 31.3819L32.7752 31.3827Z" fill="#F5C021"/>
</g>
<g filter="url(#filter20_f_9_3)">
<path d="M25.2093 26.9933C25.5602 26.8983 25.859 27.1644 26.1135 27.3652C26.2779 27.5056 26.5155 27.4702 26.7173 27.4769C27.0515 27.4648 27.3841 27.5329 27.7185 27.4914C28.3767 27.4357 29.0219 27.274 29.6832 27.2451C29.9992 27.2251 30.3537 27.2068 30.6267 27.3913C30.7373 27.468 30.8995 27.7919 31.0086 27.6703C30.9636 27.3299 30.7112 27.0002 30.3724 26.9096C30.1073 26.8678 29.8368 26.9406 29.5701 26.9171C28.775 26.8981 27.9856 26.7505 27.1885 26.7928C26.6341 26.7976 26.0802 26.7719 25.5266 26.7503C25.3092 26.7059 25.2324 26.8992 25.1143 26.9731" fill="url(#paint15_linear_9_3)"/>
</g>
<g opacity="0.75" filter="url(#filter21_f_9_3)">
<path d="M26.7825 20.5208C26.9097 20.5011 27.6948 21.1686 27.5875 21.4176C27.4801 21.6666 27.2785 21.5161 27.1342 21.5178C26.99 21.5194 26.5954 21.6985 26.5293 21.5855C26.4632 21.4725 26.7038 21.2085 26.8298 20.9879C26.9312 20.8103 26.6552 20.5417 26.7825 20.522L26.7825 20.5208Z" fill="#7C7C7C"/>
</g>
<g opacity="0.25" filter="url(#filter22_f_9_3)">
<path d="M15.7044 16.3198C15.6917 16.166 15.4721 16.143 15.3742 16.2196C15.2915 16.2845 15.2139 16.5057 15.2852 16.5923C15.4012 16.7326 15.7217 16.5308 15.7044 16.32L15.7044 16.3198Z" fill="#7C7C7C"/>
</g>
<g opacity="0.35" filter="url(#filter23_f_9_3)">
<path d="M29.941 27.5278C29.8806 27.4098 29.771 27.3215 29.6485 27.2705C29.5261 27.2194 29.3918 27.203 29.2593 27.204C28.9942 27.2062 28.7307 27.2752 28.4666 27.2522C28.2435 27.233 28.0318 27.1491 27.8132 27.0962C27.5886 27.0426 27.3503 27.0212 27.1272 27.0809C26.8887 27.1458 26.6784 27.3052 26.5466 27.5141C26.4305 27.6984 26.3752 27.9161 26.3581 28.1333C26.341 28.3504 26.3595 28.5688 26.3814 28.7856C26.3973 28.9424 26.4151 29.0994 26.453 29.2526C26.4909 29.4058 26.5498 29.555 26.6422 29.6827C26.775 29.8665 26.9724 29.9976 27.1852 30.0763C27.5368 30.2048 27.9236 30.198 28.2705 30.0573C28.8768 29.7942 29.3899 29.3221 29.7026 28.7398C29.8146 28.5314 29.9015 28.3092 29.9578 28.0795C29.98 27.9881 29.9976 27.895 29.9985 27.801C29.9993 27.7069 29.9827 27.6114 29.94 27.5278H29.941Z" fill="url(#paint16_radial_9_3)"/>
</g>
<g opacity="0.35" filter="url(#filter24_f_9_3)">
<path d="M29.941 27.404C29.8806 27.3187 29.771 27.2549 29.6485 27.2179C29.5261 27.181 29.3918 27.1692 29.2593 27.1699C28.9942 27.1715 28.7307 27.2214 28.4666 27.2048C28.2435 27.1908 28.0318 27.1302 27.8132 27.092C27.5886 27.0532 27.3503 27.0378 27.1272 27.0809C26.8887 27.1278 26.6784 27.243 26.5466 27.3941C26.4305 27.5273 26.3752 27.6847 26.3581 27.8417C26.341 27.9986 26.3595 28.1565 26.3814 28.3133C26.3973 28.4266 26.4151 28.5402 26.453 28.6509C26.4909 28.7616 26.5498 28.8695 26.6422 28.9618C26.775 29.0947 26.9724 29.1895 27.1852 29.2464C27.5368 29.3393 27.9236 29.3344 28.2705 29.2327C28.8768 29.0424 29.3899 28.7011 29.7026 28.2802C29.8146 28.1295 29.9015 27.9689 29.9578 27.8028C29.98 27.7368 29.9976 27.6695 29.9985 27.6015C29.9993 27.5335 29.9827 27.4644 29.94 27.404H29.941Z" fill="url(#paint17_radial_9_3)"/>
</g>
<path d="M30.4448 26.4233C30.4014 26.305 30.3251 26.2003 30.2317 26.1159C30.1383 26.0315 30.0281 25.9668 29.9121 25.9175C29.6802 25.8189 29.428 25.7825 29.1803 25.7358L28.4811 25.599C28.238 25.5577 27.9864 25.5313 27.7458 25.5857C27.5352 25.6331 27.3404 25.742 27.1811 25.8877C27.0217 26.0334 26.8972 26.2151 26.8078 26.4126C26.6501 26.7586 26.6005 27.1479 26.6306 27.5269C26.6531 27.8089 26.7243 28.0995 26.9102 28.3131C27.0601 28.4856 27.273 28.5932 27.4922 28.658C27.8698 28.7697 28.2813 28.7638 28.6555 28.6414C29.2777 28.4311 29.8158 28.0263 30.1904 27.4868C30.3125 27.3101 30.4166 27.1175 30.4639 26.9081C30.4999 26.7474 30.5012 26.5782 30.4448 26.4245V26.4233Z" fill="#020204"/>
<g filter="url(#filter25_f_9_3)">
<path d="M27.8775 25.473C27.8191 25.4761 27.761 25.4829 27.7034 25.4931C27.3317 25.5592 26.9914 25.7941 26.7997 26.1191C26.6644 26.3508 26.6025 26.618 26.6223 26.8856C26.6301 26.699 26.6791 26.5164 26.7696 26.3532C26.9232 26.0767 27.2015 25.868 27.5128 25.811C27.7056 25.7759 27.9018 25.7971 28.0952 25.8211C28.2809 25.8442 28.468 25.8685 28.651 25.9082C28.9337 25.9694 29.2137 26.0635 29.4511 26.2295C29.5064 26.2681 29.5582 26.312 29.6017 26.3634C29.6452 26.4148 29.679 26.4746 29.6921 26.5408C29.7112 26.6376 29.6835 26.7393 29.6353 26.8253C29.5871 26.9113 29.5213 26.9867 29.4511 27.0562C29.3943 27.1126 29.3338 27.167 29.2737 27.2201C29.5479 27.167 29.8256 27.0918 30.0535 26.9323C30.1499 26.8648 30.2372 26.7839 30.2945 26.6812C30.3518 26.5785 30.3761 26.4541 30.3481 26.3398C30.3291 26.2627 30.287 26.1918 30.2343 26.1324C30.1816 26.0729 30.1186 26.024 30.0536 25.9784C29.7665 25.7774 29.4307 25.6485 29.0829 25.6068C28.8601 25.5657 28.6352 25.5311 28.4103 25.5028C28.2343 25.4808 28.0546 25.4629 27.8779 25.4729L27.8775 25.473Z" fill="url(#paint18_radial_9_3)"/>
</g>
<path d="M15.6963 15.6152L13.8837 17.8845C13.5053 18.3536 13.1178 18.8264 12.8715 19.3766C12.6598 19.8493 12.5598 20.3628 12.4146 20.8601C12.2499 21.4248 12.0262 21.9709 11.7752 22.5028C11.5433 22.9939 11.2878 23.4736 11.0318 23.9527C10.8456 24.3012 10.6564 24.6575 10.5918 25.0474C10.5408 25.3555 10.5704 25.6734 10.649 25.9757C10.7276 26.2779 10.8525 26.5659 10.9958 26.8439C11.6028 28.0302 12.5136 29.0528 13.5925 29.8351C14.082 30.1901 14.6065 30.497 15.1565 30.7483C15.4545 30.8844 15.7686 31.0058 16.0962 31.0115C16.26 31.0143 16.4254 30.9874 16.5754 30.9215C16.7253 30.8557 16.8592 30.7497 16.9485 30.6123C17.058 30.4433 17.0952 30.2333 17.0732 30.0331C17.0513 29.8329 16.9731 29.6418 16.8683 29.4697C16.6113 29.0495 16.208 28.7456 15.819 28.4443C14.9793 27.7937 14.1668 27.1075 13.3895 26.3834C13.1699 26.1788 12.9505 25.968 12.7971 25.7103C12.6478 25.4593 12.5671 25.1733 12.5124 24.8863C12.3625 24.099 12.401 23.2707 12.6688 22.5155C12.7736 22.2201 12.912 21.938 13.0457 21.6544C13.277 21.1627 13.4963 20.6618 13.8008 20.2118C14.1798 19.6516 14.6863 19.1771 14.9951 18.5754C15.2558 18.0676 15.3615 17.4965 15.4624 16.9346L15.6963 15.6152V15.6152Z" fill="#020204"/>
<path d="M11.3131 25.9618C11.4844 25.8908 11.677 25.8779 11.8593 25.9115C12.0416 25.9451 12.2139 26.024 12.3674 26.1281C12.6742 26.3365 12.9017 26.6399 13.1196 26.94C13.6201 27.6292 14.1019 28.3327 14.5384 29.0641C14.8925 29.6573 15.2179 30.2699 15.6271 30.8264C15.8942 31.1898 16.1955 31.5269 16.464 31.8892C16.7324 32.2515 16.9704 32.645 17.0895 33.08C17.2442 33.6452 17.1843 34.2682 16.9152 34.7888C16.726 35.1551 16.4358 35.4692 16.0827 35.6821C15.7297 35.8951 15.3147 36.005 14.9028 35.9895C14.2479 35.9649 13.6495 35.6377 13.0407 35.395C11.8003 34.901 10.4528 34.7459 9.1742 34.3612C8.78109 34.2429 8.39484 34.103 7.99916 33.9942C7.82349 33.946 7.64461 33.9034 7.47859 33.8282C7.31256 33.753 7.15724 33.6407 7.06491 33.4836C6.99357 33.3621 6.96337 33.219 6.9653 33.0781C6.96722 32.9371 7.00022 32.798 7.0482 32.6655C7.14418 32.4005 7.29917 32.1605 7.40382 31.8988C7.57467 31.4715 7.60541 31.0004 7.58238 30.5406C7.55935 30.0809 7.48491 29.6254 7.45331 29.1664C7.43938 28.9614 7.43403 28.7537 7.47312 28.552C7.51222 28.3503 7.59909 28.153 7.74712 28.0105C7.88359 27.8791 8.06471 27.8011 8.25013 27.7623C8.43554 27.7235 8.62663 27.7219 8.81612 27.7261C9.0056 27.7303 9.1953 27.7405 9.38425 27.725C9.5732 27.7096 9.76269 27.6672 9.92732 27.5732C10.0837 27.4838 10.2116 27.3509 10.3176 27.2053C10.4237 27.0598 10.5094 26.9005 10.5972 26.7432C10.685 26.586 10.7759 26.4292 10.8909 26.2906C11.006 26.152 11.1469 26.031 11.3133 25.9621L11.3131 25.9618Z" fill="url(#paint19_linear_9_3)"/>
<g filter="url(#filter26_f_9_3)">
<path d="M11.5833 26.2575C11.7391 26.1947 11.9147 26.1879 12.0785 26.2249C12.2423 26.262 12.3945 26.3427 12.5271 26.4442C12.7925 26.6492 12.977 26.9384 13.1541 27.2229C13.5794 27.912 13.995 28.6083 14.3876 29.3188C14.6851 29.8536 14.9687 30.3999 15.3342 30.8912C15.5767 31.2171 15.8534 31.5157 16.1009 31.8378C16.3485 32.1599 16.569 32.5107 16.6786 32.9018C16.8196 33.4058 16.7625 33.9622 16.5185 34.4263C16.3418 34.761 16.0752 35.0397 15.7487 35.2311C15.4214 35.4213 15.0465 35.5138 14.6683 35.4976C14.0687 35.4699 13.5211 35.1704 12.9566 34.9673C11.8744 34.5747 10.7015 34.522 9.59151 34.2154C9.19358 34.1074 8.80561 33.9634 8.40575 33.8626C8.2288 33.8179 8.04874 33.7815 7.88068 33.7105C7.71262 33.6394 7.5543 33.5294 7.46315 33.3714C7.39535 33.2539 7.36825 33.1157 7.37242 32.9801C7.3766 32.8444 7.41099 32.7123 7.45812 32.5844C7.55473 32.3308 7.70662 32.1024 7.80409 31.848C7.95191 31.4651 7.97012 31.0442 7.9427 30.6348C7.91528 30.2254 7.84415 29.8197 7.8192 29.4101C7.80806 29.2269 7.80634 29.0416 7.8434 28.8621C7.88047 28.6825 7.95866 28.5086 8.08923 28.3788C8.23062 28.2384 8.42557 28.162 8.62234 28.132C8.81911 28.102 9.0193 28.115 9.21736 28.1327C9.41541 28.1504 9.61421 28.1727 9.81291 28.1608C10.0116 28.1489 10.2131 28.1005 10.3774 27.9886C10.527 27.8874 10.6394 27.7397 10.7249 27.5818C10.8104 27.4239 10.8714 27.2546 10.9365 27.0873C11.0017 26.92 11.0722 26.7529 11.1745 26.6053C11.2768 26.4577 11.414 26.3262 11.5822 26.2588" fill="#D99A03"/>
</g>
<g filter="url(#filter27_f_9_3)">
<path d="M11.2024 26.27C11.3477 26.1987 11.5189 26.184 11.6783 26.2162C11.8377 26.2483 11.9853 26.3254 12.1109 26.4261C12.362 26.6264 12.5213 26.9144 12.6698 27.1958C13.0105 27.8423 13.3279 28.5029 13.7357 29.1116C14.0316 29.5523 14.3729 29.9647 14.6721 30.4041C15.0779 31.0001 15.4078 31.6557 15.5439 32.3579C15.6355 32.8302 15.6326 33.3394 15.4025 33.7659C15.2509 34.0459 15.0055 34.2767 14.7155 34.4194C14.4254 34.5622 14.0924 34.6214 13.7679 34.5931C13.2572 34.5485 12.7932 34.3001 12.3124 34.1269C11.4592 33.8194 10.5371 33.746 9.65909 33.5139C9.28874 33.4161 8.92704 33.2901 8.55071 33.2134C8.38512 33.1792 8.21624 33.1543 8.05817 33.0953C7.90011 33.0362 7.7503 32.9384 7.66947 32.7938C7.61276 32.692 7.59348 32.5729 7.60204 32.4576C7.61059 32.3422 7.64534 32.2297 7.69122 32.1228C7.78278 31.9091 7.91805 31.7132 7.99023 31.4922C8.09467 31.1675 8.05178 30.8155 7.97332 30.4839C7.89486 30.1522 7.78185 29.8268 7.74711 29.4883C7.73164 29.3376 7.73195 29.1838 7.7667 29.0361C7.80144 28.8884 7.87259 28.7464 7.98425 28.6405C8.12787 28.5041 8.32903 28.4362 8.52895 28.4171C8.72887 28.3981 8.93024 28.4241 9.12902 28.4522C9.32781 28.4802 9.52784 28.5123 9.72858 28.5023C9.92933 28.4923 10.1336 28.4412 10.2908 28.3196C10.4463 28.1994 10.544 28.0204 10.6001 27.8352C10.6562 27.65 10.6744 27.4564 10.6974 27.2647C10.7204 27.073 10.7489 26.8795 10.8242 26.7008C10.8994 26.5222 11.0263 26.3575 11.2036 26.2705L11.2024 26.27Z" fill="#F5BD0C"/>
</g>
<g filter="url(#filter28_f_9_3)">
<path d="M13.33 27.5632C13.6092 28.068 13.7795 28.6474 14.0562 29.1565C14.311 29.6248 14.6008 30.107 14.8596 30.5389C14.9748 30.7312 15.2434 31.0268 15.5151 31.4855C15.7613 31.9011 16.0098 32.4813 16.1489 32.6762C16.069 32.448 15.9047 31.8357 15.7087 31.3991C15.5266 30.9909 15.3124 30.7583 15.1809 30.5389C14.9222 30.107 14.6436 29.7189 14.3776 29.3071C14.0107 28.7392 13.7311 28.1037 13.33 27.5633V27.5632Z" fill="url(#paint20_linear_9_3)"/>
</g>
</g>
<defs>
<filter id="filter0_f_9_3" x="16.0708" y="12.3216" width="7.32368" height="3.7461" filterUnits="userSpaceOnUse" color-interpolation-filters="sRGB">
<feFlood flood-opacity="0" result="BackgroundImageFix"/>
<feBlend mode="normal" in="SourceGraphic" in2="BackgroundImageFix" result="shape"/>
<feGaussianBlur stdDeviation="0.191623" result="effect1_foregroundBlur_9_3"/>
</filter>
<filter id="filter1_f_9_3" x="15.881" y="10.4465" width="7.62439" height="4.42376" filterUnits="userSpaceOnUse" color-interpolation-filters="sRGB">
<feFlood flood-opacity="0" result="BackgroundImageFix"/>
<feBlend mode="normal" in="SourceGraphic" in2="BackgroundImageFix" result="shape"/>
<feGaussianBlur stdDeviation="0.291564" result="effect1_foregroundBlur_9_3"/>
</filter>
<filter id="filter2_f_9_3" x="20.8293" y="4.71387" width="3.48245" height="3.39027" filterUnits="userSpaceOnUse" color-interpolation-filters="sRGB">
<feFlood flood-opacity="0" result="BackgroundImageFix"/>
<feBlend mode="normal" in="SourceGraphic" in2="BackgroundImageFix" result="shape"/>
<feGaussianBlur stdDeviation="0.429496" result="effect1_foregroundBlur_9_3"/>
</filter>
<filter id="filter3_f_9_3" x="21.3168" y="10.4704" width="0.618522" height="0.519386" filterUnits="userSpaceOnUse" color-interpolation-filters="sRGB">
<feFlood flood-opacity="0" result="BackgroundImageFix"/>
<feBlend mode="normal" in="SourceGraphic" in2="BackgroundImageFix" result="shape"/>
<feGaussianBlur stdDeviation="0.0533428" result="effect1_foregroundBlur_9_3"/>
</filter>
<filter id="filter4_f_9_3" x="21.2042" y="9.89138" width="1.19211" height="1.18125" filterUnits="userSpaceOnUse" color-interpolation-filters="sRGB">
<feFlood flood-opacity="0" result="BackgroundImageFix"/>
<feBlend mode="normal" in="SourceGraphic" in2="BackgroundImageFix" result="shape"/>
<feGaussianBlur stdDeviation="0.111184" result="effect1_foregroundBlur_9_3"/>
</filter>
<filter id="filter5_f_9_3" x="21.5946" y="8.02163" width="1.77026" height="1.64334" filterUnits="userSpaceOnUse" color-interpolation-filters="sRGB">
<feFlood flood-opacity="0" result="BackgroundImageFix"/>
<feBlend mode="normal" in="SourceGraphic" in2="BackgroundImageFix" result="shape"/>
<feGaussianBlur stdDeviation="0.0317057" result="effect1_foregroundBlur_9_3"/>
</filter>
<filter id="filter6_f_9_3" x="17.1746" y="8.23651" width="1.65212" height="1.46607" filterUnits="userSpaceOnUse" color-interpolation-filters="sRGB">
<feFlood flood-opacity="0" result="BackgroundImageFix"/>
<feBlend mode="normal" in="SourceGraphic" in2="BackgroundImageFix" result="shape"/>
<feGaussianBlur stdDeviation="0.0289208" result="effect1_foregroundBlur_9_3"/>
</filter>
<filter id="filter7_f_9_3" x="17.1984" y="9.99548" width="1.00167" height="1.34168" filterUnits="userSpaceOnUse" color-interpolation-filters="sRGB">
<feFlood flood-opacity="0" result="BackgroundImageFix"/>
<feBlend mode="normal" in="SourceGraphic" in2="BackgroundImageFix" result="shape"/>
<feGaussianBlur stdDeviation="0.109899" result="effect1_foregroundBlur_9_3"/>
</filter>
<filter id="filter8_f_9_3" x="17.6554" y="13.4192" width="2.25755" height="1.81695" filterUnits="userSpaceOnUse" color-interpolation-filters="sRGB">
<feFlood flood-opacity="0" result="BackgroundImageFix"/>
<feBlend mode="normal" in="SourceGraphic" in2="BackgroundImageFix" result="shape"/>
<feGaussianBlur stdDeviation="0.192591" result="effect1_foregroundBlur_9_3"/>
</filter>
<filter id="filter9_f_9_3" x="16.3858" y="11.7558" width="6.31598" height="3.10489" filterUnits="userSpaceOnUse" color-interpolation-filters="sRGB">
<feFlood flood-opacity="0" result="BackgroundImageFix"/>
<feBlend mode="normal" in="SourceGraphic" in2="BackgroundImageFix" result="shape"/>
<feGaussianBlur stdDeviation="0.162385" result="effect1_foregroundBlur_9_3"/>
</filter>
<filter id="filter10_f_9_3" x="18.8121" y="11.8218" width="2.08311" height="2.40185" filterUnits="userSpaceOnUse" color-interpolation-filters="sRGB">
<feFlood flood-opacity="0" result="BackgroundImageFix"/>
<feBlend mode="normal" in="SourceGraphic" in2="BackgroundImageFix" result="shape"/>
<feGaussianBlur stdDeviation="0.18188" result="effect1_foregroundBlur_9_3"/>
</filter>
<filter id="filter11_f_9_3" x="19.5847" y="11.4436" width="0.701011" height="0.412688" filterUnits="userSpaceOnUse" color-interpolation-filters="sRGB">
<feFlood flood-opacity="0" result="BackgroundImageFix"/>
<feBlend mode="normal" in="SourceGraphic" in2="BackgroundImageFix" result="shape"/>
<feGaussianBlur stdDeviation="0.0235651" result="effect1_foregroundBlur_9_3"/>
</filter>
<filter id="filter12_f_9_3" x="18.1511" y="11.4987" width="0.337852" height="0.362868" filterUnits="userSpaceOnUse" color-interpolation-filters="sRGB">
<feFlood flood-opacity="0" result="BackgroundImageFix"/>
<feBlend mode="normal" in="SourceGraphic" in2="BackgroundImageFix" result="shape"/>
<feGaussianBlur stdDeviation="0.0235651" result="effect1_foregroundBlur_9_3"/>
</filter>
<filter id="filter13_f_9_3" x="22.1908" y="12.2789" width="0.910714" height="1.0498" filterUnits="userSpaceOnUse" color-interpolation-filters="sRGB">
<feFlood flood-opacity="0" result="BackgroundImageFix"/>
<feBlend mode="normal" in="SourceGraphic" in2="BackgroundImageFix" result="shape"/>
<feGaussianBlur stdDeviation="0.073168" result="effect1_foregroundBlur_9_3"/>
</filter>
<filter id="filter14_f_9_3" x="13.7675" y="17.1349" width="4.41663" height="4.17044" filterUnits="userSpaceOnUse" color-interpolation-filters="sRGB">
<feFlood flood-opacity="0" result="BackgroundImageFix"/>
<feBlend mode="normal" in="SourceGraphic" in2="BackgroundImageFix" result="shape"/>
<feGaussianBlur stdDeviation="0.147995" result="effect1_foregroundBlur_9_3"/>
</filter>
<filter id="filter15_f_9_3" x="19.3162" y="16.662" width="6.73603" height="4.9688" filterUnits="userSpaceOnUse" color-interpolation-filters="sRGB">
<feFlood flood-opacity="0" result="BackgroundImageFix"/>
<feBlend mode="normal" in="SourceGraphic" in2="BackgroundImageFix" result="shape"/>
<feGaussianBlur stdDeviation="0.243791" result="effect1_foregroundBlur_9_3"/>
</filter>
<filter id="filter16_f_9_3" x="17.1816" y="17.2717" width="2.99628" height="3.15686" filterUnits="userSpaceOnUse" color-interpolation-filters="sRGB">
<feFlood flood-opacity="0" result="BackgroundImageFix"/>
<feBlend mode="normal" in="SourceGraphic" in2="BackgroundImageFix" result="shape"/>
<feGaussianBlur stdDeviation="0.168169" result="effect1_foregroundBlur_9_3"/>
</filter>
<filter id="filter17_f_9_3" x="17.0171" y="20.6357" width="1.69405" height="7.66926" filterUnits="userSpaceOnUse" color-interpolation-filters="sRGB">
<feFlood flood-opacity="0" result="BackgroundImageFix"/>
<feBlend mode="normal" in="SourceGraphic" in2="BackgroundImageFix" result="shape"/>
<feGaussianBlur stdDeviation="0.309774" result="effect1_foregroundBlur_9_3"/>
</filter>
<filter id="filter18_f_9_3" x="22.8146" y="24.5863" width="12.5667" height="12.6859" filterUnits="userSpaceOnUse" color-interpolation-filters="sRGB">
<feFlood flood-opacity="0" result="BackgroundImageFix"/>
<feBlend mode="normal" in="SourceGraphic" in2="BackgroundImageFix" result="shape"/>
<feGaussianBlur stdDeviation="1.0238" result="effect1_foregroundBlur_9_3"/>
</filter>
<filter id="filter19_f_9_3" x="23.5866" y="25.3866" width="10.8269" height="10.4269" filterUnits="userSpaceOnUse" color-interpolation-filters="sRGB">
<feFlood flood-opacity="0" result="BackgroundImageFix"/>
<feBlend mode="normal" in="SourceGraphic" in2="BackgroundImageFix" result="shape"/>
<feGaussianBlur stdDeviation="0.806721" result="effect1_foregroundBlur_9_3"/>
</filter>
<filter id="filter20_f_9_3" x="24.909" y="26.5385" width="6.30481" height="1.36402" filterUnits="userSpaceOnUse" color-interpolation-filters="sRGB">
<feFlood flood-opacity="0" result="BackgroundImageFix"/>
<feBlend mode="normal" in="SourceGraphic" in2="BackgroundImageFix" result="shape"/>
<feGaussianBlur stdDeviation="0.102615" result="effect1_foregroundBlur_9_3"/>
</filter>
<filter id="filter21_f_9_3" x="25.5359" y="19.5382" width="3.04365" height="3.06676" filterUnits="userSpaceOnUse" color-interpolation-filters="sRGB">
<feFlood flood-opacity="0" result="BackgroundImageFix"/>
<feBlend mode="normal" in="SourceGraphic" in2="BackgroundImageFix" result="shape"/>
<feGaussianBlur stdDeviation="0.491044" result="effect1_foregroundBlur_9_3"/>
</filter>
<filter id="filter22_f_9_3" x="14.983" y="15.9029" width="0.996201" height="1.01009" filterUnits="userSpaceOnUse" color-interpolation-filters="sRGB">
<feFlood flood-opacity="0" result="BackgroundImageFix"/>
<feBlend mode="normal" in="SourceGraphic" in2="BackgroundImageFix" result="shape"/>
<feGaussianBlur stdDeviation="0.137066" result="effect1_foregroundBlur_9_3"/>
</filter>
<filter id="filter23_f_9_3" x="25.1329" y="25.8264" width="6.08421" height="5.56009" filterUnits="userSpaceOnUse" color-interpolation-filters="sRGB">
<feFlood flood-opacity="0" result="BackgroundImageFix"/>
<feBlend mode="normal" in="SourceGraphic" in2="BackgroundImageFix" result="shape"/>
<feGaussianBlur stdDeviation="0.609264" result="effect1_foregroundBlur_9_3"/>
</filter>
<filter id="filter24_f_9_3" x="25.8789" y="26.5824" width="4.59214" height="3.2027" filterUnits="userSpaceOnUse" color-interpolation-filters="sRGB">
<feFlood flood-opacity="0" result="BackgroundImageFix"/>
<feBlend mode="normal" in="SourceGraphic" in2="BackgroundImageFix" result="shape"/>
<feGaussianBlur stdDeviation="0.236245" result="effect1_foregroundBlur_9_3"/>
</filter>
<filter id="filter25_f_9_3" x="26.1795" y="25.0309" width="4.61936" height="2.62841" filterUnits="userSpaceOnUse" color-interpolation-filters="sRGB">
<feFlood flood-opacity="0" result="BackgroundImageFix"/>
<feBlend mode="normal" in="SourceGraphic" in2="BackgroundImageFix" result="shape"/>
<feGaussianBlur stdDeviation="0.219584" result="effect1_foregroundBlur_9_3"/>
</filter>
<filter id="filter26_f_9_3" x="5.69075" y="24.521" width="12.7448" height="12.6596" filterUnits="userSpaceOnUse" color-interpolation-filters="sRGB">
<feFlood flood-opacity="0" result="BackgroundImageFix"/>
<feBlend mode="normal" in="SourceGraphic" in2="BackgroundImageFix" result="shape"/>
<feGaussianBlur stdDeviation="0.840631" result="effect1_foregroundBlur_9_3"/>
</filter>
<filter id="filter27_f_9_3" x="6.56537" y="25.1653" width="10.0695" height="10.4695" filterUnits="userSpaceOnUse" color-interpolation-filters="sRGB">
<feFlood flood-opacity="0" result="BackgroundImageFix"/>
<feBlend mode="normal" in="SourceGraphic" in2="BackgroundImageFix" result="shape"/>
<feGaussianBlur stdDeviation="0.517366" result="effect1_foregroundBlur_9_3"/>
</filter>
<filter id="filter28_f_9_3" x="13.1715" y="27.4047" width="3.13597" height="5.43004" filterUnits="userSpaceOnUse" color-interpolation-filters="sRGB">
<feFlood flood-opacity="0" result="BackgroundImageFix"/>
<feBlend mode="normal" in="SourceGraphic" in2="BackgroundImageFix" result="shape"/>
<feGaussianBlur stdDeviation="0.0792644" result="effect1_foregroundBlur_9_3"/>
</filter>
<radialGradient id="paint0_radial_9_3" cx="0" cy="0" r="1" gradientUnits="userSpaceOnUse" gradientTransform="translate(417.756 607.47) rotate(-2.41003) scale(26.6585 65.2506)">
<stop stop-color="#FEFEFC"/>
<stop offset="0.757" stop-color="#FEFEFC"/>
<stop offset="1" stop-color="#D4D4D4"/>
</radialGradient>
<radialGradient id="paint1_radial_9_3" cx="0" cy="0" r="1" gradientUnits="userSpaceOnUse" gradientTransform="translate(746.704 636.033) rotate(-1.81001) scale(47.7281 68.9715)">
<stop stop-color="#FEFEFC"/>
<stop offset="0.757" stop-color="#FEFEFC"/>
<stop offset="1" stop-color="#D4D4D4"/>
</radialGradient>
<linearGradient id="paint2_linear_9_3" x1="247.885" y1="107.9" x2="252.82" y2="113.83" gradientUnits="userSpaceOnUse">
<stop stop-color="#949494" stop-opacity="0.392"/>
<stop offset="0.5" stop-color="#949494"/>
<stop offset="1" stop-color="#949494" stop-opacity="0.392"/>
</linearGradient>
<linearGradient id="paint3_linear_9_3" x1="47.1479" y1="168.172" x2="68.7597" y2="190.282" gradientUnits="userSpaceOnUse">
<stop stop-color="#646464" stop-opacity="0"/>
<stop offset="0.306" stop-color="#646464" stop-opacity="0.583"/>
<stop offset="0.47" stop-color="#646464"/>
<stop offset="0.728" stop-color="#646464" stop-opacity="0.257"/>
<stop offset="1" stop-color="#646464" stop-opacity="0"/>
</linearGradient>
<linearGradient id="paint4_linear_9_3" x1="-22.3663" y1="152.335" x2="-4.33372" y2="172.094" gradientUnits="userSpaceOnUse">
<stop stop-color="#646464" stop-opacity="0"/>
<stop offset="0.306" stop-color="#646464" stop-opacity="0.583"/>
<stop offset="0.47" stop-color="#646464"/>
<stop offset="0.728" stop-color="#646464" stop-opacity="0.257"/>
<stop offset="1" stop-color="#646464" stop-opacity="0"/>
</linearGradient>
<linearGradient id="paint5_linear_9_3" x1="109.627" y1="129.348" x2="115.767" y2="136.188" gradientUnits="userSpaceOnUse">
<stop stop-color="#757574" stop-opacity="0"/>
<stop offset="0.263" stop-color="#757574"/>
<stop offset="0.5" stop-color="#757574"/>
<stop offset="1" stop-color="#757574" stop-opacity="0"/>
</linearGradient>
<radialGradient id="paint6_radial_9_3" cx="0" cy="0" r="1" gradientUnits="userSpaceOnUse" gradientTransform="translate(1966.57 -312.816) rotate(-22.428) scale(206.022 71.576)">
<stop stop-color="#D2940A"/>
<stop offset="0.751" stop-color="#D89C08"/>
<stop offset="0.866" stop-color="#B67E07"/>
<stop offset="1" stop-color="#946106"/>
</radialGradient>
<linearGradient id="paint7_linear_9_3" x1="319.161" y1="526.771" x2="683.959" y2="521.109" gradientUnits="userSpaceOnUse">
<stop stop-color="#AD780A"/>
<stop offset="0.12" stop-color="#D89E08"/>
<stop offset="0.255" stop-color="#EDB80B"/>
<stop offset="0.392" stop-color="#EBC80D"/>
<stop offset="0.527" stop-color="#F5D838"/>
<stop offset="0.769" stop-color="#F6D811"/>
<stop offset="1" stop-color="#F5CD31"/>
</linearGradient>
<radialGradient id="paint8_radial_9_3" cx="0" cy="0" r="1" gradientUnits="userSpaceOnUse" gradientTransform="translate(66.7577 38.8789) scale(1.95973 0.599967)">
<stop stop-color="#3A2903"/>
<stop offset="0.555" stop-color="#735208"/>
<stop offset="1" stop-color="#AC8C04"/>
</radialGradient>
<radialGradient id="paint9_radial_9_3" cx="0" cy="0" r="1" gradientUnits="userSpaceOnUse" gradientTransform="translate(33.5758 54.1142) scale(0.373935 0.443281)">
<stop stop-color="#3A2903"/>
<stop offset="0.555" stop-color="#735208"/>
<stop offset="1" stop-color="#AC8C04"/>
</radialGradient>
<linearGradient id="paint10_linear_9_3" x1="157.823" y1="131.308" x2="158.211" y2="133.322" gradientUnits="userSpaceOnUse">
<stop stop-color="#F5CE2D"/>
<stop offset="1" stop-color="#D79B08"/>
</linearGradient>
<radialGradient id="paint11_radial_9_3" cx="0" cy="0" r="1" gradientUnits="userSpaceOnUse" gradientTransform="translate(-848.407 620.138) rotate(180) scale(73.169 74.8226)">
<stop/>
<stop offset="1" stop-opacity="0.25"/>
</radialGradient>
<radialGradient id="paint12_radial_9_3" cx="0" cy="0" r="1" gradientUnits="userSpaceOnUse" gradientTransform="translate(1787.08 737.335) scale(157.796 83.5035)">
<stop/>
<stop offset="1" stop-opacity="0.25"/>
</radialGradient>
<radialGradient id="paint13_radial_9_3" cx="0" cy="0" r="1" gradientUnits="userSpaceOnUse" gradientTransform="translate(626.846 614.49) scale(25.1997 28.8063)">
<stop/>
<stop offset="1" stop-opacity="0.25"/>
</radialGradient>
<linearGradient id="paint14_linear_9_3" x1="4119.27" y1="3576.3" x2="4584.9" y2="2844.32" gradientUnits="userSpaceOnUse">
<stop stop-color="#3E2A06"/>
<stop offset="1" stop-color="#AD780A"/>
</linearGradient>
<linearGradient id="paint15_linear_9_3" x1="291.328" y1="302.885" x2="291.107" y2="315.168" gradientUnits="userSpaceOnUse">
<stop stop-color="#F3CD0C"/>
<stop offset="1" stop-color="#F3CD0C" stop-opacity="0"/>
</linearGradient>
<radialGradient id="paint16_radial_9_3" cx="0" cy="0" r="1" gradientUnits="userSpaceOnUse" gradientTransform="translate(1367.77 1780.1) rotate(15) scale(83.2109 74.7946)">
<stop stop-color="#110800"/>
<stop offset="0.591" stop-color="#A65A00" stop-opacity="0.8"/>
<stop offset="1" stop-color="#FF921E" stop-opacity="0"/>
</radialGradient>
<radialGradient id="paint17_radial_9_3" cx="0" cy="0" r="1" gradientUnits="userSpaceOnUse" gradientTransform="translate(1367.77 1294.38) rotate(10.9628) scale(81.8696 54.9567)">
<stop stop-color="#110800"/>
<stop offset="0.591" stop-color="#A65A00" stop-opacity="0.8"/>
<stop offset="1" stop-color="#FF921E" stop-opacity="0"/>
</radialGradient>
<radialGradient id="paint18_radial_9_3" cx="0" cy="0" r="1" gradientUnits="userSpaceOnUse" gradientTransform="translate(512.209 322.316) rotate(23.5217) scale(30.1877 6.52651)">
<stop stop-color="#7C7C7C"/>
<stop offset="1" stop-color="#7C7C7C" stop-opacity="0.33"/>
</radialGradient>
<linearGradient id="paint19_linear_9_3" x1="1263.94" y1="3070.59" x2="1743.35" y2="3883.79" gradientUnits="userSpaceOnUse">
<stop stop-color="#B98309"/>
<stop offset="1" stop-color="#382605"/>
</linearGradient>
<linearGradient id="paint20_linear_9_3" x1="495.478" y1="1675.08" x2="588.131" y2="1771.24" gradientUnits="userSpaceOnUse">
<stop stop-color="#EBC40C"/>
<stop offset="1" stop-color="#EBC40C" stop-opacity="0"/>
</linearGradient>
<clipPath id="clip0_9_3">
<rect width="32" height="32" fill="white" transform="translate(4 4)"/>
</clipPath>
</defs>
</svg>
