<svg width="61" height="40" viewBox="0 0 61 40" fill="none" xmlns="http://www.w3.org/2000/svg">
<path d="M10.7708 0.961769C10.7993 1.51504 11.2469 1.9542 11.8006 1.97213L13.427 2.02478C15.0409 2.0754 16.1673 2.19351 16.4027 2.3285C17.2937 2.83469 17.2937 2.83469 17.2937 9.11152V12.265C17.2937 13.9735 16.6167 15.6123 15.4108 16.8226C14.3605 17.8767 14.3605 19.5817 15.4108 20.6359C16.6167 21.8461 17.2937 23.485 17.2937 25.1934V26.8283C17.2937 31.536 17.1592 32.4977 16.3186 34.2188C15.7134 35.4674 14.503 36.6992 13.3093 37.256C12.5024 37.6272 12.0316 37.7115 10.6363 37.7622C8.75334 37.8465 7.50927 37.5766 6.2652 36.851C5.37418 36.3279 4.06286 34.9275 3.74343 34.1682C3.4072 33.3245 3.44082 32.0084 3.82749 31.536C4.01193 31.2994 4.31718 31.1919 4.60913 31.2607L5.49186 31.4685C6.78637 31.7553 6.88724 31.7553 7.61014 31.4853C9.81249 30.6417 10.5522 27.5876 9.05596 25.5122C7.99681 24.0274 5.57592 23.5043 3.76025 24.3649C2.66748 24.8711 1.44022 26.2378 0.969491 27.4695C0.515573 28.6844 0.364267 30.8442 0.633256 32.2615C1.32254 35.788 4.19735 38.6902 7.98 39.652C9.77886 40.1244 12.6537 40.1075 14.6038 39.652C18.8404 38.6227 21.8665 35.8049 22.7576 32.0422C22.9425 31.2322 23.0097 29.9161 23.0097 26.744V25.1934C23.0097 23.485 23.6868 21.8461 24.8927 20.6359C25.943 19.5817 25.943 17.8767 24.8927 16.8226C23.6868 15.6123 23.0097 13.9735 23.0097 12.265V9.31399C23.0097 3.00343 23.0434 2.80095 24.0857 2.29475C24.6237 2.04165 25.2121 2.00791 29.0452 2.05853C33.3994 2.10915 33.3994 2.10915 33.8365 2.5141C34.1152 2.7723 34.2736 3.13501 34.2736 3.51492V19.5223C34.2736 31.0973 34.2232 36.2267 34.0887 36.4798C33.7525 37.1041 32.9287 37.2897 30.4069 37.2897H29.0657C28.5065 37.2897 28.0533 37.743 28.0533 38.3021C28.0533 38.8612 28.5065 39.3145 29.0657 39.3145H37.4679H45.8701C46.4292 39.3145 46.8825 38.8612 46.8825 38.3021C46.8825 37.7419 46.4303 37.2866 45.8701 37.2828L44.4111 37.2728C41.654 37.2728 40.9647 37.121 40.4267 36.3954C40.0737 35.923 40.0737 35.7374 40.0233 27.8914L39.9885 22.3656C39.9799 21.0046 41.1005 19.9072 42.461 19.9441C45.3526 20.0453 46.1259 20.2647 47.3028 21.2939C48.5804 22.4244 49.3202 24.2468 49.5555 26.879L49.5756 27.1208C49.6219 27.6781 50.073 28.1155 50.6315 28.1445C51.1523 28.172 51.5898 27.7571 51.5898 27.2355V19.2354V11.3013C51.5898 10.7443 51.1381 10.2926 50.5811 10.2926H50.3654C49.9274 10.2926 49.5723 10.6477 49.5723 11.0857C49.5555 13.0936 48.7318 15.1859 47.4709 16.3501C46.1427 17.5818 45.5039 17.7843 42.545 17.8518C41.1383 17.8887 39.9806 16.7534 39.99 15.3463L40.0233 10.377L40.0695 3.45563C40.0722 3.06112 40.2453 2.68703 40.5444 2.42974C40.8481 2.16846 41.2355 2.02478 41.6361 2.02478H45.3022C50.1439 2.02478 51.4553 2.19351 53.2541 3.08779C55.944 4.4039 57.3394 6.98549 58.4826 12.6886L58.4958 12.7587C58.5954 13.2857 59.0558 13.6673 59.5922 13.6673H59.7745C60.1752 13.6673 60.5 13.3424 60.5 12.9417C60.5 12.5536 60.3823 9.6852 60.2478 6.58054C60.1133 3.47588 59.9956 0.725548 59.9956 0.455574C59.9956 0.203968 59.7917 0 59.5401 0H35.3664H11.6834C11.1599 0 10.7433 0.43895 10.7708 0.961769Z" fill="#1D1D1D"/>
</svg>
