<svg width="169" height="110" viewBox="0 0 169 110" fill="none" xmlns="http://www.w3.org/2000/svg">
<g filter="url(#filter0_d_6_500)">
<path d="M31.5599 2.84144C31.6364 4.24242 32.7726 5.35166 34.1751 5.3945L38.6875 5.53232C43.0182 5.66045 46.0407 5.95944 46.6723 6.30115C49.0632 7.58252 49.0632 7.58252 49.0632 23.4715V33.474C49.0632 36.4956 47.8202 39.3842 45.626 41.4617L44.0107 42.9911C41.2415 45.613 41.2415 50.0223 44.0107 52.6442L45.626 54.1736C47.8202 56.2511 49.0632 59.1397 49.0632 62.1613V68.3196C49.0632 80.2364 48.7023 82.671 46.4467 87.0277C44.8227 90.1884 41.5746 93.3064 38.3717 94.7159C36.2064 95.6556 34.9432 95.8692 31.199 95.9973C26.1465 96.2109 22.8082 95.5275 19.47 93.6908C17.079 92.3667 13.5603 88.8216 12.7032 86.8995C11.801 84.7639 11.8912 81.4324 12.9288 80.2364C13.4271 79.6335 14.2214 79.3608 14.985 79.5303L17.3948 80.0656C20.8684 80.7917 21.1391 80.7917 23.0789 80.1083C28.9885 77.9726 30.9734 70.2417 26.9585 64.9881C24.1165 61.2294 17.6204 59.9053 12.7483 62.0836C9.81607 63.365 6.52293 66.8247 5.2598 69.9427C4.04179 73.018 3.63578 78.4852 4.35757 82.073C6.20715 90.9999 13.9212 98.3465 24.0713 100.781C28.8983 101.977 36.6124 101.934 41.8453 100.781C53.2134 98.1756 61.3335 91.0427 63.7244 81.5178C64.2207 79.4676 64.4011 76.136 64.4011 68.1061V62.1613C64.4011 59.1397 65.6441 56.2511 67.8382 54.1736L69.4536 52.6442C72.2228 50.0223 72.2228 45.613 69.4536 42.9911L67.8383 41.4617C65.6441 39.3842 64.4011 36.4956 64.4011 33.474V23.9841C64.4011 8.00964 64.4913 7.49709 67.2883 6.21572C68.7318 5.57504 70.3107 5.48961 80.5962 5.61774C92.2801 5.74588 92.2801 5.74588 93.453 6.77098C94.1983 7.42237 94.6259 8.36397 94.6259 9.35381V49.8251C94.6259 79.1259 94.4906 92.1105 94.1297 92.7512C93.2274 94.3315 91.017 94.8013 84.2502 94.8013H80.4974C79.082 94.8013 77.9346 95.9487 77.9346 97.3641C77.9346 98.7795 79.082 99.9268 80.4974 99.9268H103.197H125.897C127.312 99.9268 128.46 98.7795 128.46 97.3641C128.46 95.9461 127.315 94.794 125.897 94.7848L121.828 94.7586C114.43 94.7586 112.58 94.3742 111.137 92.5376C110.189 91.3416 110.189 90.8718 110.054 71.0105L109.963 57.4007C109.939 53.7475 112.943 50.7995 116.595 50.8929C124.354 51.1492 126.43 51.7045 129.587 54.3099C133.016 57.1717 135.001 61.7846 135.632 68.4478L135.673 68.9135C135.805 70.409 137.02 71.5778 138.519 71.6512C139.918 71.7209 141.091 70.6055 141.091 69.2048V49.099V29.1681C141.091 27.6733 139.879 26.4614 138.384 26.4614H137.685C136.576 26.4614 135.677 27.3602 135.677 28.4689C135.632 33.5517 133.422 38.848 130.039 41.7952C126.475 44.9132 124.76 45.4258 116.821 45.5966C113.045 45.6901 109.941 42.6403 109.968 38.8634L110.054 26.675L110.178 9.20923C110.185 8.17923 110.653 7.20649 111.453 6.55742C112.27 5.89426 113.29 5.53232 114.342 5.53232H124.219C137.211 5.53232 140.73 5.95944 145.557 8.22321C152.775 11.5548 156.519 18.0898 159.587 32.5266L159.596 32.5711C159.879 33.9858 161.121 35.0039 162.564 35.0039H163.163C164.178 35.0039 165 34.1816 165 33.1673C165 32.1849 164.684 24.9238 164.323 17.0647C163.962 9.20559 163.647 2.24346 163.647 1.56006C163.647 0.923149 163.13 0.406822 162.493 0.406822H97.5582H33.8629C32.5387 0.406822 31.4864 1.51927 31.5599 2.84144Z" fill="#1D1D1D"/>
</g>
<defs>
<filter id="filter0_d_6_500" x="0" y="0.406738" width="169" height="109.255" filterUnits="userSpaceOnUse" color-interpolation-filters="sRGB">
<feFlood flood-opacity="0" result="BackgroundImageFix"/>
<feColorMatrix in="SourceAlpha" type="matrix" values="0 0 0 0 0 0 0 0 0 0 0 0 0 0 0 0 0 0 127 0" result="hardAlpha"/>
<feOffset dy="4"/>
<feGaussianBlur stdDeviation="2"/>
<feComposite in2="hardAlpha" operator="out"/>
<feColorMatrix type="matrix" values="0 0 0 0 0 0 0 0 0 0 0 0 0 0 0 0 0 0 0.25 0"/>
<feBlend mode="normal" in2="BackgroundImageFix" result="effect1_dropShadow_6_500"/>
<feBlend mode="normal" in="SourceGraphic" in2="effect1_dropShadow_6_500" result="shape"/>
</filter>
</defs>
</svg>
