<svg width="40" height="40" viewBox="0 0 40 40" fill="none" xmlns="http://www.w3.org/2000/svg">
<path d="M7.08334 3.22406e-06H32.9167C33.8471 -0.000896211 34.7686 0.186404 35.6284 0.551183C36.4882 0.915963 37.2694 1.45106 37.9273 2.12585C38.5852 2.80065 39.1069 3.60189 39.4626 4.48372C39.8183 5.36555 40.0009 6.31066 40 7.26496V32.735C40.0009 33.6893 39.8183 34.6345 39.4626 35.5163C39.1069 36.3981 38.5852 37.1994 37.9273 37.8741C37.2694 38.5489 36.4882 39.084 35.6284 39.4488C34.7686 39.8136 33.8471 40.0009 32.9167 40H7.08334C6.15289 40.0009 5.23141 39.8136 4.37162 39.4488C3.51184 39.084 2.73063 38.5489 2.07271 37.8741C1.41478 37.1994 0.893064 36.3981 0.537404 35.5163C0.181743 34.6345 -0.000873806 33.6893 3.14346e-06 32.735V7.26496C-0.000873806 6.31066 0.181743 5.36555 0.537404 4.48372C0.893064 3.60189 1.41478 2.80065 2.07271 2.12585C2.73063 1.45106 3.51184 0.915963 4.37162 0.551183C5.23141 0.186404 6.15289 -0.000896211 7.08334 3.22406e-06V3.22406e-06Z" fill="#F0F0F0"/>
<path d="M19.9111 35C19.5093 35 19.1103 34.8946 18.7581 34.6918L15.0881 32.5191C14.54 32.2125 14.8075 32.1041 14.9883 32.0416C15.7191 31.7857 15.8674 31.728 16.6475 31.2849C16.7295 31.2381 16.8369 31.2547 16.9208 31.3042L19.7402 32.9772C19.842 33.0323 19.9865 33.0323 20.0808 32.9772L31.0739 26.6318C31.1757 26.574 31.2417 26.4557 31.2417 26.3346V13.6493C31.2417 13.5227 31.1757 13.4099 31.0717 13.3466L20.083 7.00668C19.9812 6.94614 19.8464 6.94614 19.7446 7.00668L8.75814 13.3466C8.65164 13.4071 8.58395 13.5255 8.58395 13.6465V26.3319C8.58395 26.4529 8.64999 26.5685 8.75456 26.6263L11.7649 28.3654C13.3994 29.1826 14.3983 28.2195 14.3983 27.2509V14.7307C14.3983 14.5518 14.5386 14.4143 14.7175 14.4143H16.1099C16.2832 14.4143 16.4263 14.5518 16.4263 14.7307V27.2564C16.4263 29.4358 15.2376 30.6878 13.171 30.6878C12.5354 30.6878 12.0346 30.6878 10.6367 29.9999L7.75294 28.3379C7.04025 27.9251 6.59998 27.1546 6.59998 26.3319V13.6465C6.59998 12.821 7.04025 12.0505 7.75294 11.6433L18.757 5.29512C19.4532 4.90163 20.3777 4.90163 21.0684 5.29512L32.0587 11.646C32.7687 12.056 33.2117 12.8238 33.2117 13.6493V26.3346C33.2117 27.1574 32.7687 27.9251 32.0587 28.3379L21.0684 34.686C20.7162 34.8897 20.3172 34.9942 19.91 34.9942" fill="#689F63"/>
<path d="M23.3067 26.2589C18.4967 26.2589 17.4882 24.0509 17.4882 22.199C17.4882 22.0229 17.6302 21.8826 17.8066 21.8826H19.2265C19.3833 21.8826 19.5154 21.9968 19.5402 22.1517C19.7548 23.5986 20.3932 24.3283 23.3017 24.3283C25.6187 24.3283 26.6038 23.8049 26.6038 22.5763C26.6038 21.8691 26.3231 21.3435 22.7239 20.9913C19.7135 20.6941 17.8534 20.031 17.8534 17.6232C17.8534 15.4054 19.7245 14.0846 22.8587 14.0846C26.3781 14.0846 28.1227 15.3063 28.3429 17.9314C28.3511 18.0222 28.3181 18.1103 28.2576 18.1763C28.197 18.2396 28.1117 18.2781 28.0237 18.2781H26.5955C26.4469 18.2781 26.3176 18.1736 26.2873 18.0305C25.9434 16.5088 25.1124 16.0218 22.8532 16.0218C20.3244 16.0218 20.03 16.9023 20.03 17.5627C20.03 18.3635 20.3767 18.5973 23.7888 19.0486C27.1679 19.4972 28.7721 20.13 28.7721 22.5048C28.7721 24.8987 26.7744 26.2718 23.2907 26.2718L23.3067 26.2589Z" fill="#689F63"/>
</svg>
