<svg width="40" height="40" viewBox="0 0 40 40" fill="none" xmlns="http://www.w3.org/2000/svg">
<g clip-path="url(#clip0_9_98)">
<path d="M7.08334 3.22406e-06H32.9167C33.8471 -0.000896212 34.7686 0.186404 35.6284 0.551183C36.4882 0.915963 37.2694 1.45106 37.9273 2.12585C38.5852 2.80065 39.1069 3.60189 39.4626 4.48372C39.8183 5.36555 40.0009 6.31066 40 7.26496V32.735C40.0009 33.6893 39.8183 34.6345 39.4626 35.5163C39.1069 36.3981 38.5852 37.1994 37.9273 37.8741C37.2694 38.5489 36.4882 39.084 35.6284 39.4488C34.7686 39.8136 33.8471 40.0009 32.9167 40H7.08334C6.15289 40.0009 5.23141 39.8136 4.37162 39.4488C3.51184 39.084 2.73063 38.5489 2.07271 37.8741C1.41478 37.1994 0.893064 36.3981 0.537404 35.5163C0.181743 34.6345 -0.000873806 33.6893 3.14346e-06 32.735V7.26496C-0.000873806 6.31066 0.181743 5.36555 0.537404 4.48372C0.893064 3.60189 1.41478 2.80065 2.07271 2.12585C2.73063 1.45106 3.51184 0.915963 4.37162 0.551183C5.23141 0.186404 6.15289 -0.000896212 7.08334 3.22406e-06V3.22406e-06Z" fill="#000B1D"/>
<path d="M19.9437 6.6C13.0103 6.6 13.4433 9.60671 13.4433 9.60671L13.451 12.7216H20.0674V13.6569H10.8231C10.8231 13.6569 6.38641 13.1537 6.38641 20.1495C6.38641 27.1453 10.2588 26.8973 10.2588 26.8973H12.5699V23.6509C12.5699 23.6509 12.4453 19.7785 16.3805 19.7785C20.3156 19.7785 22.9427 19.7785 22.9427 19.7785C22.9427 19.7785 26.6296 19.8381 26.6296 16.2153C26.6296 12.5925 26.6296 10.2251 26.6296 10.2251C26.6296 10.2251 27.1893 6.6 19.9437 6.6ZM16.2954 8.69465C16.9537 8.69465 17.4857 9.22669 17.4857 9.88497C17.4858 10.5432 16.9537 11.0753 16.2954 11.0753C15.6372 11.0753 15.1051 10.5432 15.1051 9.88497C15.1051 9.22669 15.6372 8.69465 16.2954 8.69465Z" fill="url(#paint0_linear_9_98)"/>
<path d="M20.1406 33.7692C27.074 33.7692 26.641 30.7625 26.641 30.7625L26.6333 27.6476H20.0169V26.7124H29.2612C29.2612 26.7124 33.6979 27.2155 33.6979 20.2197C33.6979 13.2239 29.8255 13.472 29.8255 13.472H27.5144V16.7183C27.5144 16.7183 27.639 20.5907 23.7038 20.5907C19.7687 20.5907 17.1416 20.5907 17.1416 20.5907C17.1416 20.5907 13.4547 20.5311 13.4547 24.1539C13.4547 27.7768 13.4547 30.1442 13.4547 30.1442C13.4547 30.1442 12.895 33.7692 20.1406 33.7692ZM23.7889 31.6746C23.1306 31.6746 22.5985 31.1425 22.5985 30.4843C22.5985 29.826 23.1306 29.294 23.7889 29.294C24.4471 29.294 24.9792 29.826 24.9792 30.4843C24.9792 31.1425 24.4471 31.6746 23.7889 31.6746Z" fill="url(#paint1_linear_9_98)"/>
</g>
<defs>
<linearGradient id="paint0_linear_9_98" x1="9.01109" y1="8.97483" x2="22.5158" y2="22.5247" gradientUnits="userSpaceOnUse">
<stop stop-color="#387EB8"/>
<stop offset="1" stop-color="#366994"/>
</linearGradient>
<linearGradient id="paint1_linear_9_98" x1="17.3186" y1="17.5947" x2="31.8227" y2="31.4903" gradientUnits="userSpaceOnUse">
<stop stop-color="#FFE052"/>
<stop offset="1" stop-color="#FFC331"/>
</linearGradient>
<clipPath id="clip0_9_98">
<rect width="40" height="40" fill="white"/>
</clipPath>
</defs>
</svg>
