<svg width="40" height="40" viewBox="0 0 40 40" fill="none" xmlns="http://www.w3.org/2000/svg">
<g clip-path="url(#clip0_9_98)">
<path d="M19.7308 0C9.51338 7.28993e-07 10.1514 4.43091 10.1514 4.43091L10.1628 9.02129H19.9131V10.3995H6.29004C6.29004 10.3995 -0.248108 9.65805 -0.248108 19.9676C-0.248109 30.2771 5.45854 29.9115 5.45854 29.9115H8.8643V25.1275C8.8643 25.1275 8.68072 19.4208 14.4798 19.4208C20.2789 19.4208 24.1504 19.4208 24.1504 19.4208C24.1504 19.4208 29.5836 19.5087 29.5836 14.1698C29.5836 8.83094 29.5836 5.34215 29.5836 5.34215C29.5836 5.34215 30.4086 0 19.7308 0ZM14.3545 3.08683C15.3246 3.08683 16.1087 3.87089 16.1087 4.84097C16.1087 5.81105 15.3246 6.59511 14.3545 6.59511C13.3844 6.59511 12.6004 5.81105 12.6004 4.84097C12.6004 3.87089 13.3844 3.08683 14.3545 3.08683Z" fill="url(#paint0_linear_9_98)"/>
<path d="M20.0211 40.0385C30.2385 40.0385 29.6005 35.6076 29.6005 35.6076L29.5891 31.0173H19.8388V29.639H33.4619C33.4619 29.639 40 30.3805 40 20.071C40 9.76146 34.2934 10.1271 34.2934 10.1271H30.8876V14.9111C30.8876 14.9111 31.0712 20.6177 25.2721 20.6177C19.473 20.6177 15.6016 20.6177 15.6016 20.6177C15.6016 20.6177 10.1683 20.5299 10.1683 25.8687C10.1683 31.2076 10.1683 34.6964 10.1683 34.6964C10.1683 34.6964 9.34336 40.0385 20.0211 40.0385ZM25.3974 36.9517C24.4273 36.9517 23.6433 36.1677 23.6433 35.1976C23.6433 34.2275 24.4273 33.4434 25.3974 33.4434C26.3675 33.4434 27.1515 34.2275 27.1515 35.1976C27.1515 36.1677 26.3675 36.9517 25.3974 36.9517Z" fill="url(#paint1_linear_9_98)"/>
</g>
<defs>
<linearGradient id="paint0_linear_9_98" x1="3.61981" y1="3.49972" x2="23.5213" y2="23.4678" gradientUnits="userSpaceOnUse">
<stop stop-color="#387EB8"/>
<stop offset="1" stop-color="#366994"/>
</linearGradient>
<linearGradient id="paint1_linear_9_98" x1="15.8624" y1="16.2025" x2="37.2367" y2="36.6802" gradientUnits="userSpaceOnUse">
<stop stop-color="#FFE052"/>
<stop offset="1" stop-color="#FFC331"/>
</linearGradient>
<clipPath id="clip0_9_98">
<rect width="40" height="40" fill="white"/>
</clipPath>
</defs>
</svg>
