<svg width="40" height="42" viewBox="0 0 40 42" fill="none" xmlns="http://www.w3.org/2000/svg">
<g clip-path="url(#clip0_9_253)">
<path fill-rule="evenodd" clip-rule="evenodd" d="M6.89779 7.36381C8.19987 8.42283 8.68164 8.34742 11.1296 8.1802L34.0885 6.79004C34.5768 6.79004 34.1699 6.30151 34.0072 6.21955L30.1823 3.4425C29.6926 3.02289 29.1207 2.71175 28.5038 2.5293C27.8869 2.34685 27.2388 2.29717 26.6016 2.38348L4.37174 4.02283C3.5612 4.10151 3.39518 4.51135 3.7207 4.83922L6.88802 7.37037L6.89779 7.36381ZM8.27474 12.754V37.0851C8.27474 38.3966 8.92578 38.8818 10.3841 38.7999L35.6185 37.331C37.0801 37.2491 37.2461 36.3474 37.2461 35.2884V11.1179C37.2461 10.0589 36.8392 9.47856 35.944 9.56709L9.57682 11.1179C8.60026 11.1999 8.27474 11.6917 8.27474 12.7573V12.754ZM33.1868 14.0654C33.3464 14.7999 33.1868 15.5343 32.4544 15.6163L31.25 15.8556V33.8195C30.1953 34.39 29.222 34.7146 28.4115 34.7146C27.1094 34.7146 26.7839 34.3081 25.8073 33.0753L17.8483 20.5081V32.6753L20.3646 33.2458C20.3646 33.2458 20.3646 34.7146 18.3366 34.7146L12.7376 35.0425C12.5749 34.7146 12.7376 33.9015 13.3073 33.731L14.7656 33.3212V17.2425L12.7376 17.0786C12.6864 16.862 12.6829 16.6368 12.7271 16.4187C12.7714 16.2006 12.8625 15.9949 12.9939 15.8159C13.1254 15.6369 13.2941 15.4891 13.4882 15.3827C13.6824 15.2763 13.8973 15.2139 14.1178 15.1999L20.1204 14.7933L28.3984 27.5409V16.2622L26.2891 16.0195C26.2518 15.8236 26.2571 15.6218 26.3048 15.4281C26.3524 15.2344 26.4411 15.0534 26.5649 14.8975C26.6887 14.7417 26.8445 14.6148 27.0217 14.5255C27.1988 14.4362 27.3931 14.3866 27.5911 14.3802L33.1934 14.0523L33.1868 14.0654ZM2.51302 1.80971L25.625 0.0949578C28.4798 -0.150944 29.209 0.0162693 30.9928 1.31135L38.3756 6.55725C39.5931 7.45561 40.0033 7.69824 40.0033 8.67856V37.3409C40.0033 39.1343 39.3522 40.1966 37.0736 40.3605L10.2181 41.9999C8.51237 42.0818 7.70182 41.8359 6.8099 40.6884L1.38021 33.5736C0.403646 32.2622 0 31.2786 0 30.1441V4.66873C0 3.19988 0.651042 1.96709 2.51302 1.80971Z" fill="#F1F1F1"/>
</g>
<defs>
<clipPath id="clip0_9_253">
<rect width="40" height="42" fill="white"/>
</clipPath>
</defs>
</svg>
