<svg width="40" height="44" viewBox="0 0 40 44" fill="none" xmlns="http://www.w3.org/2000/svg">
<path d="M19.3311 43.5676C18.7476 43.5676 18.1682 43.4146 17.6567 43.1201L12.327 39.9647C11.5309 39.5195 11.9194 39.3621 12.1819 39.2713C13.2433 38.8997 13.4587 38.8158 14.5916 38.1724C14.7107 38.1045 14.8666 38.1284 14.9884 38.2004L19.0829 40.6301C19.2308 40.71 19.4406 40.71 19.5776 40.6301L35.5423 31.4149C35.6902 31.331 35.7861 31.1591 35.7861 30.9833V12.561C35.7861 12.3771 35.6902 12.2133 35.5391 12.1214L19.5808 2.91421C19.433 2.82629 19.2372 2.82629 19.0893 2.91421L3.1342 12.1214C2.97955 12.2093 2.88124 12.3811 2.88124 12.557V30.9793C2.88124 31.1551 2.97715 31.323 3.129 31.4069L7.50081 33.9325C9.87454 35.1193 11.3252 33.7207 11.3252 32.314V14.1314C11.3252 13.8717 11.529 13.6719 11.7887 13.6719H13.8108C14.0625 13.6719 14.2703 13.8717 14.2703 14.1314V32.322C14.2703 35.487 12.544 37.3052 9.54286 37.3052C8.61974 37.3052 7.89243 37.3052 5.86238 36.3062L1.6744 33.8925C0.639388 33.2931 0 32.1742 0 30.9793V12.557C0 11.3581 0.639388 10.2392 1.6744 9.64775L17.6551 0.428589C18.6661 -0.142863 20.0088 -0.142863 21.0119 0.428589L36.9726 9.65175C38.0036 10.2472 38.647 11.3621 38.647 12.561V30.9833C38.647 32.1781 38.0036 33.2931 36.9726 33.8925L21.0119 43.1117C20.5004 43.4074 19.9209 43.5592 19.3295 43.5592" fill="#689F63"/>
<path d="M24.2624 30.8733C17.2771 30.8733 15.8125 27.6668 15.8125 24.9774C15.8125 24.7216 16.0187 24.5178 16.2749 24.5178H18.3369C18.5647 24.5178 18.7565 24.6837 18.7924 24.9087C19.1041 27.0098 20.0313 28.0696 24.2552 28.0696C27.62 28.0696 29.0506 27.3096 29.0506 25.5253C29.0506 24.4982 28.643 23.735 23.416 23.2235C19.0442 22.7919 16.3428 21.8288 16.3428 18.3322C16.3428 15.1112 19.0602 13.1931 23.6118 13.1931C28.7229 13.1931 31.2565 14.9674 31.5762 18.7797C31.5882 18.9116 31.5402 19.0395 31.4523 19.1354C31.3644 19.2273 31.2405 19.2832 31.1126 19.2832H29.0386C28.8228 19.2832 28.635 19.1314 28.5911 18.9236C28.0915 16.7137 26.8847 16.0064 23.6038 16.0064C19.9314 16.0064 19.5038 17.2852 19.5038 18.2442C19.5038 19.4071 20.0073 19.7468 24.9625 20.4022C29.8698 21.0535 32.1996 21.9727 32.1996 25.4214C32.1996 28.898 29.2984 30.8921 24.2392 30.8921L24.2624 30.8733Z" fill="#689F63"/>
</svg>
