<svg width="40" height="40" viewBox="0 0 40 40" fill="none" xmlns="http://www.w3.org/2000/svg">
<path d="M7.08334 3.22406e-06H32.9167C33.8471 -0.000896212 34.7686 0.186404 35.6284 0.551183C36.4882 0.915963 37.2694 1.45106 37.9273 2.12585C38.5852 2.80065 39.1069 3.60189 39.4626 4.48372C39.8183 5.36555 40.0009 6.31066 40 7.26496V32.735C40.0009 33.6893 39.8183 34.6345 39.4626 35.5163C39.1069 36.3981 38.5852 37.1994 37.9273 37.8741C37.2694 38.5489 36.4882 39.084 35.6284 39.4488C34.7686 39.8136 33.8471 40.0009 32.9167 40H7.08334C6.15289 40.0009 5.23141 39.8136 4.37162 39.4488C3.51184 39.084 2.73063 38.5489 2.07271 37.8741C1.41478 37.1994 0.893064 36.3981 0.537404 35.5163C0.181743 34.6345 -0.000873806 33.6893 3.14346e-06 32.735V7.26496C-0.000873806 6.31066 0.181743 5.36555 0.537404 4.48372C0.893064 3.60189 1.41478 2.80065 2.07271 2.12585C2.73063 1.45106 3.51184 0.915963 4.37162 0.551183C5.23141 0.186404 6.15289 -0.000896212 7.08334 3.22406e-06V3.22406e-06Z" fill="#000B1D"/>
<path d="M12.5713 13.095L19.5175 16.958V23.2411L12.5713 19.1278V13.095Z" fill="#6483C0"/>
<path d="M19.75 23.6714L12.3425 19.2839V12.6844L19.75 16.7962V23.6714ZM12.8025 18.9703L19.2875 22.8094V17.1183L12.8025 13.5127V18.9703Z" fill="black"/>
<path d="M19.9637 16.958V23.2411L26.1437 19.7353V13.4634L19.9637 16.958Z" fill="#6483C0"/>
<path d="M19.7325 23.663V16.7977L26.3738 13.043V19.8956L19.7325 23.663ZM20.1938 17.1169V22.8192L25.9125 19.575V13.8839L20.1938 17.1169Z" fill="black"/>
<path d="M12.8787 12.6802L19.7324 16.5938L25.8524 13.0556L19.2212 9.29391L12.8787 12.6802Z" fill="#6483C0"/>
<path d="M19.7338 16.8862L12.3588 12.6675L19.2338 9L26.37 13.0486L19.7338 16.8862ZM13.4025 12.6844L19.7325 16.2984L25.345 13.0528L19.22 9.57797L13.4025 12.6844Z" fill="black"/>
<path d="M23.1963 19.7564L30.1438 23.618V29.9011L23.1963 25.7878V19.7564Z" fill="#952781"/>
<path d="M30.375 30.3314L22.9675 25.9439V19.3345L30.375 23.4563V30.3314ZM23.4288 25.6303L29.9138 29.4708V23.7783L23.4288 20.1727V25.6303Z" fill="black"/>
<path d="M30.5887 23.618V29.9011L36.7687 26.3953V20.1234L30.5887 23.618Z" fill="#952781"/>
<path d="M30.3588 30.323V23.4577L37 19.703V26.5556L30.3588 30.323ZM30.82 23.7769V29.4792L36.5388 26.2336V20.5439L30.82 23.7769Z" fill="black"/>
<path d="M23.5038 19.3584L30.3588 23.272L36.4788 19.7325L29.955 16.2647L23.5038 19.3584Z" fill="#952781"/>
<path d="M30.3587 23.5631L22.9587 19.3373L29.9587 15.9806L37 19.7227L30.3587 23.5631ZM24.05 19.3781L30.3575 22.9795L35.9562 19.7452L29.9487 16.553L24.05 19.3781Z" fill="black"/>
<path d="M2.23755 19.2881L9.18505 23.1511V29.4342L2.23755 25.3209V19.2881Z" fill="#D87B30"/>
<path d="M9.41507 29.8645L2.00757 25.4812V18.8719L9.41507 22.9908V29.8645ZM2.46882 25.1634L8.95382 29.0039V23.3114L2.46882 19.7058V25.1634Z" fill="black"/>
<path d="M9.63 23.1511V29.4342L15.81 25.9284V19.6566L9.63 23.1511Z" fill="#D87B30"/>
<path d="M9.40002 29.8561V22.9908L16.0413 19.2361V26.0888L9.40002 29.8561ZM9.86127 23.31V29.0123L15.58 25.7625V20.077L9.86127 23.31Z" fill="black"/>
<path d="M2.54492 18.8902L9.39992 22.8052L15.5199 19.2656L8.99617 15.7978L2.54492 18.8902Z" fill="#D87B30"/>
<path d="M9.4 23.0906L2 18.8719L9 15.5152L16.04 19.2572L9.4 23.0906ZM3.09125 18.9112L9.39875 22.5127L14.9975 19.2783L8.99 16.0861L3.09125 18.9112Z" fill="black"/>
<path d="M13.0938 20.4131L20.04 24.2747V30.5592L13.0938 26.4445V20.4131Z" fill="#E0D400"/>
<path d="M20.2713 30.9881L12.8638 26.6062V19.9969L20.2713 24.1158V30.9881ZM13.325 26.2884L19.81 30.1289V24.4364L13.325 20.8308V26.2884Z" fill="black"/>
<path d="M20.4862 24.2747V30.5592L26.6662 27.052V20.7802L20.4862 24.2747Z" fill="#E0D400"/>
<path d="M20.25 30.9811V24.1158L26.8912 20.3611V27.2138L20.25 30.9811ZM20.7112 24.435V30.1373L26.4362 26.8875V21.202L20.7112 24.435Z" fill="black"/>
<path d="M13.4012 19.9983L20.2562 23.9119L26.3762 20.3723L19.745 16.612L13.4012 19.9983Z" fill="#E0D400"/>
<path d="M20.2562 24.203L12.8812 19.9842L19.7562 16.3167L26.8925 20.3653L20.2562 24.203ZM13.925 20.0053L20.255 23.6194L25.8675 20.3737L19.7425 16.8989L13.925 20.0053Z" fill="black"/>
</svg>
