<svg width="46" height="46" viewBox="0 0 46 46" fill="none" xmlns="http://www.w3.org/2000/svg">
<path d="M10.0833 3H35.9167C36.8471 2.9991 37.7686 3.1864 38.6284 3.55118C39.4882 3.91596 40.2694 4.45106 40.9273 5.12585C41.5852 5.80065 42.1069 6.60189 42.4626 7.48372C42.8183 8.36555 43.0009 9.31066 43 10.265V35.735C43.0009 36.6893 42.8183 37.6345 42.4626 38.5163C42.1069 39.3981 41.5852 40.1994 40.9273 40.8741C40.2694 41.5489 39.4882 42.084 38.6284 42.4488C37.7686 42.8136 36.8471 43.0009 35.9167 43H10.0833C9.15289 43.0009 8.23141 42.8136 7.37162 42.4488C6.51184 42.084 5.73063 41.5489 5.07271 40.8741C4.41478 40.1994 3.89306 39.3981 3.5374 38.5163C3.18174 37.6345 2.99913 36.6893 3 35.735V10.265C2.99913 9.31066 3.18174 8.36555 3.5374 7.48372C3.89306 6.60189 4.41478 5.80065 5.07271 5.12585C5.73063 4.45106 6.51184 3.91596 7.37162 3.55118C8.23141 3.1864 9.15289 2.9991 10.0833 3V3Z" fill="#000B1D"/>
<path d="M35.8899 12.1237L30.1736 9.37137C29.5119 9.0528 28.7212 9.18718 28.2019 9.70645L9.48882 26.7684C8.98549 27.2273 8.98607 28.0197 9.49007 28.4779L11.0186 29.8675C11.4307 30.2421 12.0512 30.2697 12.4948 29.9331L35.0297 12.8377C35.7857 12.2642 36.8716 12.8034 36.8716 13.7523V13.686C36.8716 13.0198 36.49 12.4126 35.8899 12.1237Z" fill="#0065A9"/>
<g filter="url(#filter0_d_9_62)">
<path d="M35.8898 33.8763L30.1734 36.6286C29.5118 36.9472 28.721 36.8128 28.2018 36.2935L9.4887 19.2316C8.98537 18.7727 8.98594 17.9802 9.48995 17.5221L11.0185 16.1325C11.4305 15.7579 12.0511 15.7303 12.4947 16.0669L35.0296 33.1623C35.7856 33.7358 36.8715 33.1966 36.8715 32.2477V32.3141C36.8715 32.9801 36.4899 33.5873 35.8898 33.8763Z" fill="#007ACC"/>
</g>
<g filter="url(#filter1_d_9_62)">
<path d="M30.1738 36.6291C29.5119 36.9475 28.7212 36.8129 28.2018 36.2935C28.8417 36.9334 29.9358 36.4802 29.9358 35.5753V10.4247C29.9358 9.51977 28.8417 9.06659 28.2018 9.70646C28.7212 9.18714 29.5119 9.05257 30.1738 9.37086L35.8891 12.1194C36.4896 12.4082 36.8715 13.0156 36.8715 13.682V32.3181C36.8715 32.9845 36.4896 33.5919 35.8891 33.8807L30.1738 36.6291Z" fill="#1F9CF0"/>
</g>
<g style="mix-blend-mode:overlay" opacity="0.25">
<path style="mix-blend-mode:overlay" fill-rule="evenodd" clip-rule="evenodd" d="M28.7847 36.6821C29.2217 36.8523 29.72 36.8414 30.161 36.6292L35.8728 33.8808C36.473 33.592 36.8547 32.9846 36.8547 32.3181V13.6821C36.8547 13.0157 36.473 12.4082 35.8728 12.1194L30.161 9.37092C29.5822 9.09241 28.9048 9.16063 28.3968 9.52994C28.3242 9.5827 28.2551 9.6416 28.1902 9.70652L17.2556 19.6824L12.4927 16.067C12.0494 15.7304 11.4292 15.758 11.0174 16.1325L9.48978 17.5221C8.98608 17.9803 8.9855 18.7728 9.48853 19.2317L13.6191 23.0001L9.48853 26.7684C8.9855 27.2274 8.98608 28.0198 9.48978 28.478L11.0174 29.8676C11.4292 30.2422 12.0494 30.2697 12.4927 29.9332L17.2556 26.3177L28.1902 36.2936C28.3632 36.4667 28.5663 36.597 28.7847 36.6821ZM29.9231 16.7021L21.6263 23.0001L29.9231 29.2981V16.7021Z" fill="url(#paint0_linear_9_62)"/>
</g>
<defs>
<filter id="filter0_d_9_62" x="0.778233" y="7.49851" width="44.4266" height="37.6346" filterUnits="userSpaceOnUse" color-interpolation-filters="sRGB">
<feFlood flood-opacity="0" result="BackgroundImageFix"/>
<feColorMatrix in="SourceAlpha" type="matrix" values="0 0 0 0 0 0 0 0 0 0 0 0 0 0 0 0 0 0 127 0" result="hardAlpha"/>
<feOffset/>
<feGaussianBlur stdDeviation="4.16667"/>
<feColorMatrix type="matrix" values="0 0 0 0 0 0 0 0 0 0 0 0 0 0 0 0 0 0 0.25 0"/>
<feBlend mode="overlay" in2="BackgroundImageFix" result="effect1_dropShadow_9_62"/>
<feBlend mode="normal" in="SourceGraphic" in2="effect1_dropShadow_9_62" result="shape"/>
</filter>
<filter id="filter1_d_9_62" x="19.8685" y="0.866657" width="25.3364" height="44.2667" filterUnits="userSpaceOnUse" color-interpolation-filters="sRGB">
<feFlood flood-opacity="0" result="BackgroundImageFix"/>
<feColorMatrix in="SourceAlpha" type="matrix" values="0 0 0 0 0 0 0 0 0 0 0 0 0 0 0 0 0 0 127 0" result="hardAlpha"/>
<feOffset/>
<feGaussianBlur stdDeviation="4.16667"/>
<feColorMatrix type="matrix" values="0 0 0 0 0 0 0 0 0 0 0 0 0 0 0 0 0 0 0.25 0"/>
<feBlend mode="overlay" in2="BackgroundImageFix" result="effect1_dropShadow_9_62"/>
<feBlend mode="normal" in="SourceGraphic" in2="effect1_dropShadow_9_62" result="shape"/>
</filter>
<linearGradient id="paint0_linear_9_62" x1="22.9832" y1="9.20006" x2="22.9832" y2="36.8001" gradientUnits="userSpaceOnUse">
<stop stop-color="white"/>
<stop offset="1" stop-color="white" stop-opacity="0"/>
</linearGradient>
</defs>
</svg>
