<svg width="58" height="58" viewBox="0 0 58 58" fill="none" xmlns="http://www.w3.org/2000/svg">
<path d="M47.6847 13.2372L39.4002 9.24837C38.4412 8.78666 37.2952 8.98142 36.5427 9.73398L9.42235 34.4614C8.69289 35.1264 8.69372 36.2749 9.42416 36.9389L11.6394 38.9528C12.2366 39.4957 13.1359 39.5357 13.7789 39.0479L46.438 14.272C47.5337 13.4408 49.1074 14.2223 49.1074 15.5975V15.5014C49.1074 14.536 48.5544 13.656 47.6847 13.2372Z" fill="#0065A9"/>
<g filter="url(#filter0_d_9_62)">
<path d="M47.6845 44.7627L39.4 48.7515C38.4411 49.2133 37.2951 49.0185 36.5426 48.2659L9.42223 23.5385C8.69276 22.8734 8.6936 21.725 9.42404 21.0609L11.6393 19.047C12.2365 18.5042 13.1358 18.4642 13.7788 18.952L46.4379 43.7279C47.5336 44.5591 49.1073 43.7776 49.1073 42.4024V42.4985C49.1073 43.4639 48.5543 44.3439 47.6845 44.7627Z" fill="#007ACC"/>
</g>
<g filter="url(#filter1_d_9_62)">
<path d="M39.4005 48.7523C38.4413 49.2137 37.2953 49.0185 36.5427 48.2659C37.47 49.1932 39.0556 48.5364 39.0556 47.225V10.7749C39.0556 9.46344 37.47 8.80666 36.5427 9.734C37.2953 8.98136 38.4413 8.78633 39.4005 9.24763L47.6836 13.231C48.5539 13.6495 49.1074 14.5299 49.1074 15.4957V42.5044C49.1074 43.4702 48.5539 44.3505 47.6835 44.7691L39.4005 48.7523Z" fill="#1F9CF0"/>
</g>
<g style="mix-blend-mode:overlay" opacity="0.25">
<path style="mix-blend-mode:overlay" fill-rule="evenodd" clip-rule="evenodd" d="M37.3874 48.8291C38.0207 49.0757 38.7428 49.0599 39.3819 48.7524L47.6599 44.7692C48.5298 44.3506 49.0829 43.4703 49.0829 42.5045V15.4958C49.0829 14.5299 48.5298 13.6496 47.66 13.231L39.3819 9.24772C38.5431 8.84409 37.5614 8.94295 36.8252 9.47818C36.72 9.55464 36.6198 9.64001 36.5258 9.73409L20.6786 24.1918L13.7759 18.9521C13.1333 18.4643 12.2345 18.5043 11.6377 19.0471L9.42377 21.061C8.69377 21.7251 8.69294 22.8735 9.42196 23.5386L15.4082 29L9.42196 34.4615C8.69294 35.1266 8.69377 36.275 9.42377 36.939L11.6377 38.9529C12.2345 39.4958 13.1333 39.5358 13.7759 39.048L20.6786 33.8082L36.5258 48.266C36.7765 48.5168 37.0709 48.7057 37.3874 48.8291ZM39.0372 19.8726L27.0128 29L39.0372 38.1275V19.8726Z" fill="url(#paint0_linear_9_62)"/>
</g>
<defs>
<filter id="filter0_d_9_62" x="0.542332" y="10.278" width="56.8983" height="47.0549" filterUnits="userSpaceOnUse" color-interpolation-filters="sRGB">
<feFlood flood-opacity="0" result="BackgroundImageFix"/>
<feColorMatrix in="SourceAlpha" type="matrix" values="0 0 0 0 0 0 0 0 0 0 0 0 0 0 0 0 0 0 127 0" result="hardAlpha"/>
<feOffset/>
<feGaussianBlur stdDeviation="4.16667"/>
<feColorMatrix type="matrix" values="0 0 0 0 0 0 0 0 0 0 0 0 0 0 0 0 0 0 0.25 0"/>
<feBlend mode="overlay" in2="BackgroundImageFix" result="effect1_dropShadow_9_62"/>
<feBlend mode="normal" in="SourceGraphic" in2="effect1_dropShadow_9_62" result="shape"/>
</filter>
<filter id="filter1_d_9_62" x="28.2093" y="0.66666" width="29.2314" height="56.6666" filterUnits="userSpaceOnUse" color-interpolation-filters="sRGB">
<feFlood flood-opacity="0" result="BackgroundImageFix"/>
<feColorMatrix in="SourceAlpha" type="matrix" values="0 0 0 0 0 0 0 0 0 0 0 0 0 0 0 0 0 0 127 0" result="hardAlpha"/>
<feOffset/>
<feGaussianBlur stdDeviation="4.16667"/>
<feColorMatrix type="matrix" values="0 0 0 0 0 0 0 0 0 0 0 0 0 0 0 0 0 0 0.25 0"/>
<feBlend mode="overlay" in2="BackgroundImageFix" result="effect1_dropShadow_9_62"/>
<feBlend mode="normal" in="SourceGraphic" in2="effect1_dropShadow_9_62" result="shape"/>
</filter>
<linearGradient id="paint0_linear_9_62" x1="28.9793" y1="9.00009" x2="28.9793" y2="49" gradientUnits="userSpaceOnUse">
<stop stop-color="white"/>
<stop offset="1" stop-color="white" stop-opacity="0"/>
</linearGradient>
</defs>
</svg>
